<svg width="629" height="341" viewBox="0 0 629 341" fill="none" xmlns="http://www.w3.org/2000/svg">
<path d="M576.943 197.234C616.472 197.234 612.16 200.908 594.592 253.133C578.62 300.487 567.68 320.277 556.181 336.567H599.383C604.973 308.777 610.722 286.433 615.354 258.004C623.739 206.258 628.131 192.842 611.441 192.842C594.751 192.842 532.065 192.842 532.065 192.842L532.784 197.314C532.784 197.234 537.415 197.234 576.943 197.234Z" fill="#F67459"/>
<path d="M607.617 197.232C599.312 194.358 571.416 196.035 558.506 197.232L510.993 327.396L568.089 338.576C581.265 318.612 608.815 273.175 613.607 251.135C619.596 223.585 617.999 200.826 607.617 197.232Z" fill="#F67459"/>
<path d="M120.331 184.298C116.418 183.1 113.703 185.576 112.426 189.808C111.148 194.04 110.908 202.904 113.703 205.939C117.696 204.98 122.487 197.474 123.765 193.242C125.043 189.009 124.244 185.416 120.331 184.298Z" fill="#39805E"/>
<path d="M99.5694 196.036C95.9759 197.953 95.8162 201.626 97.8924 205.459C99.9687 209.292 106.118 215.761 110.19 215.92C112.346 212.407 110.19 203.862 108.114 200.029C106.038 196.196 103.163 194.12 99.5694 196.036Z" fill="#39805E"/>
<path d="M91.1043 214.004C87.8302 216.48 88.3093 220.073 91.0244 223.587C93.6596 227.101 100.767 232.531 104.839 231.972C106.436 228.219 103.083 219.914 100.447 216.4C97.7322 212.966 94.3783 211.529 91.1043 214.004Z" fill="#39805E"/>
<path d="M86.7125 232.371C83.4384 234.846 83.9176 238.52 86.5528 241.953C89.188 245.467 96.2951 250.817 100.368 250.338C101.965 246.585 98.6109 238.36 95.8958 234.846C93.2606 231.413 89.9865 229.895 86.7125 232.371Z" fill="#39805E"/>
<path d="M118.894 250.179C116.978 246.585 113.304 246.426 109.471 248.502C105.638 250.578 99.17 256.727 99.0103 260.799C102.524 262.956 111.228 261.039 115.061 258.963C118.894 256.887 120.811 253.772 118.894 250.179Z" fill="#39805E"/>
<path d="M123.047 232.131C121.29 228.378 117.696 228.059 113.704 229.895C109.711 231.732 102.923 237.561 102.524 241.634C105.878 243.95 114.662 242.513 118.655 240.676C122.647 238.839 124.724 235.885 123.047 232.131Z" fill="#39805E"/>
<path d="M128.237 213.286C126.48 209.613 122.807 209.293 118.894 211.13C114.901 212.967 108.193 218.796 107.794 222.869C111.148 225.184 119.932 223.667 123.925 221.83C127.917 219.994 129.994 217.039 128.237 213.286Z" fill="#39805E"/>
<path d="M19.7104 201.786C19.7104 201.786 42.8684 225.503 53.8885 244.269C71.3767 274.135 80.2407 306.796 80.2407 306.796" stroke="#7BDFE5" stroke-width="2" stroke-miterlimit="10" stroke-linecap="round" stroke-linejoin="round"/>
<path d="M30.9697 188.929C35.0423 189.329 36.5596 192.682 36.1603 197.075C35.761 201.467 32.487 209.771 28.8136 211.448C25.4597 209.053 24.182 200.349 24.6612 195.957C24.9806 191.565 26.8971 188.53 30.9697 188.929Z" fill="#7BDFE6"/>
<path d="M3.2334 189.566C5.61549 186.239 9.27869 186.602 12.8827 189.144C16.4866 191.685 22.0419 198.673 21.6575 202.693C17.9059 204.4 9.72895 201.154 6.16491 198.543C2.521 196.071 0.851313 192.894 3.2334 189.566Z" fill="#7BDFE6"/>
<path d="M45.5835 202.345C49.5763 203.383 50.4547 206.897 49.3367 211.129C48.2187 215.362 43.7468 223.108 39.8339 224.146C36.9592 221.271 36.8793 212.327 37.9973 208.095C39.1152 203.942 41.6706 201.307 45.5835 202.345Z" fill="#7BDFE6"/>
<path d="M56.6836 217.598C60.6764 218.636 61.6346 222.149 60.5167 226.382C59.3987 230.614 54.9268 238.36 50.934 239.398C48.0593 236.523 47.9794 227.58 49.0974 223.347C50.2153 219.195 52.6909 216.56 56.6836 217.598Z" fill="#7BDFE6"/>
<path d="M33.7646 246.346C34.1639 242.273 37.5178 240.756 41.9098 241.155C46.3018 241.554 54.6068 244.828 56.2837 248.502C53.8881 251.856 45.104 253.373 40.712 252.894C36.3199 252.574 33.3653 250.418 33.7646 246.346Z" fill="#7BDFE6"/>
<path d="M23.0641 231.252C23.2238 227.18 26.4979 225.423 30.8899 225.663C35.282 225.822 43.7466 228.617 45.6631 232.211C43.4272 235.645 34.8028 237.721 30.4108 237.481C25.9389 237.321 22.9044 235.405 23.0641 231.252Z" fill="#7BDFE6"/>
<path d="M11.006 215.841C11.1657 211.768 14.4398 210.091 18.8318 210.251C23.2239 210.491 31.6885 213.286 33.5252 216.879C31.2892 220.313 22.585 222.309 18.193 222.07C13.8808 221.91 10.8463 219.993 11.006 215.841Z" fill="#7BDFE6"/>
<path d="M55.6455 153.314C55.6455 153.314 68.0231 184.059 70.9777 205.62C75.769 239.877 73.8525 296.894 73.8525 296.894" stroke="#64C6CC" stroke-width="2" stroke-miterlimit="10" stroke-linecap="round" stroke-linejoin="round"/>
<path d="M50.0553 133.989C53.9682 132.791 56.6833 135.267 57.961 139.499C59.2387 143.731 59.4783 152.595 56.6833 155.63C52.6906 154.671 47.8993 147.165 46.6216 142.933C45.3439 138.78 46.1424 135.187 50.0553 133.989Z" fill="#64C6CC"/>
<path d="M70.8974 145.808C74.4909 147.724 74.6506 151.398 72.5744 155.231C70.4982 159.144 64.3493 165.532 60.1969 165.692C58.0408 162.178 60.1969 153.634 62.2731 149.801C64.3493 145.888 67.2241 143.811 70.8974 145.808Z" fill="#64C6CC"/>
<path d="M79.2827 163.775C82.5567 166.25 82.0776 169.844 79.3625 173.358C76.7273 176.871 69.6202 182.301 65.5476 181.742C63.9505 177.989 67.3044 169.684 69.9396 166.171C72.6547 162.737 76.0086 161.299 79.2827 163.775Z" fill="#64C6CC"/>
<path d="M83.6745 182.142C86.9486 184.617 86.4694 188.291 83.8342 191.724C81.199 195.238 74.0919 200.588 70.0193 200.109C68.4222 196.356 71.7761 188.131 74.4912 184.617C77.1264 181.104 80.4004 179.666 83.6745 182.142Z" fill="#64C6CC"/>
<path d="M51.5729 199.949C53.4894 196.356 57.1628 196.196 60.9958 198.272C64.8289 200.349 71.2971 206.497 71.4568 210.57C67.9432 212.726 59.239 210.81 55.406 208.733C51.5729 206.657 49.5765 203.543 51.5729 199.949Z" fill="#64C6CC"/>
<path d="M47.4201 181.903C49.1769 178.15 52.7703 177.83 56.7631 179.667C60.7559 181.504 67.5435 187.333 67.9428 191.406C64.5889 193.721 55.8048 192.284 51.8121 190.447C47.7395 188.611 45.6632 185.576 47.4201 181.903Z" fill="#64C6CC"/>
<path d="M42.1497 163.056C43.9065 159.383 47.5799 159.063 51.4928 160.9C55.4855 162.737 62.1934 168.566 62.5926 172.639C59.2387 174.954 50.4547 173.437 46.4619 171.601C42.4691 169.764 40.3929 166.729 42.1497 163.056Z" fill="#64C6CC"/>
<path d="M33.845 271.101H123.203V287.95C123.203 312.625 103.239 332.589 78.5639 332.589H78.4042C53.7289 332.589 33.7651 312.625 33.7651 287.95V271.101H33.845Z" fill="#89A1FF"/>
<path d="M198.989 109.713H210.488L216.078 90.7075C216.637 88.6313 215.2 87.0342 212.724 87.0342C210.249 87.0342 207.614 88.6313 206.815 90.7075L198.989 109.713Z" fill="#253B6D"/>
<path d="M212.804 200.109H179.425C179.425 200.109 146.365 285.475 139.337 305.838C132.31 326.201 143.41 332.589 149.559 332.589C175.512 332.589 214.321 332.589 214.321 332.589C214.321 332.589 213.203 318.455 192.84 318.455C172.477 318.455 181.501 301.126 186.532 284.037C196.274 250.418 212.804 200.109 212.804 200.109Z" fill="#DCE0F4"/>
<path d="M98.1322 293.46H303.36C312.144 293.46 319.331 286.353 319.331 277.489V122.57C319.331 113.786 312.224 106.599 303.36 106.599H98.1322C89.3481 106.599 82.1611 113.706 82.1611 122.57V277.489C82.1611 286.273 89.3481 293.46 98.1322 293.46Z" fill="#9CE4FF"/>
<path d="M98.1322 293.46H303.36C312.144 293.46 319.331 286.353 319.331 277.489V122.57C319.331 113.786 312.224 106.599 303.36 106.599H98.1322C89.3481 106.599 82.1611 113.706 82.1611 122.57V277.489C82.1611 286.273 89.3481 293.46 98.1322 293.46Z" fill="#253B6D"/>
<path d="M213.922 101.807C222.743 101.807 229.893 94.6563 229.893 85.8358C229.893 77.0152 222.743 69.8647 213.922 69.8647C205.102 69.8647 197.951 77.0152 197.951 85.8358C197.951 94.6563 205.102 101.807 213.922 101.807Z" fill="#DCE0F4"/>
<path d="M200.347 85.8364C200.347 93.3428 206.416 99.332 213.922 99.332" stroke="#B7BBD1" stroke-width="2" stroke-miterlimit="10" stroke-linecap="round" stroke-linejoin="round"/>
<path d="M213.922 93.0233C217.892 93.0233 221.109 89.8056 221.109 85.8364C221.109 81.8671 217.892 78.6494 213.922 78.6494C209.953 78.6494 206.735 81.8671 206.735 85.8364C206.735 89.8056 209.953 93.0233 213.922 93.0233Z" fill="#253B6D"/>
<path d="M212.325 87.4333C214.089 87.4333 215.519 86.0032 215.519 84.2391C215.519 82.475 214.089 81.0449 212.325 81.0449C210.561 81.0449 209.131 82.475 209.131 84.2391C209.131 86.0032 210.561 87.4333 212.325 87.4333Z" fill="#9CE4FF"/>
<path d="M233.087 75.4546L243.469 69.8647" stroke="#ADA8D7" stroke-width="2" stroke-miterlimit="10" stroke-linecap="round" stroke-linejoin="round"/>
<path d="M222.307 63.8764L228.056 55.811" stroke="#ADA8D7" stroke-width="2" stroke-miterlimit="10" stroke-linecap="round" stroke-linejoin="round"/>
<path d="M234.685 91.1865L244.267 94.6203" stroke="#ADA8D7" stroke-width="2" stroke-miterlimit="10" stroke-linecap="round" stroke-linejoin="round"/>
<path d="M82.1611 260.719V277.489C82.1611 286.273 89.2682 293.46 98.1322 293.46H303.36C312.144 293.46 319.331 286.353 319.331 277.489V260.719H82.1611Z" fill="#DCE0F4"/>
<path d="M134.386 293.46H303.36C312.144 293.46 319.331 286.353 319.331 277.489" stroke="#B7BBD1" stroke-width="2" stroke-miterlimit="10" stroke-linecap="round" stroke-linejoin="round"/>
<path d="M92.5421 252.734H308.151C309.509 252.734 310.547 251.696 310.547 250.338V126.163C310.547 120.174 305.755 115.383 299.766 115.383H100.927C94.9378 115.383 90.1465 120.174 90.1465 126.163V250.338C90.1465 251.616 91.2645 252.734 92.5421 252.734Z" fill="#F5F5F5"/>
<path d="M281 122.57H106.117V245.547H281V122.57Z" fill="#ADA8D7"/>
<path d="M277.806 129.757H109.312V242.353H277.806V129.757Z" fill="#E3E2FE"/>
<path d="M196.114 241.555C194.197 222.15 192.68 200.749 192.68 200.749C190.284 188.93 179.264 187.014 155.867 187.014C132.389 187.014 127.598 197.954 128.477 207.856C128.956 212.967 131.272 227.021 133.987 241.555H196.114Z" fill="#253B6D"/>
<path d="M139.656 241.555C141.573 222.15 143.09 200.749 143.09 200.749C145.486 188.93 156.506 187.014 179.903 187.014C203.381 187.014 208.172 197.954 207.294 207.856C206.814 212.967 204.499 227.021 201.784 241.555H139.656Z" fill="#253B6D"/>
<path d="M152.114 241.474C153.152 236.443 158.263 226.062 158.263 226.062C158.263 226.062 159.62 235.964 158.343 241.474H208.412C208.332 241.394 208.332 241.235 208.252 241.155C207.374 238.919 208.172 231.412 208.172 231.412C208.172 231.412 210.967 236.763 216.557 241.474H245.864C245.624 241.394 227.737 232.77 227.737 232.77C217.595 214.882 219.991 211.449 215.599 203.383C211.047 195.158 207.853 191.165 199.548 187.013C187.41 180.944 171.439 181.583 159.7 189.249C147.882 196.915 142.531 205.38 137.58 225.503C136.702 229.097 135.664 238.52 135.824 241.474H152.114Z" fill="white"/>
<path d="M182.619 225.583C182.619 225.583 168.804 208.973 165.37 186.055C172.877 182.461 185.094 181.503 195.156 184.937C197.632 187.572 182.619 225.583 182.619 225.583Z" fill="#5171ED"/>
<path d="M196.993 185.496C194.198 184.538 193.559 184.298 192.201 183.979C193.479 187.892 191.003 195.398 189.406 201.547C186.452 213.206 180.702 232.132 180.702 232.132C180.702 232.132 194.437 212.088 199.628 204.422L195.076 196.596L201.624 195.718C201.624 195.718 200.506 189.888 200.187 186.774C199.548 186.375 198.27 185.896 196.993 185.496Z" fill="#ECEEF8"/>
<path d="M193.958 195.079L199.548 204.342C199.548 204.342 195.316 210.491 188.608 220.393C182.299 229.736 180.702 232.052 180.702 232.052" stroke="#B7BBD1" stroke-width="2" stroke-miterlimit="10" stroke-linecap="round" stroke-linejoin="round"/>
<path d="M199.867 186.694L201.624 195.638L194.996 196.596" stroke="#B7BBD1" stroke-width="2" stroke-miterlimit="10" stroke-linecap="round" stroke-linejoin="round"/>
<path d="M165.69 229.017C165.69 229.017 152.114 203.464 159.541 190.687C164.492 182.222 171.838 180.466 184.056 180.146C194.837 179.907 203.541 189.25 201.944 198.752C201.385 202.106 199.947 205.78 199.468 208.734" stroke="#1B1733" stroke-width="4" stroke-miterlimit="10" stroke-linecap="round" stroke-linejoin="round"/>
<path d="M207.933 209.374C209.051 211.29 210.009 213.526 210.328 215.682C211.047 220.953 208.811 226.143 208.332 231.493C207.853 236.205 208.172 238.84 208.651 240.916" stroke="#B7BBD1" stroke-width="2" stroke-miterlimit="10" stroke-linecap="round" stroke-linejoin="round"/>
<path d="M190.764 196.596L181.421 192.204" stroke="#1469CC" stroke-width="2" stroke-miterlimit="10" stroke-linecap="round" stroke-linejoin="round"/>
<path d="M171.998 196.596L181.421 192.204" stroke="#1469CC" stroke-width="2" stroke-miterlimit="10" stroke-linecap="round" stroke-linejoin="round"/>
<path d="M165.85 185.496C168.645 184.538 169.284 184.298 170.641 183.979C169.363 187.892 171.839 195.398 173.436 201.547C176.391 213.206 182.54 225.264 182.54 225.264C182.54 225.264 168.485 212.088 163.294 204.342L167.846 196.516L161.298 195.638C161.298 195.638 162.416 189.808 162.735 186.694C163.215 186.375 164.572 185.896 165.85 185.496Z" fill="#ECEEF8"/>
<path d="M168.884 195.079L163.294 204.342C163.294 204.342 166.488 208.495 174.314 217.119C178.227 221.431 182.459 225.264 182.459 225.264" stroke="#B7BBD1" stroke-width="2" stroke-miterlimit="10" stroke-linecap="round" stroke-linejoin="round"/>
<path d="M162.895 186.694L161.218 195.638L167.846 196.596" stroke="#B7BBD1" stroke-width="2" stroke-miterlimit="10" stroke-linecap="round" stroke-linejoin="round"/>
<path d="M194.836 166.092C194.836 162.019 194.117 154.433 187.969 155.072C182.139 155.631 171.598 155.95 168.085 154.992C164.092 153.954 165.37 147.086 173.834 142.375C176.789 140.698 183.576 139.819 190.684 143.013C196.832 145.808 199.068 147.645 199.947 150.6C203.78 164.015 190.604 175.994 191.083 175.275C192.999 172.081 194.836 168.886 194.836 166.092Z" fill="#253B6D"/>
<path d="M177.469 154.344C184.312 153.029 189.049 147.75 188.051 142.553C187.052 137.356 180.695 134.209 173.852 135.524C167.01 136.839 162.272 142.118 163.271 147.315C164.269 152.512 170.626 155.659 177.469 154.344Z" fill="#253B6D"/>
<path d="M175.431 173.039C175.431 173.039 174.793 177.75 174.553 184.139C174.393 187.972 180.382 191.965 181.66 191.725C182.698 191.565 187.25 189.09 187.25 184.378C187.25 178.309 187.649 176.073 187.41 172.32C187.17 166.89 175.032 166.171 175.431 173.039Z" fill="#FCD7A8"/>
<path d="M181.58 182.861C183.177 183.659 184.854 183.979 187.25 184.058C187.409 179.267 187.25 178.069 187.489 173.198C187.729 167.768 175.191 169.365 175.91 176.871C176.549 178.868 177.986 180.944 181.58 182.861Z" fill="#F09D4A"/>
<path d="M194.038 161.3C193.558 163.696 194.597 166.091 196.274 166.571C197.951 167.05 199.707 165.453 200.186 163.057C200.666 160.661 199.627 158.266 197.951 157.786C196.274 157.227 194.517 158.825 194.038 161.3Z" fill="#FCD7A8"/>
<path d="M183.097 143.971C194.037 143.013 195.714 150.28 196.673 161.46C197.471 170.883 191.083 179.906 187.729 181.104C181.899 183.1 174.553 179.587 170.48 171.601C161.936 155.151 169.841 145.169 183.097 143.971Z" fill="#FCD7A8"/>
<path d="M168.324 165.133C168.324 161.061 169.043 153.475 175.192 154.113C181.021 154.672 191.562 154.992 195.076 154.034C199.069 152.995 201.145 150.28 201.145 146.367C201.145 142.694 199.787 138.222 195.475 137.903C190.923 137.583 186.451 139.899 186.451 139.899C186.451 139.899 180.143 136.545 172.956 139.739C166.807 142.534 164.172 146.767 163.293 149.721C159.46 163.137 172.636 175.115 172.157 174.397C170.241 171.202 168.324 167.928 168.324 165.133Z" fill="#253B6D"/>
<path d="M185.413 139.419C183.337 138.621 178.386 137.263 172.956 139.659C166.807 142.454 164.172 146.686 163.293 149.641C160.818 158.425 165.529 166.49 168.963 170.882" stroke="#1B1733" stroke-width="2" stroke-miterlimit="10" stroke-linecap="round" stroke-linejoin="round"/>
<path d="M195.475 138.861C186.052 137.423 177.747 144.131 177.747 144.131" stroke="#1B1733" stroke-width="2" stroke-miterlimit="10" stroke-linecap="round" stroke-linejoin="round"/>
<path d="M181.66 158.904C181.66 158.904 180.143 157.786 176.789 158.186C172.796 158.665 171.518 159.623 171.518 159.623C171.518 159.623 171.199 166.73 177.507 166.091C182.938 165.373 181.66 158.904 181.66 158.904Z" stroke="#253B6D" stroke-width="2" stroke-miterlimit="10" stroke-linecap="round" stroke-linejoin="round"/>
<path d="M185.812 158.824C185.812 158.824 186.851 157.467 189.805 157.147C193.319 156.748 194.517 157.467 194.517 157.467C194.517 157.467 196.274 164.334 190.764 164.973C186.132 165.452 185.812 158.824 185.812 158.824Z" stroke="#253B6D" stroke-width="2" stroke-miterlimit="10" stroke-linecap="round" stroke-linejoin="round"/>
<path d="M194.517 157.866C194.517 157.866 193.239 157.147 189.805 157.547C186.851 157.866 185.812 159.224 185.812 159.224L181.74 159.303C181.74 159.303 180.223 158.185 176.869 158.585C172.876 159.064 171.598 160.022 171.598 160.022L166.727 160.581" stroke="#253B6D" stroke-width="2" stroke-miterlimit="10" stroke-linecap="round" stroke-linejoin="round"/>
<path d="M199.628 157.307L194.756 157.866" stroke="#253B6D" stroke-width="2" stroke-miterlimit="10" stroke-linecap="round" stroke-linejoin="round"/>
<path d="M171.119 162.897C172.157 165.133 171.678 167.688 170.161 168.487C168.644 169.365 166.568 168.168 165.609 165.932C164.571 163.696 165.05 161.14 166.568 160.342C168.085 159.543 170.161 160.661 171.119 162.897Z" fill="#FCD7A8"/>
<path d="M192.521 231.732L191.403 231.653C189.327 231.493 187.809 229.656 188.049 227.58L189.087 216.001C189.486 211.609 193.399 208.335 197.791 208.734L200.826 208.974C205.218 209.373 208.492 213.286 208.092 217.678L207.054 229.257C206.895 231.333 205.058 232.85 202.982 232.611L201.944 232.531" stroke="#253B6D" stroke-width="2" stroke-miterlimit="10" stroke-linecap="round" stroke-linejoin="round"/>
<path d="M188.847 218.636L189.087 216C189.486 211.608 193.399 208.334 197.791 208.734L200.826 208.973C205.218 209.372 208.492 213.285 208.093 217.677L207.853 220.153" stroke="#1B1733" stroke-width="4" stroke-miterlimit="10" stroke-linecap="round" stroke-linejoin="round"/>
<path d="M194.198 232.93L192.92 232.69C192.521 232.61 192.281 232.291 192.281 231.891V231.492C192.281 231.093 192.681 230.773 193.08 230.773H194.357C194.837 230.773 195.156 231.173 195.156 231.652L195.076 232.291C195.076 232.69 194.677 233.009 194.198 232.93Z" fill="#2F8FFF"/>
<path d="M200.107 233.489H201.384C201.784 233.489 202.103 233.169 202.183 232.77V232.371C202.183 231.971 201.943 231.572 201.544 231.572L200.266 231.333C199.787 231.253 199.388 231.572 199.388 232.051L199.308 232.69C199.308 233.089 199.628 233.489 200.107 233.489Z" fill="#2F8FFF"/>
<path d="M165.29 225.903C165.21 225.903 164.811 226.063 164.731 226.142C161.856 227.26 160.419 230.774 161.697 233.888C162.974 237.003 166.248 238.6 169.203 237.482C169.283 237.482 169.682 237.322 169.762 237.242C172.637 236.124 174.074 232.611 172.797 229.496C171.599 226.382 168.245 224.785 165.29 225.903Z" fill="#253B6D"/>
<path d="M169.124 227.34C168.724 227.5 167.207 228.138 166.728 228.298C164.971 229.017 164.173 231.093 164.891 232.93C165.61 234.766 167.606 235.725 169.363 235.086C169.762 234.926 171.28 234.287 171.759 234.128C173.516 233.409 174.314 231.333 173.595 229.496C172.877 227.659 170.88 226.701 169.124 227.34Z" fill="#2F8FFF"/>
<path d="M171.62 234.797C173.632 234.007 174.583 231.636 173.745 229.501C172.907 227.367 170.597 226.276 168.585 227.066C166.574 227.855 165.622 230.226 166.46 232.361C167.298 234.496 169.608 235.587 171.62 234.797Z" fill="#1B1733"/>
<path d="M110.11 125.765H126.88" stroke="#DDEAF0" stroke-width="2" stroke-miterlimit="10" stroke-linecap="round" stroke-linejoin="round"/>
<path d="M277.007 124.167H269.022V127.362H277.007V124.167Z" fill="#DDEAF0"/>
<path d="M267.425 124.167H259.439V127.362H267.425V124.167Z" fill="#DDEAF0"/>
<path d="M257.842 124.167H249.856V127.362H257.842V124.167Z" fill="#DDEAF0"/>
<path opacity="0.4" d="M310.556 153.322L210.737 252.342H296.556C304.288 252.342 310.556 246.074 310.556 238.342V153.322Z" fill="#9F94F8"/>
<path d="M492.697 131.513C511.782 136.544 553.866 145.488 566.962 169.285C573.43 181.103 577.503 206.258 560.813 252.334C551.949 276.85 545.548 299.746 539 336C522 336 376.5 336 376.5 336C376.5 336 385.132 320.61 387.448 315.5C396.95 295.296 395.273 288.589 394.954 269.982C394.794 260.799 390.722 230.214 390.003 207.296C389.284 184.138 394.635 156.588 401.662 147.005C408.689 137.343 446.94 119.455 492.697 131.513Z" fill="#5171ED"/>
<path d="M398.387 150.199C389.923 160.82 357.262 227.1 340.412 272.378C336.1 284.037 363.65 297.772 366.845 293.3C371.875 286.353 373.952 287.95 380.979 282.839C394.794 272.777 400.064 264.951 406.373 257.046C468.261 179.506 424.66 117.139 398.387 150.199Z" fill="#5171ED"/>
<path d="M488.145 172C476.486 194.839 456.123 246.744 451.012 265.51C445.901 284.276 440.95 335.783 440.95 335.783L397.589 336.821C397.589 336.821 402.859 324.523 404.536 306.236C407.092 277.329 406.692 234.926 408.21 214.483C410.685 181.103 423.781 152.515 433.444 135.346C434.402 133.59 435.28 131.913 435.999 130.316C468.021 113.546 500.362 133.909 504.754 135.826C500.442 146.047 494.373 159.782 488.145 172Z" fill="white"/>
<path d="M500.682 74.2575C500.682 74.2575 500.922 72.6604 501.401 69.8655C501.88 67.0706 502.519 62.9979 503.237 58.1268C503.956 53.2556 504.675 47.4262 504.834 41.1975C504.914 38.0831 504.914 34.8091 504.595 31.4552C504.276 28.1012 503.717 24.6675 502.599 21.3934C501.481 18.0395 499.883 14.8453 497.568 12.1302C495.332 9.41514 492.457 7.33891 489.422 5.90152C487.905 5.18282 486.388 4.62384 484.951 4.22456C484.312 3.98499 483.433 3.82528 482.715 3.66557C481.916 3.50586 481.197 3.34615 480.479 3.34615C477.524 2.94688 474.569 3.18644 472.014 3.90514C469.459 4.62384 467.303 5.66195 465.546 6.85978C463.789 8.05761 462.431 9.33529 461.393 10.4533C460.355 11.5712 459.716 12.5295 459.237 13.1683C458.758 13.8072 458.598 14.2863 458.598 14.2863C458.279 14.8453 458.519 15.564 459.078 15.8834C459.636 16.2028 460.355 15.9633 460.595 15.4043C460.595 15.4043 460.754 15.0849 461.154 14.5259C461.553 13.9669 462.272 13.0885 463.15 12.2101C464.108 11.2518 465.386 10.2137 466.903 9.25543C468.5 8.29717 470.417 7.41877 472.573 6.93963C474.809 6.4605 477.205 6.38065 479.84 6.85978C480.479 6.93963 481.118 7.09934 481.756 7.25905C482.395 7.41877 482.954 7.57848 483.673 7.81804C484.951 8.21732 486.308 8.7763 487.506 9.495C489.981 10.8525 492.217 12.6892 493.974 15.005C495.731 17.3208 496.929 20.0359 497.727 22.9905C498.526 25.8653 498.925 28.9797 499.005 32.0141C499.165 35.0486 499.005 38.0831 498.766 41.0378C498.286 46.9471 497.248 52.4571 496.37 57.2484C495.412 61.9598 494.533 65.9526 493.974 68.7475C493.335 71.5424 493.016 73.1395 493.016 73.1395C492.537 75.2158 493.894 77.2122 495.891 77.6913C497.967 78.1704 499.963 76.8129 500.442 74.8165C500.682 74.4172 500.682 74.3374 500.682 74.2575Z" fill="#F67459"/>
<path d="M445.901 85.5169C454.81 85.5169 462.032 78.2949 462.032 69.3861C462.032 60.4773 454.81 53.2554 445.901 53.2554C436.992 53.2554 429.77 60.4773 429.77 69.3861C429.77 78.2949 436.992 85.5169 445.901 85.5169Z" fill="#F67459"/>
<path d="M491.179 97.1759C491.179 97.1759 492.537 115.063 493.096 133.031C493.415 143.652 465.466 155.47 461.952 154.831C458.997 154.272 458.758 140.378 458.438 133.59C457.48 112.748 458.359 110.991 457.72 94.8601C457.161 79.6877 492.457 78.0905 491.179 97.1759Z" fill="#FCD7A8"/>
<path d="M473.931 121.931C469.538 124.167 464.747 125.046 458.199 125.205C457.8 111.869 458.359 108.516 457.8 94.8603C457.241 79.6878 492.297 84.4792 489.981 105.401C488.065 110.911 483.912 116.82 473.931 121.931Z" fill="#F9AD61"/>
<path d="M476.246 25.1464C448.936 20.9141 443.506 38.7218 439.114 66.6711C435.44 90.1485 440.551 109.074 448.776 112.508C463.07 118.577 491.499 115.862 503.237 96.6167C527.513 56.8489 509.466 30.2571 476.246 25.1464Z" fill="#FCD7A8"/>
<path d="M495.89 89.1105C500.682 85.9961 505.473 86.1558 507.629 77.2919C508.987 71.702 503.477 63.9561 500.043 66.2719C496.21 68.8272 492.537 79.6077 489.023 70.3445C486.947 62.2791 487.665 57.1684 479.6 55.0922C474.09 53.6548 460.834 53.6548 455.164 52.4569C416.435 44.0722 416.035 11.092 423.302 4.14457C435.121 -7.115 455.723 7.6582 457.72 12.0502C460.275 10.9323 463.07 9.73444 467.861 8.3769C483.513 4.06472 509.865 16.3624 514.656 38.8816C523.92 43.2736 535.179 51.6584 529.35 67.7891C519.687 94.5406 496.609 110.831 495.651 105.561C493.495 93.4226 495.89 89.1105 495.89 89.1105Z" fill="#253B6D"/>
<path d="M500.762 65.9312C495.697 64.397 490.119 68.0123 488.303 74.0062C486.488 80.0002 489.122 86.1029 494.188 87.6371C499.253 89.1713 504.831 85.556 506.647 79.5621C508.462 73.5682 505.828 67.4654 500.762 65.9312Z" fill="#FFBF99"/>
<path d="M497.088 90.3084C505.997 90.3084 513.219 83.0864 513.219 74.1776C513.219 65.2689 505.997 58.0469 497.088 58.0469C488.18 58.0469 480.958 65.2689 480.958 74.1776C480.958 83.0864 488.18 90.3084 497.088 90.3084Z" fill="#F67459"/>
<path d="M497.089 86.2359C503.748 86.2359 509.147 80.8373 509.147 74.1778C509.147 67.5182 503.748 62.1196 497.089 62.1196C490.429 62.1196 485.031 67.5182 485.031 74.1778C485.031 80.8373 490.429 86.2359 497.089 86.2359Z" stroke="#FFAC9B" stroke-width="2" stroke-miterlimit="10" stroke-linecap="round" stroke-linejoin="round"/>
<path d="M500.682 74.2575C500.682 74.2575 501.481 69.6259 502.599 62.6785C503.637 55.6512 505.074 46.2283 504.914 36.486C504.834 31.6148 504.275 26.6638 502.918 22.1919C502.279 19.956 501.321 17.7999 500.283 15.8834C499.245 13.9668 497.967 12.2899 496.609 10.8525C493.894 8.05757 491.099 6.46047 489.103 5.58206C488.065 5.10293 487.266 4.86336 486.707 4.6238C486.148 4.46409 485.829 4.30438 485.829 4.30438C484.871 3.98496 483.833 4.46409 483.513 5.5022C483.194 6.46047 483.673 7.41873 484.551 7.818H484.631C484.631 7.818 484.871 7.89786 485.35 8.13742C485.829 8.29713 486.548 8.61656 487.346 9.09569C489.023 9.97409 491.339 11.4115 493.415 13.8071C494.453 15.005 495.412 16.4424 496.21 18.0395C497.009 19.6366 497.647 21.5531 498.206 23.4696C499.165 27.4624 499.484 31.9343 499.324 36.4062C499.005 45.4298 497.168 54.5333 495.731 61.321C494.214 68.1885 493.255 72.7402 493.255 72.7402C492.776 74.8165 494.134 76.8129 496.13 77.292C498.206 77.7711 500.203 76.4136 500.682 74.4172C500.682 74.4172 500.682 74.3373 500.682 74.2575Z" fill="#F67459"/>
<path d="M494.613 71.7821C494.613 71.7821 494.533 72.5807 494.293 74.0181C494.134 75.4555 493.894 77.5317 493.575 80.0072C493.255 82.4029 492.936 85.2777 492.377 88.1524C491.818 91.0272 491.019 93.902 489.502 96.2178C487.985 98.6135 485.669 100.45 483.194 101.888C481.996 102.606 480.638 103.245 479.44 103.644C479.201 103.724 478.881 103.804 478.642 103.884C478.322 103.964 478.003 104.044 477.763 104.123C477.125 104.283 476.566 104.363 476.007 104.443C473.691 104.762 471.615 104.842 470.177 104.922C468.74 105.002 467.941 104.922 467.941 104.922C467.302 104.922 466.743 105.401 466.743 106.04C466.743 106.679 467.223 107.158 467.782 107.238C467.782 107.238 468.66 107.318 470.097 107.477C471.535 107.557 473.611 107.717 476.246 107.637C476.885 107.637 477.604 107.557 478.243 107.477C478.562 107.477 478.961 107.398 479.361 107.318C479.76 107.238 480.159 107.158 480.558 107.078C482.076 106.679 483.513 106.12 485.03 105.481C486.548 104.842 488.065 103.964 489.582 102.926C491.099 101.888 492.457 100.61 493.655 99.0926C494.852 97.5753 495.811 95.9782 496.529 94.3013C497.248 92.6243 497.807 91.0272 498.286 89.4301C499.244 86.3158 499.803 83.441 500.362 81.0453C500.921 78.6497 501.321 76.6533 501.64 75.2159C501.96 73.7785 502.119 72.98 502.119 72.98C502.598 70.9037 501.321 68.9073 499.244 68.4282C497.168 67.9491 495.172 69.2268 494.693 71.303C494.613 71.4627 494.613 71.6224 494.613 71.7821Z" fill="#F67459"/>
<path d="M470.576 111.311L466.104 111.151C463.31 111.071 461.153 108.755 461.233 105.96C461.313 103.165 463.629 101.009 466.424 101.089L470.896 101.249C473.691 101.329 475.847 103.644 475.767 106.439C475.687 109.234 473.371 111.39 470.576 111.311Z" fill="#F67459"/>
<path d="M471.135 156.988L451.89 174.316C451.89 174.316 449.574 209.692 447.977 233.249C446.38 256.806 447.498 296.894 447.498 296.894L434.402 308.792L420.747 298.571C420.747 298.571 417.553 263.275 427.215 230.215C436.877 197.155 448.297 172.959 448.297 172.959C448.297 172.959 445.262 163.615 445.582 157.786C445.901 152.036 446.7 148.842 446.7 148.842C446.7 148.842 458.518 150.28 463.709 152.915C468.979 155.63 471.135 156.988 471.135 156.988Z" fill="#263059"/>
<path d="M509.545 132.552C509.545 132.552 502.918 123.847 499.324 120.813C493.335 115.702 497.807 118.417 491.977 126.642C489.662 129.916 476.645 142.773 469.778 146.686C462.91 150.599 458.678 151.078 458.678 151.078C458.678 151.078 461.712 152.356 468.021 160.182C474.329 168.007 481.117 181.343 481.117 181.343C481.117 181.343 495.731 156.269 501.001 146.766C506.192 137.343 509.545 132.552 509.545 132.552Z" fill="white"/>
<path d="M434.801 144.291C439.193 136.225 438.634 127.601 438.634 127.601C445.422 125.125 450.133 124.327 457.959 118.657C457.879 120.015 458.119 124.087 458.119 124.487C458.119 124.487 457.56 133.989 457.32 144.77C457.24 149.721 459.636 151.558 459.636 151.558C459.636 151.558 454.525 151.238 444.783 154.273C435.12 157.307 425.298 160.501 425.298 160.501C425.298 160.501 430.409 152.356 434.801 144.291Z" fill="white"/>
<path d="M425.378 160.501C425.378 160.501 435.121 157.227 444.863 154.273C454.526 151.238 458.838 151.877 458.838 151.877C458.838 151.877 461.713 152.436 468.021 160.262C474.33 168.087 481.117 181.423 481.117 181.423" stroke="#CFD2E1" stroke-width="2" stroke-miterlimit="10" stroke-linecap="round" stroke-linejoin="round"/>
<path d="M277.247 219.913C275.171 218.236 272.376 216.08 269.341 211.289C264.311 203.463 260.717 202.744 258.96 199.949C253.37 191.006 253.051 191.085 251.214 192.523C249.777 193.641 248.899 196.196 249.777 198.831C250.336 200.588 252.093 202.105 253.291 204.581C256.325 210.81 254.409 209.772 254.409 209.772C254.409 209.772 238.757 207.456 225.421 207.056C221.987 206.977 219.672 211.928 223.744 212.327C231.81 213.205 235.323 214.243 237.879 214.563C242.59 215.202 245.225 217.358 236.92 216.559C227.338 215.681 219.512 213.445 218.314 216.799C217.116 220.073 218.873 225.822 222.786 227.819C226.699 229.815 232.049 230.294 234.525 230.694C237 231.093 241.632 232.131 238.278 232.131C234.525 232.131 233.966 232.61 228.695 231.492C225.421 230.773 224.143 234.287 227.577 235.724C230.851 237.162 238.118 238.04 241.552 238.519C244.906 238.999 253.131 239.637 259.839 239.318C263.113 239.158 263.672 238.12 269.022 238.839C274.372 239.557 300.405 253.372 300.405 253.372L312.224 236.204C312.144 236.363 281.479 223.347 277.247 219.913Z" fill="#F9AD61"/>
<path d="M489.662 157.866C498.047 146.127 504.355 126.323 504.355 126.323L522.163 138.541L520.646 160.182L499.005 160.501L511.462 176.552C511.462 176.552 481.836 211.449 469.139 239.478C448.856 284.436 444.704 336.821 444.704 336.821H436C436 336.821 440.711 265.75 460.355 216.16C471.535 187.732 481.277 169.605 489.662 157.866Z" fill="#89A1FF"/>
<path d="M423.622 146.686L416.674 140.138L427.295 131.594L448.856 123.848C448.856 123.848 433.364 147.964 426.417 165.931C420.667 180.705 412.921 226.222 412.123 251.217C411.723 263.514 411.484 268.865 410.925 286.992C409.887 323.486 398.707 337.3 398.707 337.3L393.277 337.859C393.277 337.859 403.578 327.957 402.141 286.513C401.183 258.963 398.388 238.28 399.426 218.875C401.262 185.176 405.415 155.71 405.415 155.71L423.622 146.686Z" fill="#89A1FF"/>
<path d="M272.296 238.12C272.216 238.919 272.057 239.638 272.057 240.436C272.296 240.516 272.536 240.596 272.855 240.676C278.445 242.433 295.135 250.817 295.135 250.817L301.284 230.135C301.284 230.135 283.236 221.511 279.483 219.514C276.848 224.385 273.175 232.371 272.296 238.12Z" fill="#9CD6ED"/>
<path d="M382.975 263.434C378.503 267.427 378.823 275.333 378.104 275.971C376.028 277.808 369.48 294.498 361.095 292.821C346.082 289.866 284.913 252.734 280.92 248.262C274.053 240.596 286.989 220.951 286.989 220.951C286.989 220.951 291.701 224.225 308.55 228.777C322.605 232.53 346.881 233.728 346.881 233.728C346.881 233.728 389.683 257.445 382.975 263.434Z" fill="#5171ED"/>
<path d="M523.121 165.532C513.14 186.853 525.597 260.959 554.345 300.886C561.132 310.309 587.325 308.872 586.846 303.841C586.127 295.855 590.839 297.053 592.675 289.068C594.272 282.12 594.512 268.305 594.113 258.164C589.88 164.414 539.891 129.757 523.121 165.532Z" fill="#5171ED"/>
<path d="M582.134 303.282C584.53 302.164 586.047 300.886 585.887 299.609C585.168 291.623 590.678 298.171 592.515 290.266C594.112 283.318 594.511 268.306 594.032 258.084C593.234 239.877 590.678 223.906 587.005 210.251C587.005 210.251 580.377 183.739 565.205 165.372C550.032 147.006 525.357 140.617 525.357 140.617" stroke="#8CA3FC" stroke-width="2" stroke-miterlimit="10" stroke-linecap="round" stroke-linejoin="round"/>
<path d="M436 337C436.319 300.905 451.891 237.481 460.355 216.16C471.615 187.811 481.277 169.604 489.662 157.866C498.047 146.127 504.356 126.323 504.356 126.323" stroke="#8CA3FC" stroke-width="2" stroke-miterlimit="10" stroke-linecap="round" stroke-linejoin="round"/>
<path d="M393.995 297.692C394.554 292.582 395.433 277.489 394.953 268.465C394.474 259.282 392.638 230.055 393.676 207.057" stroke="#8CA3FC" stroke-width="2" stroke-miterlimit="10" stroke-linecap="round" stroke-linejoin="round"/>
<path d="M538.693 230.135C538.693 230.135 526.156 218.795 522.642 214.403C519.049 210.011 516.413 208.973 515.295 205.22C514.177 201.467 514.177 199.47 509.546 192.283C504.595 184.537 503.716 187.252 500.123 180.784C498.286 177.51 497.088 172.16 497.727 168.167C498.127 165.612 495.571 164.813 492.856 168.087C488.783 173.198 490.381 176.791 490.62 179.506C490.86 183.419 492.776 189.089 492.776 189.089C492.776 189.089 483.194 189.009 478.961 189.568C474.729 190.127 474.729 193.002 474.729 195.637C474.729 198.352 472.653 200.029 472.573 202.105C472.413 205.3 475.767 208.095 474.729 209.532C473.691 211.049 473.771 213.445 474.889 215.441C476.007 217.438 475.208 218.715 474.969 220.472C474.729 222.229 478.243 225.663 484.391 226.94C490.46 228.218 497.328 229.256 499.085 228.378C500.842 227.499 505.553 227.739 512.101 236.842C518.649 246.026 523.041 251.695 523.041 251.695L538.693 230.135Z" fill="#FCD7A8"/>
<path d="M373.153 236.842C371.157 235.804 368.362 234.127 366.605 233.488C362.532 231.971 360.376 231.412 359.019 233.488C357.342 235.964 360.057 238.12 361.894 240.516C364.369 243.79 366.286 248.9 362.852 251.136C359.658 253.213 359.977 240.436 347.919 234.287" stroke="#8CA3FC" stroke-width="2" stroke-miterlimit="10" stroke-linecap="round" stroke-linejoin="round"/>
<path d="M540.05 231.732C540.05 231.093 526.315 215.84 526.315 215.84C526.315 215.84 522.482 222.388 516.812 228.058C511.143 233.648 508.348 234.926 508.348 234.926L521.763 253.452C521.763 253.452 527.992 249.699 533.262 244.588C538.533 239.398 540.05 231.732 540.05 231.732Z" fill="#9CD6ED"/>
<path d="M511.382 246.345C511.382 246.345 516.094 247.064 524.798 238.12C533.502 229.176 534.78 221.83 534.78 221.83C534.78 221.83 547.557 238.919 561.691 244.908C585.168 254.81 589.481 265.67 589.481 265.67C589.481 265.67 595.949 281.082 591.237 296.814C590.199 300.327 591.477 304.16 587.963 307.354C583.811 311.188 578.7 311.028 575.107 310.868C571.513 310.629 549.793 314.941 541.168 304.879C530.548 292.422 516.812 250.418 511.382 246.345Z" fill="#5171ED"/>
<path d="M593.793 281.562C593.473 288.03 591.956 294.338 591.237 296.734C590.199 300.248 591.477 304.081 587.963 307.275C583.811 311.108 578.7 310.948 575.107 310.789C571.513 310.549 549.793 314.861 541.168 304.799C530.468 292.342 516.812 250.338 511.382 246.266" stroke="#8CA3FC" stroke-width="2" stroke-miterlimit="10" stroke-linecap="round" stroke-linejoin="round"/>
<path d="M534.78 221.83C534.78 221.83 547.557 238.919 561.691 244.908C571.673 249.14 578.141 253.532 582.373 257.126" stroke="#8CA3FC" stroke-width="2" stroke-miterlimit="10" stroke-linecap="round" stroke-linejoin="round"/>
<path d="M582.374 257.126C591.397 265.431 592.276 253.532 586.766 250.178C583.731 248.262 581.016 248.102 577.103 247.384C571.593 246.345 565.364 243.55 567.281 239.638C568.718 236.763 577.343 241.394 585.169 243.231" stroke="#8CA3FC" stroke-width="2" stroke-miterlimit="10" stroke-linecap="round" stroke-linejoin="round"/>
<path d="M365.327 317.417H241.551V332.589H365.327V317.417Z" fill="#253B6D"/>
<path d="M245.145 322.208H366.525" stroke="#6C6EC1" stroke-width="2" stroke-miterlimit="10" stroke-linecap="round" stroke-linejoin="round"/>
<path d="M240.354 327.798H361.733" stroke="#6C6EC1" stroke-width="2" stroke-miterlimit="10" stroke-linecap="round" stroke-linejoin="round"/>
<path d="M324.601 306.236H259.119V317.416H324.601V306.236Z" fill="#89A1FF"/>
<path d="M324.601 311.827H259.12V317.417H324.601V311.827Z" fill="#5171ED"/>
<path d="M341.37 313.424H336.579C335.701 313.424 334.982 312.705 334.982 311.827C334.982 310.949 335.701 310.23 336.579 310.23H341.37C342.249 310.23 342.967 310.949 342.967 311.827C342.967 312.705 342.249 313.424 341.37 313.424Z" fill="#5171ED"/>
<path d="M324.601 317.416L337.377 313.423V310.229L324.601 306.236V317.416Z" fill="#9CE4FF"/>
<rect x="31.4805" y="332.197" width="596.899" height="7.96379" fill="#253B6D"/>
<path opacity="0.4" d="M90.1562 181.67L156.835 114.991H104.156C96.4243 114.991 90.1562 121.259 90.1562 128.991V181.67Z" fill="#9F94F8"/>
</svg>
