<svg width="683" height="311" viewBox="0 0 683 311" fill="none" xmlns="http://www.w3.org/2000/svg">
<rect x="1" y="1" width="584" height="309" rx="5" stroke="#E4E6F3" stroke-width="2"/>
<path d="M2 73L683 73.0001" stroke="#E4E6F3" stroke-width="1.5"/>
<path d="M683 34H0V5C0 2.79086 1.79086 1 4 1H679C681.209 1 683 2.79086 683 5V34Z" fill="#CFD2E1"/>
<ellipse cx="18" cy="17" rx="4" ry="4" fill="white"/>
<ellipse cx="36" cy="17" rx="4" ry="4" fill="white"/>
<ellipse cx="54" cy="17" rx="4" ry="4" fill="white"/>
<path d="M25.0043 57H26.8487V53.5597H28.7976C31.1491 53.5597 32.4119 52.1477 32.4119 50.1889C32.4119 48.245 31.1641 46.8182 28.8224 46.8182H25.0043V57ZM26.8487 52.0433V48.3594H28.5391C29.9212 48.3594 30.5327 49.1051 30.5327 50.1889C30.5327 51.2727 29.9212 52.0433 28.549 52.0433H26.8487ZM34.8868 57L35.727 54.4893H39.5551L40.4003 57H42.369L38.7795 46.8182H36.5026L32.918 57H34.8868ZM36.2241 53.0078L37.6013 48.9062H37.6808L39.058 53.0078H36.2241ZM44.4101 57H46.2546V53.2713H48.1338L50.1324 57H52.1907L49.9882 52.9631C51.1864 52.4808 51.8178 51.4567 51.8178 50.0746C51.8178 48.1307 50.5649 46.8182 48.2283 46.8182H44.4101V57ZM46.2546 51.7401V48.3594H47.9449C49.3221 48.3594 49.9385 48.9908 49.9385 50.0746C49.9385 51.1584 49.3221 51.7401 47.9549 51.7401H46.2546ZM53.7681 48.3643H56.9152V57H58.7447V48.3643H61.8917V46.8182H53.7681V48.3643ZM66.0022 46.8182H64.1578V57H66.0022V46.8182ZM77.4148 50.2536C77.1016 47.9915 75.3615 46.679 73.1044 46.679C70.4446 46.679 68.4411 48.6179 68.4411 51.9091C68.4411 55.1953 70.4197 57.1392 73.1044 57.1392C75.5256 57.1392 77.1314 55.5732 77.4148 53.6293L75.5554 53.6193C75.3217 54.8125 74.3473 55.4837 73.1293 55.4837C71.4787 55.4837 70.2955 54.2457 70.2955 51.9091C70.2955 49.6122 71.4688 48.3345 73.1342 48.3345C74.3722 48.3345 75.3416 49.0355 75.5554 50.2536H77.4148ZM81.6483 46.8182H79.8039V57H81.6483V46.8182ZM84.3457 57H86.1901V53.5597H88.139C90.4906 53.5597 91.7533 52.1477 91.7533 50.1889C91.7533 48.245 90.5055 46.8182 88.1639 46.8182H84.3457V57ZM86.1901 52.0433V48.3594H87.8805C89.2626 48.3594 89.8741 49.1051 89.8741 50.1889C89.8741 51.2727 89.2626 52.0433 87.8904 52.0433H86.1901ZM94.2282 57L95.0684 54.4893H98.8965L99.7417 57H101.71L98.121 46.8182H95.844L92.2594 57H94.2282ZM95.5656 53.0078L96.9427 48.9062H97.0222L98.3994 53.0078H95.5656ZM112.119 46.8182H110.284V53.7585H110.195L105.402 46.8182H103.752V57H105.596V50.0646H105.681L110.478 57H112.119V46.8182ZM114.381 48.3643H117.528V57H119.358V48.3643H122.505V46.8182H114.381V48.3643ZM130.304 49.6172H132.079C132.044 47.897 130.577 46.679 128.41 46.679C126.272 46.679 124.666 47.8821 124.671 49.6818C124.671 51.1435 125.71 51.9837 127.386 52.4162L128.544 52.7145C129.643 52.9929 130.369 53.3359 130.374 54.1264C130.369 54.9964 129.543 55.5781 128.34 55.5781C127.187 55.5781 126.292 55.0611 126.217 53.9922H124.403C124.477 56.0156 125.984 57.1541 128.355 57.1541C130.796 57.1541 132.213 55.9361 132.218 54.1413C132.213 52.3764 130.756 51.571 129.225 51.2081L128.271 50.9695C127.435 50.7706 126.531 50.4176 126.541 49.5675C126.546 48.8018 127.232 48.2401 128.385 48.2401C129.484 48.2401 130.21 48.7521 130.304 49.6172Z" fill="#263059"/>
<path d="M29.1364 98.1591C31.392 98.1591 33.0682 96.7443 33.0682 94.8409C33.0682 93.3636 32.1932 92.2898 30.7273 92.0455V91.9545C31.9034 91.5966 32.6364 90.6307 32.6364 89.3182C32.6364 87.6705 31.3352 86.2045 29.1818 86.2045C27.1705 86.2045 25.5 87.4432 25.4318 89.2727H26.7955C26.8466 88.1136 27.9489 87.4318 29.1591 87.4318C30.4432 87.4318 31.2727 88.2102 31.2727 89.3864C31.2727 90.6136 30.3125 91.4091 28.9318 91.4091H28V92.6591H28.9318C30.6989 92.6591 31.6818 93.5568 31.6818 94.8409C31.6818 96.0739 30.608 96.9091 29.1136 96.9091C27.767 96.9091 26.6989 96.2159 26.6136 95.0909H25.1818C25.267 96.9205 26.8807 98.1591 29.1364 98.1591ZM35.392 98H42.733V96.75H37.3239V96.6591L39.9375 93.8636C41.9375 91.7216 42.5284 90.7216 42.5284 89.4318C42.5284 87.6364 41.0739 86.2045 39.0284 86.2045C36.9886 86.2045 35.4375 87.5909 35.4375 89.6364H36.7784C36.7784 88.3125 37.6364 87.4318 38.983 87.4318C40.2443 87.4318 41.2102 88.2045 41.2102 89.4318C41.2102 90.5057 40.5795 91.3011 39.233 92.7727L35.392 96.9773V98Z" fill="#263059"/>
</svg>
