<svg width="32" height="23" viewBox="0 0 32 23" fill="none" xmlns="http://www.w3.org/2000/svg">
<path d="M13.5038 2.61893C11.8124 3.27366 10.2302 4.2012 8.75704 5.40154C7.33845 6.54732 6.43819 8.07502 6.05627 9.98465C8.18414 9.98465 9.98466 10.503 11.4578 11.5396C12.9855 12.5217 13.7494 14.1586 13.7494 16.4501C13.7494 18.3598 13.0673 19.8602 11.7033 20.9514C10.3393 22.0426 8.75703 22.5882 6.95652 22.5882C4.55584 22.5882 2.78261 21.7971 1.63683 20.2148C0.54561 18.578 0 16.6684 0 14.4859C0 12.5217 0.381927 10.7758 1.14578 9.24808C1.96419 7.72038 3.00085 6.35635 4.25575 5.15601C5.51066 3.95567 6.95652 2.94629 8.59335 2.12788C10.2302 1.2549 11.867 0.545609 13.5038 0V2.61893ZM31.7545 2.61893C30.0631 3.27366 28.4808 4.2012 27.0077 5.40154C25.5891 6.54732 24.6888 8.07502 24.3069 9.98465C26.4348 9.98465 28.2353 10.503 29.7084 11.5396C31.2361 12.5217 32 14.1586 32 16.4501C32 18.3598 31.318 19.8602 29.954 20.9514C28.5899 22.0426 27.0077 22.5882 25.2072 22.5882C22.8065 22.5882 21.0332 21.7971 19.8875 20.2148C18.7962 18.578 18.2506 16.6684 18.2506 14.4859C18.2506 12.5217 18.6326 10.7758 19.3964 9.24808C20.2148 7.72038 21.2515 6.35635 22.5064 5.15601C23.7613 3.95567 25.2072 2.94629 26.844 2.12788C28.4808 1.2549 30.1176 0.545609 31.7545 0V2.61893Z" fill="#C4D0FF"/>
</svg>
