<svg width="64" height="46" viewBox="0 0 64 46" fill="none" xmlns="http://www.w3.org/2000/svg">
<path d="M27.0077 5.23785C23.6249 6.54732 20.4604 8.40239 17.5141 10.8031C14.6769 13.0946 12.8764 16.15 12.1125 19.9693C16.3683 19.9693 19.9693 21.006 22.9156 23.0793C25.971 25.0435 27.4987 28.3171 27.4987 32.9003C27.4987 36.7195 26.1347 39.7204 23.4067 41.9028C20.6786 44.0853 17.5141 45.1765 13.913 45.1765C9.11168 45.1765 5.56522 43.5942 3.27366 40.4297C1.09122 37.156 0 33.3367 0 28.9719C0 25.0435 0.763853 21.5516 2.29156 18.4962C3.92839 15.4408 6.00171 12.7127 8.51151 10.312C11.0213 7.91134 13.913 5.89258 17.1867 4.25576C20.4604 2.5098 23.734 1.09122 27.0077 0V5.23785ZM63.509 5.23785C60.1262 6.54732 56.9616 8.40239 54.0153 10.8031C51.1782 13.0946 49.3777 16.15 48.6138 19.9693C52.8696 19.9693 56.4706 21.006 59.4169 23.0793C62.4723 25.0435 64 28.3171 64 32.9003C64 36.7195 62.636 39.7204 59.9079 41.9028C57.1799 44.0853 54.0153 45.1765 50.4143 45.1765C45.613 45.1765 42.0665 43.5942 39.7749 40.4297C37.5925 37.156 36.5013 33.3367 36.5013 28.9719C36.5013 25.0435 37.2651 21.5516 38.7928 18.4962C40.4297 15.4408 42.503 12.7127 45.0128 10.312C47.5226 7.91134 50.4143 5.89258 53.688 4.25576C56.9616 2.5098 60.2353 1.09122 63.509 0V5.23785Z" fill="#C4D0FF"/>
</svg>
