<svg width="150" height="27" viewBox="0 0 150 27" fill="none" xmlns="http://www.w3.org/2000/svg">
<path d="M149.5 25.2783C149.5 23.69 148.583 23.1383 147.057 23.1383H135.572C130.18 23.1383 128.28 19.8 128.032 17.5H143.977C148.628 17.5 150 14.1501 150 11.9934C150 9.69174 148.508 6.48834 143.977 6.48834H135.363C127.523 6.48834 124.943 11.8267 124.943 16.1567C124.943 20.9134 127.88 25.825 135.343 25.825H149.5V25.2783ZM135.592 9.17501H143.583C146.34 9.17501 147.003 10.8917 147.003 11.9934C147.003 12.9801 146.4 14.8117 143.583 14.8117H128.032C128.22 12.895 129.828 9.17501 135.592 9.17501ZM103.08 24.6034C102.257 25.7267 101.692 26.1184 100.972 26.1184C99.9717 26.1184 99.5883 25.5783 98.8766 24.605C97.1433 22.245 85.6117 6.48834 85.6117 6.48834H87.3966C89.32 6.48834 89.8717 7.16832 90.6717 8.28166C91.02 8.77166 101.048 22.9067 101.048 22.9067C101.048 22.9067 111.063 8.79008 111.477 8.20841C112.212 7.16341 112.783 6.48834 114.717 6.48834H116.283C116.283 6.48834 104.483 22.68 103.08 24.6034ZM27.46 25.825C26.2517 25.825 25.4933 25.2284 25.2567 23.9384L24.86 21.8384C24.21 23.0484 21.785 25.825 16.5433 25.825H10.5167C2.31333 25.825 0 20.2667 0 16.1567C0 11.5284 2.78 6.48834 10.5167 6.48834H16.5433C22.41 6.48834 25.6783 9.90666 26.4617 14.0717C27.1183 17.55 28.6583 25.825 28.6583 25.825H27.46ZM15.88 9.17501H10.7283C4.94166 9.17501 2.97167 12.8567 2.97167 16.1567C2.97167 19.4917 4.94166 23.1383 10.7283 23.1383H15.88C21.9233 23.1383 23.685 19.3017 23.685 16.1567C23.685 13.3517 22.1117 9.17501 15.88 9.17501ZM120.152 4.27175C121.008 4.27175 121.672 3.74169 121.672 2.73336V2.09666C121.672 1.07833 121 0.55837 120.152 0.55837C119.308 0.55837 118.628 1.06999 118.628 2.09666V2.73336C118.628 3.74836 119.292 4.27175 120.152 4.27175ZM118.663 6.48671H119.372C120.752 6.48671 121.637 7.10673 121.637 8.98173V25.825H120.897C119.383 25.825 118.663 25.0067 118.663 23.38V6.48671ZM33.1933 9.00004C34.4733 7.78837 36.74 6.48834 40.335 6.48834H46.36C54.5617 6.48834 56.88 12.0467 56.88 16.1567C56.88 20.7834 54.0983 25.825 46.36 25.825H40.335C34.4633 25.825 30.2217 22.0317 30.2217 16.1583V0H31.1417C32.455 0 33.1933 0.673366 33.1933 1.90837V9.00004ZM41 23.1383H46.1483C51.9367 23.1383 53.9067 19.4551 53.9067 16.1567C53.9067 12.8217 51.9367 9.17501 46.1483 9.17501H41C34.9533 9.17501 33.1933 13.0084 33.1933 16.1567C33.1933 18.9617 34.7633 23.1383 41 23.1383ZM62.86 9.00004C64.1433 7.78837 66.4033 6.48834 70 6.48834H76.0283C84.2283 6.48834 86.5483 12.0467 86.5483 16.1567C86.5483 20.7834 83.7633 25.825 76.0283 25.825H70C64.1317 25.825 59.8883 22.0317 59.8883 16.1583V0H60.8083C62.12 0 62.86 0.673366 62.86 1.90837V9.00004ZM70.6633 23.1383H75.8167C81.6 23.1383 83.5717 19.4551 83.5717 16.1567C83.5717 12.8217 81.6033 9.17501 75.8167 9.17501H70.6633C64.62 9.17501 62.86 13.0084 62.86 16.1567C62.86 18.9617 64.4317 23.1383 70.6633 23.1383Z" fill="#8A8FAE"/>
</svg>
