<svg width="140" height="38" viewBox="0 0 140 38" fill="none" xmlns="http://www.w3.org/2000/svg">
<path fill-rule="evenodd" clip-rule="evenodd" d="M29.8755 1.45281V35.8157H37.868V17.2067C41.3608 22.7108 43.0379 29.2676 43.1755 35.8157H50.6931C50.8114 29.3181 52.1035 22.4846 55.9419 17.2067V35.8166H63.9327V23.8261C64.8506 27.4886 66.5378 30.7108 69.3594 33.1963C72.5577 36.0201 76.6211 37.1345 80.7557 37.1345C86.211 37.1345 91.2534 34.8744 94.6665 30.4246C96.462 28.081 97.6358 25.606 98.2189 22.6899V35.8157H115.296V27.5495H106.378V22.6899H115.296V14.4855H106.378V9.71904H115.296V1.45281H98.2189V14.4863H80.0048V22.6908H89.8321C89.2893 24.0514 88.6768 25.3598 87.6608 26.415C85.8368 28.2854 83.4179 29.0945 80.8832 29.0945C74.8742 29.0945 70.9477 24.5942 70.9477 18.455C70.9477 12.5324 75.2795 8.18445 80.9327 8.18445C84.5052 8.18445 87.6121 9.58593 89.072 13.084H97.6156C96.2934 5.26839 88.8748 0 81.4647 0C77.3711 0 73.3346 1.14572 70.0793 3.80601C67.0312 6.28188 65.1753 9.66771 63.9327 13.4015V1.45281C55.0442 2.25055 49.7853 10.7925 46.993 18.7108C45.3352 14.455 43.4214 10.2915 40.3531 6.91607C37.4921 3.76512 34.0681 1.73902 29.8755 1.45281ZM0.23744 34.9762L0 35.8157V35.8166H7.99159L8.24832 34.8039L8.8801 32.1532L9.54124 29.7391L10.0245 28.215L10.2519 27.479H20.4929V35.8166H28.5432V1.31014C28.4198 1.31014 28.2965 1.30753 28.1732 1.30492C28.0498 1.30231 27.9265 1.2997 27.8032 1.2997C17.089 1.2997 10.1034 8.82908 5.91 18.4446C4.25295 22.2193 2.74357 26.1584 1.60839 30.1375L0.23744 34.9762ZM140 1.45281H132.008V14.4863C130.992 12.2558 129.335 10.3941 127.638 8.69598C124.994 6.067 120.249 2.19922 116.618 1.4328V35.8157H124.619V19.2832C129.127 22.8952 131.722 30.1271 132.788 35.8157H140V1.45281ZM20.4929 19.2832H13.8824C15.5201 15.8261 16.9901 13.1249 20.4929 11.4373V19.2832Z" fill="#8A8FAE"/>
</svg>
