<svg width="155" height="45" viewBox="0 0 155 45" fill="none" xmlns="http://www.w3.org/2000/svg">
<path d="M72.3854 29.9804C72.3854 28.5608 73.4495 27.2736 75.1946 27.2736C77.3511 27.2736 77.8335 28.2004 78.2449 29.1934L78.7556 30.4732H79.1316L79.3373 26.7367C78.6563 26.5601 76.5991 26.3101 75.7762 26.3101C71.5271 26.3101 69.782 29.0463 69.782 31.0028C69.782 36.0486 77.422 35.2984 77.422 39.741C77.422 41.8005 75.7762 42.6905 74.0666 42.6905C73.109 42.6905 72.3145 42.3669 71.8747 41.9771C71.598 41.7711 70.9454 40.4545 70.6758 39.1746H70.2998L70.0941 43.3304C70.9808 43.4334 71.9456 43.6467 73.2154 43.6467C78.6634 43.6467 80.0325 40.8737 80.0325 38.7407C80.0254 33.0697 72.3854 34.2024 72.3854 29.9804Z" fill="#8A8FAE"/>
<path d="M91.5387 40.7414C90.957 41.3445 89.9993 42.1242 89.0062 42.1242C88.3536 42.1242 87.2895 41.521 87.2895 39.8881V27.8842H91.2266V26.9207H87.2895V22.7649H86.8071C86.1261 24.9274 83.8277 26.7809 81.9407 27.2369V27.8769H84.6861V33.8494C84.6861 35.8353 84.5867 38.8216 84.5867 40.4251C84.5867 43.301 86.3673 43.735 87.2611 43.735C88.8076 43.735 89.9 43.2054 92.0636 41.4254L91.5387 40.7414Z" fill="#8A8FAE"/>
<path d="M106.549 32.8931C107.301 32.8564 107.542 32.6431 107.542 31.7898C107.542 28.7005 105.62 26.3174 101.576 26.3174C96.2986 26.3174 93.6952 30.863 93.6952 35.166C93.6952 40.175 96.6107 43.6615 100.959 43.6615C103.321 43.6615 105.45 42.9554 107.024 41.1018L106.542 40.4619C105.549 41.5284 104.173 42.0654 102.669 42.0654C98.6254 42.0654 96.7739 38.0493 96.7739 34.0994C96.7739 33.7096 96.8093 33.283 96.8377 32.8931H106.549ZM100.995 27.0603C103.428 27.0603 104.456 28.7667 104.456 31.1499V31.7898C103.939 31.8266 103.463 31.8266 102.371 31.8634L96.9157 32.0031C97.3981 29.0536 98.9091 27.0603 100.995 27.0603Z" fill="#8A8FAE"/>
<path d="M113.948 39.5351V25.4643C113.948 23.0444 114.083 20.6318 114.154 18.2119C112.302 18.4252 110.415 18.4988 108.528 18.4988V18.9916L110.55 19.6683C110.791 19.7418 111.032 19.8816 111.096 20.0581C111.203 20.3082 111.338 21.588 111.338 23.0812V39.5351C111.338 41.2783 111.203 41.8814 110.139 42.2345L108.535 42.8082V43.301C109.805 43.1613 111.174 43.0142 112.543 43.0142C113.948 43.0142 115.388 43.1539 116.757 43.301V42.8082L115.076 42.2345C114.019 41.8814 113.948 41.2783 113.948 39.5351Z" fill="#8A8FAE"/>
<path d="M124.61 42.2345C123.546 41.8814 123.475 41.2783 123.475 39.5351V25.4643C123.475 23.0444 123.61 20.6318 123.681 18.2119C121.829 18.4252 119.942 18.4988 118.062 18.4988V18.9916L120.084 19.6683C120.325 19.7418 120.567 19.8816 120.63 20.0581C120.737 20.3082 120.872 21.588 120.872 23.0812V39.5351C120.872 41.2783 120.737 41.8814 119.673 42.2345L118.062 42.8082V43.301C119.325 43.1613 120.701 43.0142 122.071 43.0142C123.475 43.0142 124.915 43.1539 126.291 43.301V42.8082L124.61 42.2345Z" fill="#8A8FAE"/>
<path d="M140.238 40.4912V30.5762C140.238 27.2736 137.84 26.3101 135.102 26.3101C132.427 26.3101 130.441 27.737 128.831 30.3997L129.689 30.8998C130.718 29.2963 132.364 28.1636 134.243 28.1636C136.194 28.1636 137.705 28.9065 137.705 31.5397V33.4227H137.464C131.81 33.4227 127.838 35.2395 127.838 39.285C127.838 42.3448 129.859 43.6541 132.364 43.6541C134.868 43.6541 136.336 42.1241 137.67 40.2779H137.741L137.641 43.2936C138.464 43.1539 139.323 43.0068 140.138 43.0068C140.997 43.0068 141.891 43.1465 142.777 43.2936V42.8082C140.614 42.3742 140.238 42.205 140.238 40.4912ZM137.634 37.3284C137.634 40.1676 135.811 41.8079 133.619 41.8079C131.668 41.8079 130.711 40.6016 130.711 38.7186C130.711 34.8791 134.861 34.3863 137.634 34.3863V37.3284Z" fill="#8A8FAE"/>
<path d="M65.2987 40.4912V30.5762C65.2987 27.2736 62.901 26.3101 60.1628 26.3101C57.4955 26.3101 55.5021 27.737 53.8918 30.3997L54.7502 30.8998C55.7788 29.2963 57.4245 28.1636 59.3115 28.1636C61.2623 28.1636 62.7733 28.9065 62.7733 31.5397V33.4227H62.5321C56.8783 33.4227 52.8987 35.2395 52.8987 39.285C52.8987 42.3448 54.9204 43.6541 57.4245 43.6541C59.9287 43.6541 61.3971 42.1241 62.7378 40.2779H62.8088L62.7094 43.2936C63.5252 43.1539 64.3907 43.0068 65.2065 43.0068C66.0648 43.0068 66.9586 43.1465 67.8454 43.2936V42.8082C65.6747 42.3742 65.2987 42.205 65.2987 40.4912ZM62.6952 37.3284C62.6952 40.1676 60.8792 41.8079 58.6801 41.8079C56.7293 41.8079 55.7646 40.6016 55.7646 38.7186C55.7646 34.8791 59.9145 34.3863 62.6882 34.3863V37.3284H62.6952Z" fill="#8A8FAE"/>
<path d="M147.367 29.9804C147.367 28.5608 148.431 27.2736 150.176 27.2736C152.333 27.2736 152.815 28.2004 153.227 29.1934L153.737 30.4732H154.113L154.319 26.7367C153.631 26.5601 151.574 26.3101 150.751 26.3101C146.502 26.3101 144.757 29.0463 144.757 31.0028C144.757 36.0486 152.397 35.2984 152.397 39.741C152.397 41.8005 150.751 42.6905 149.041 42.6905C148.077 42.6905 147.289 42.3669 146.842 41.9771C146.573 41.7711 145.92 40.4545 145.643 39.1746H145.267L145.062 43.3304C145.955 43.4334 146.913 43.6467 148.183 43.6467C153.631 43.6467 155 40.8737 155 38.7407C155.007 33.0697 147.367 34.2024 147.367 29.9804Z" fill="#8A8FAE"/>
<path d="M46.2233 17.6897C42.5558 21.0143 37.3347 24.0963 32.1704 27.237C30.8651 33.7025 29.3329 39.881 26.7082 44.1324C32.4683 41.2123 38.1079 33.4303 41.0519 26.7589C43.9178 27.4356 46.7837 29.2451 48.5217 30.9C48.9686 25.7512 47.7839 21.5145 46.2233 17.6897Z" fill="#8A8FAE"/>
<path d="M40.9598 0C38.6543 2.1404 37.0795 5.73717 35.8381 10.0548C38.6543 10.8271 41.2719 11.4817 43.5987 11.8862C41.7969 7.96583 40.3356 4.22932 40.9598 0Z" fill="#8A8FAE"/>
<path d="M0 4.46468C10.7968 5.97253 20.2316 11.9304 26.843 20.1978C22.7428 24.8023 17.2096 32.6358 15.9185 40.2927C18.9689 35.4088 25.5236 31.2677 32.1634 27.2369C33.3551 21.3306 34.3625 15.1888 35.838 10.0548C24.7291 7.00228 10.6407 2.19922 0 4.46468Z" fill="#8A8FAE"/>
<path d="M43.5987 11.8936C44.457 13.7618 45.3934 15.6668 46.2234 17.6969C48.2238 15.8801 49.7632 13.9972 50.5719 11.9892C48.8055 12.4967 46.4149 12.379 43.5987 11.8936Z" fill="#8A8FAE"/>
<path d="M43.5987 11.8935C41.2719 11.489 38.6543 10.8343 35.8381 10.062C34.3625 15.1961 33.3552 21.3379 32.1635 27.2443C37.3348 24.1035 42.5559 21.0216 46.2163 17.6969C45.3934 15.6668 44.4641 13.7544 43.5987 11.8935Z" fill="#676D8C"/>
</svg>
