<svg width="70" height="70" viewBox="0 0 70 70" fill="none" xmlns="http://www.w3.org/2000/svg">
<g clip-path="url(#clip0)">
<path d="M33.0658 10.4078H37.1184C37.5789 10.4078 37.9474 10.0394 37.9474 9.5789C37.9474 9.11837 37.5789 8.74995 37.1184 8.74995H33.0658V10.4078ZM33.0658 14.2763H37.2105C37.7632 14.2763 38.1316 13.9078 38.1316 13.3552C38.1316 12.8026 37.7632 12.4342 37.2105 12.4342H33.0658V14.2763ZM39.6053 11.3289C40.1579 11.8815 40.5263 12.6184 40.5263 13.4473C40.5263 15.1052 39.2368 16.3947 37.5789 16.3947H30.8553V6.72363H37.4868C39.0526 6.72363 40.3421 8.01311 40.3421 9.5789C40.25 10.2236 39.9737 10.8684 39.6053 11.3289ZM41.171 27.9078H38.6842L37.9474 26.25H32.5131L31.7763 27.9078H29.2895L34.0789 18.2368H36.2895L41.171 27.9078ZM35.1842 20.7236L33.5263 24.2236H36.8421L35.1842 20.7236ZM38.5 30.0263H41.2631L36.3816 36.2894V39.6973H34.0789V36.2894L29.1974 30.0263H31.9605L35.2763 34.4473L38.5 30.0263ZM51.3026 30.0263V32.1447H44.8553V33.8026H51.1184V35.921H44.8553V37.7631H51.3026V39.8815H42.5526V30.0263H51.3026ZM58.3947 36.0131H56.6447V39.6973H54.3421V30.0263H60.2368C61.8947 30.0263 63.1842 31.4078 63.1842 33.0657C63.1842 34.4473 62.2632 35.5526 61.0658 35.921L63.921 39.6973H61.1579L58.3947 36.0131ZM60.0526 32.0526H56.7368V33.8947H60.0526C60.6053 33.8947 60.9737 33.4342 60.9737 32.9736C60.9737 32.5131 60.5131 32.0526 60.0526 32.0526ZM30.2105 39.6973H27.7237L26.9868 38.0394H21.5526L20.8158 39.6973H18.3289L23.2105 30.0263H25.421L30.2105 39.6973ZM24.2237 32.5131L22.5658 36.0131H25.9737L24.2237 32.5131ZM9.57894 33.7105H13.6316C14.0921 33.7105 14.4605 33.3421 14.4605 32.8815C14.4605 32.421 14.0921 32.0526 13.6316 32.0526H9.57894V33.7105ZM9.57894 37.5789H13.7237C14.2763 37.5789 14.6447 37.2105 14.6447 36.6578C14.6447 36.1052 14.2763 35.7368 13.7237 35.7368H9.57894V37.5789ZM16.1184 34.6315C16.671 35.1842 17.0395 35.921 17.0395 36.75C17.0395 38.4078 15.75 39.6973 14.0921 39.6973H7.27631V30.0263H13.9079C15.4737 30.0263 16.7632 31.3157 16.7632 32.8815C16.7632 33.5263 16.4868 34.171 16.1184 34.6315ZM39.6053 41.7236V43.8421H33.1579V45.5H39.421V47.6184H33.1579V49.4605H39.6053V51.5789H30.8553V41.7236H39.6053ZM37.9474 56.7368C37.9474 56.1842 37.5789 55.8157 37.0263 55.8157H33.0658V57.6578H37.0263C37.5789 57.6578 37.9474 57.2894 37.9474 56.7368ZM30.7632 63.4605V53.7894H37.2105C38.8684 53.7894 40.1579 55.171 40.1579 56.8289C40.1579 58.1184 39.421 59.1315 38.3158 59.5921L41.2631 63.4605H38.5L35.7368 59.7763H33.0658V63.4605H30.7632Z" fill="#8A8FAE"/>
<path d="M70.0921 32.7895C68.9868 14.5526 53.7895 0 35.1842 0C16.5789 0 1.38157 14.5526 0.276306 32.7895C0.276306 33.5263 0.368411 34.2632 0.460517 35C1.19736 41.0789 3.49999 46.6974 6.99999 51.3947C13.3553 60.0526 23.5789 65.6711 35.1842 65.6711C18.9737 65.6711 5.71052 53.0526 4.60525 37.2105C4.51315 36.4737 4.51315 35.7368 4.51315 35C4.51315 34.2632 4.51315 33.5263 4.60525 32.7895C5.71052 16.9474 18.9737 4.32895 35.1842 4.32895C46.7895 4.32895 57.0131 9.94737 63.3684 18.6053C66.8684 23.3026 69.171 28.9211 69.9079 35C70 35.7368 70.0921 36.4737 70.0921 37.1184C70.0921 36.3816 70.1842 35.6447 70.1842 34.9079C70.1842 34.2632 70.1842 33.5263 70.0921 32.7895Z" fill="#8A8FAE"/>
<path d="M0.27637 37.2104C1.38163 55.4473 16.579 69.9999 35.1843 69.9999C53.7895 69.9999 68.9869 55.4473 70.0922 37.2104C70.0922 36.4736 70.0001 35.7368 69.908 34.9999C69.1711 28.921 66.8685 23.3025 63.3685 18.6052C57.0132 9.94728 46.7895 4.32886 35.1843 4.32886C51.3948 4.32886 64.658 16.9473 65.7632 32.7894C65.8553 33.5262 65.8553 34.2631 65.8553 34.9999C65.8553 35.7368 65.8553 36.4736 65.7632 37.2104C64.658 53.1446 51.3948 65.671 35.1843 65.671C23.579 65.671 13.3553 60.0525 7.00005 51.3946C3.50005 46.6973 1.19742 41.0789 0.460581 34.9999C0.368476 34.2631 0.27637 33.5262 0.27637 32.8815C0.27637 33.6183 0.184265 34.3552 0.184265 35.092C0.184265 35.7368 0.184265 36.4736 0.27637 37.2104Z" fill="#8A8FAE"/>
</g>
<defs>
<clipPath id="clip0">
<rect width="70" height="70" fill="white"/>
</clipPath>
</defs>
</svg>
