<svg width="200" height="32" viewBox="0 0 200 32" fill="none" xmlns="http://www.w3.org/2000/svg">
<path d="M70.8634 16.4205C70.7634 14.7616 70.0301 13.3446 68.1969 13.3446C66.3636 13.3446 65.4304 14.6579 65.297 16.4205H70.8634ZM73.2967 23.2982C71.9967 23.9548 70.8634 24.5424 68.7302 24.5424C64.5637 24.5424 62.1638 22.054 62.1638 17.7684C62.1638 14.0013 64.0971 10.8908 67.9969 10.8908C72.6634 10.8908 74.0966 14.3123 73.8966 18.7707H65.297C65.4304 20.8789 66.8636 21.7429 68.8969 21.7429C70.6301 21.7429 72.2967 21.0171 73.33 20.3605V23.2982H73.2967ZM186.825 16.4205C186.725 14.7616 185.991 13.3446 184.158 13.3446C182.325 13.3446 181.392 14.6579 181.258 16.4205H186.825ZM189.291 23.2982C187.991 23.9548 186.858 24.5424 184.725 24.5424C180.558 24.5424 178.159 22.054 178.159 17.7684C178.159 14.0013 180.092 10.8908 183.992 10.8908C188.658 10.8908 190.091 14.3123 189.891 18.7707H181.292C181.458 20.8789 182.858 21.7429 184.892 21.7429C186.625 21.7429 188.291 21.0171 189.325 20.3605V23.2982H189.291ZM78.6297 14.7962H80.1297C81.8296 14.7962 83.3962 14.105 83.3962 12.0659C83.3962 10.0268 81.8963 9.23187 80.1297 9.23187H78.6297V14.7962ZM75.1966 6.53611H79.5297C83.0962 6.53611 86.6294 7.64206 86.6294 11.8931C86.6294 16.0404 83.5629 17.5265 80.063 17.5265H78.6297V24.2313H75.1966V6.53611ZM99.5955 24.1968H96.4956V22.4341H96.4289C95.429 23.7129 93.9957 24.5078 92.2958 24.5078C89.2959 24.5078 88.0293 22.3305 88.0293 19.3928V11.1673H91.2958V18.1486C91.2958 19.7384 91.3292 21.8812 93.4291 21.8812C95.7956 21.8812 96.3289 19.22 96.3289 17.5611V11.1673H99.5955V24.1968ZM126.761 9.75028C125.694 9.26643 124.494 8.98994 123.294 8.98994C122.261 8.98994 121.128 9.57748 120.761 10.6143C120.395 11.6857 120.961 12.5843 121.828 13.1372C122.328 13.4483 122.894 13.6557 123.428 13.863C124.828 14.416 126.328 14.969 127.228 16.2823C127.827 17.1118 128.094 18.114 128.094 19.1509C128.094 23.0217 125.128 24.5078 121.694 24.5078C119.828 24.5078 118.428 23.9548 116.728 23.5401L116.995 20.2914C118.161 20.948 120.195 21.6738 121.528 21.6738C122.661 21.6738 124.028 21.0517 124.294 19.8421C124.628 18.4251 123.294 17.4228 122.194 16.9044C120.261 16.0058 117.995 15.6256 117.261 13.2409C117.061 12.6534 116.995 11.9276 117.028 11.3055C117.095 10.3724 117.461 9.1973 118.028 8.43696C119.961 5.74121 123.594 5.91402 126.328 6.6398C126.494 6.67436 127.194 6.88172 127.394 6.98541L126.761 9.75028ZM142.26 11.1673H145.36V12.9299H145.427C146.46 11.4438 147.86 10.8562 149.56 10.8562C152.526 10.8562 153.826 13.0336 153.826 15.9713V24.1968H150.526V17.2154C150.526 15.6256 150.493 13.4829 148.393 13.4829C146.027 13.4829 145.493 16.1441 145.493 17.803V24.1968H142.227V11.1673H142.26ZM157.026 13.6557H154.593V11.1673H157.026V6.8126L160.293 5.5684V11.1673H163.193V13.6557H160.293V19.7384C160.293 20.8443 160.593 21.8812 161.826 21.8812C162.426 21.8812 162.959 21.7429 163.326 21.5356L163.426 24.2313C162.726 24.4387 161.993 24.5424 160.993 24.5424C158.426 24.5424 156.993 22.8834 156.993 20.3259V13.6557H157.026ZM165.092 5.18823H168.359V12.9299H168.426C169.259 11.6511 170.659 10.8562 172.392 10.8562C175.359 10.8562 176.659 13.0336 176.659 15.9713V24.1968H173.392V17.2154C173.392 15.6256 173.359 13.4829 171.259 13.4829C168.892 13.4829 168.359 16.1441 168.359 17.803V24.1968H165.092V5.18823ZM199.991 19.8766C200.091 21.7429 199.358 23.1599 197.924 23.8511C197.424 24.0931 196.958 24.2659 196.524 24.3696C195.991 24.5078 195.391 24.5424 194.758 24.5424C193.491 24.5424 192.058 23.9203 190.991 23.229L191.191 20.6715C191.358 20.7752 191.525 20.8789 191.658 20.9826C192.358 21.4319 193.091 21.8466 193.891 22.0885C194.191 22.1577 194.524 22.2268 194.824 22.2268C195.658 22.2268 196.391 21.9849 196.724 21.4664C197.191 20.7752 196.824 19.8421 196.224 19.3582C195.658 18.9089 194.891 18.7016 194.224 18.5288L194.124 18.4942C193.224 18.2523 192.125 17.8375 191.491 16.939C191.125 16.386 190.958 15.6948 190.958 14.8999C190.958 13.4137 191.725 12.1695 193.024 11.5129C193.858 11.0982 194.824 10.8908 195.891 10.8908C197.291 10.8908 198.358 11.1327 199.391 11.5129L198.958 14.0358C198.524 13.863 198.091 13.6902 197.658 13.5865C197.324 13.4829 197.024 13.4137 196.691 13.3792C196.091 13.2755 195.458 13.2755 194.891 13.5174C194.291 13.7593 193.891 14.2432 193.991 14.8999C194.058 15.3146 194.291 15.6602 194.624 15.833C195.058 16.0404 195.691 16.2477 196.224 16.386C197.891 16.8353 199.858 17.6647 199.991 19.8766ZM56.1308 20.084C55.0642 21.1554 53.5976 21.4319 51.8643 21.4319H49.9311V9.30098H51.7643C53.3642 9.30098 54.6975 9.57747 55.7308 10.3378C57.0307 11.3055 57.6974 13.0681 57.6974 15.3837C57.7307 17.5265 57.1641 19.0817 56.1308 20.084ZM57.5974 7.84943C55.9308 6.88172 53.9642 6.53611 51.0644 6.53611H49.2311H47.4312H46.6646V7.29645V23.471V24.1968H47.3979H49.2311H52.1976C54.6975 24.1968 56.8641 23.6092 58.4307 22.2959C60.1306 20.8098 61.1639 18.5288 61.1639 15.4528C61.1972 11.6511 59.8639 9.16275 57.5974 7.84943ZM141.094 11.1673L136.394 24.1276C135.327 27.0308 134.594 29.8647 131.161 29.8647C131.061 29.8647 130.961 29.8647 130.861 29.8647L129.927 27.2036C130.161 27.2381 130.427 27.2381 130.727 27.2381C132.061 27.2381 132.861 26.305 132.861 24.9225L128.061 11.2018H131.694L134.727 20.7407H134.761L137.794 11.2018H141.094V11.1673ZM113.795 11.1673L109.095 24.1276C108.028 27.0308 107.295 29.8647 103.862 29.8647C103.762 29.8647 103.662 29.8647 103.562 29.8647L102.629 27.2036C102.862 27.2381 103.129 27.2381 103.429 27.2381C104.762 27.2381 105.562 26.305 105.562 24.9225L100.762 11.2018H104.395L107.428 20.7407H107.462L110.495 11.2018H113.795V11.1673Z" fill="#8A8FAE"/>
<path d="M26.7988 3.35673C33.1318 3.63322 38.1982 9.05925 38.1982 15.7295C38.1982 22.3997 33.1318 27.8258 26.7654 28.1023C29.3986 24.7153 30.9652 20.4298 30.9652 15.7295C30.9986 11.0638 29.432 6.74369 26.7988 3.35673ZM14.3327 15.7295C14.3327 19.7731 16.1993 23.3674 19.0991 25.6484C21.999 23.402 23.8656 19.8077 23.8656 15.7295C23.8656 11.6859 21.999 8.09156 19.0991 5.81055C16.1993 8.09156 14.3327 11.6859 14.3327 15.7295ZM0 15.7295C0 22.3997 5.06643 27.8258 11.3995 28.1023C8.76626 24.7153 7.19967 20.4298 7.19967 15.7295C7.19967 11.202 8.76626 6.84737 11.4661 3.35673C5.09977 3.63322 0 9.05925 0 15.7295ZM26.7988 3.35673C21.9657 -1.10161 16.3326 -1.13617 11.4328 3.35673C11.4328 3.35673 15.8993 3.18393 19.1325 5.81055C22.399 3.08024 26.7988 3.35673 26.7988 3.35673ZM11.3995 28.1023C16.2326 32.5606 21.8657 32.5952 26.7654 28.1023C26.7654 28.1023 22.299 28.2751 19.0658 25.6484C15.8326 28.3787 11.3995 28.1023 11.3995 28.1023Z" fill="#8A8FAE"/>
</svg>
