<svg width="70" height="60" viewBox="0 0 70 60" fill="none" xmlns="http://www.w3.org/2000/svg">
<path d="M69.8777 16.9206C69.8777 6.18453 62.186 1.97017 53.1605 0.561504C49.9618 0.113236 46.4988 0 43.2996 0C30.3918 0 8.91079 2.02598 1.82921 16.4698C0.744625 18.6626 0 21.6982 0 24.1707C0 33.3317 5.05262 43.1433 11.7238 50.1437C17.9985 56.7277 24.8466 59.5742 32.1587 59.5742C37.8137 59.5742 42.555 57.6902 46.8966 54.5409C56.8937 47.1763 69.8777 30.2978 69.8777 16.9206Z" fill="white"/>
<path fill-rule="evenodd" clip-rule="evenodd" d="M35.1317 26.8479C32.816 25.6991 30.6145 24.6628 30.6145 22.824C30.6145 21.2746 32.2927 20.5844 34.032 20.5844C35.8275 20.5844 37.5071 21.2154 38.8982 22.3079V19.7218C37.4505 18.9184 35.7708 18.516 34.0899 18.516C30.9608 18.516 27.4858 20.0684 27.4858 23.6308C27.4858 26.5618 30.0942 27.8236 32.5263 28.9724C34.7273 30.0087 36.7551 30.9259 36.7551 32.8235C36.7551 34.7194 34.7273 35.1222 33.1045 35.1222C31.5987 35.1222 29.225 34.4894 27.3119 33.4574V36.0993C29.1671 36.8469 30.9608 37.2498 32.9899 37.2498C36.2348 37.2498 40.1143 35.9269 40.1143 32.0758C40.1143 29.4339 37.5663 28.0567 35.1317 26.8479ZM32.7205 58.0496H32.8047C37.9979 58.0381 42.446 56.2022 46.6039 53.1687C56.5673 45.8115 69.197 29.3185 69.197 16.5047C69.197 6.90792 62.1872 2.65578 53.3802 1.27589C50.1948 0.759828 47.298 0.702393 44.1126 0.702393C30.7887 0.702393 10.2228 3.00071 3.61686 16.5609C2.64864 18.4856 2.07091 21.1875 2.05322 23.4644V23.5732V23.7367C2.06915 27.1743 2.59853 30.2893 4.08218 33.5724C6.63009 39.2032 11.2066 42.4203 17.4627 42.4203C19.2007 42.4203 20.7657 42.2478 21.7511 41.9042C22.735 41.5002 23.7206 40.7543 23.7206 39.3726C23.7206 38.6855 23.199 37.9395 22.4452 37.6521C21.6353 37.3648 20.9395 37.3085 18.7964 37.1922C16.6527 37.0756 15.899 37.0181 14.3937 36.9032C12.0183 36.6745 10.801 35.1222 10.801 33.6299C10.801 32.3058 11.7285 31.1575 13.4661 30.3523C11.1487 29.4897 9.54695 27.3106 9.54695 24.8502C9.54695 21.2788 12.3522 18.516 16.891 18.516C17.8749 18.516 19.0281 18.7442 20.0119 19.032C20.8236 19.262 21.6932 19.4344 22.6191 19.4344C23.7206 19.4344 24.9945 19.3786 26.0379 19.0908V21.3896C25.4585 21.2746 23.6046 21.1579 22.6191 21.1579C23.5467 22.1947 24.0669 23.6308 24.0669 25.0089C24.0669 28.2278 21.5194 30.9259 17.0009 30.9259C16.6129 30.9259 16.1922 30.9091 15.7039 30.8533C15.2327 30.9456 14.8054 31.1467 14.4759 31.4178C13.9833 31.8112 13.7558 32.3211 13.7558 32.7643C13.7558 33.5132 14.1615 34.0885 16.0153 34.2033L20.0119 34.4333C23.8948 34.6636 25.98 36.216 25.922 38.9716C25.8062 42.1329 23.257 44.4328 17.1151 44.4328C15.4934 44.4328 13.3515 44.1454 11.4385 43.569C10.0485 43.1692 8.7153 42.4203 7.55765 41.5594C12.7647 50.3973 22.0189 58.0325 32.7205 58.0496ZM59.4641 36.1555C58.4803 36.1555 56.857 35.47 54.7151 33.17C51.9342 30.1237 48.9775 26.675 48.9775 26.675L53.9021 22.078C56.799 19.3786 57.6108 19.2058 57.8425 19.1483H53.2643C52.3384 20.3545 51.2962 21.2746 51.2962 21.2746L46.024 26.159V10.7577L42.0257 11.791C42.5489 12.4825 42.7214 13.6329 42.7214 16.2173V32.1363C42.7214 35.3521 42.5489 35.6987 42.2012 36.6171C43.1868 36.6171 45.3879 36.6171 46.488 36.6171C46.1982 35.8694 46.024 35.3521 46.024 32.1363V27.5375C46.024 27.5375 48.3994 30.3523 51.3547 33.8585C53.2081 36.0405 54.7151 37.0181 56.5093 37.0181C57.9005 37.0181 59.1744 36.6745 60.0441 36.0406C59.8702 36.0993 59.638 36.1555 59.4641 36.1555ZM17.1029 29.0873C14.264 29.0873 12.7124 27.0172 12.7124 24.3736C12.7124 22.0175 14.1753 20.4119 16.6086 20.4119C19.3879 20.4119 20.8816 22.467 20.8816 25.0514C20.8816 27.4089 19.5924 29.0873 17.1029 29.0873Z" fill="#8A8FAE"/>
</svg>
