<svg width="142" height="27" viewBox="0 0 142 27" fill="none" xmlns="http://www.w3.org/2000/svg">
<path d="M61.1609 0.0176186C54.7229 0.37651 49.7386 6.08289 50.0847 12.7942C50.4309 19.4696 55.9343 24.6376 62.4069 24.2787C63.3415 24.2428 64.2414 24.0634 65.1067 23.8121L65.972 25.5348C66.3182 26.2526 67.1489 26.5038 67.8411 26.1449C68.5334 25.786 68.7757 24.9247 68.4296 24.2069L67.6335 22.6637C71.3024 20.4386 73.6907 16.2036 73.4484 11.5022C73.1715 4.82677 67.6335 -0.341273 61.1609 0.0176186ZM66.3874 20.1156L65.3836 18.1416C65.0375 17.4239 64.2068 17.1726 63.5145 17.5315C62.8223 17.8904 62.58 18.7518 62.9261 19.4696L63.7914 21.1922C63.3069 21.2999 62.7877 21.3717 62.2685 21.4076C57.3534 21.6588 53.1307 17.7469 52.8538 12.6147C52.6115 7.51846 56.3843 3.13998 61.3339 2.85286C66.2489 2.60164 70.4717 6.51356 70.7486 11.6457C70.9217 15.1987 69.1218 18.3929 66.3874 20.1156Z" fill="#8A8FAE"/>
<path d="M43.1623 24.2421C42.4008 24.2421 41.7778 23.5961 41.7778 22.8065V1.4883C41.7778 0.69874 42.4008 0.0527344 43.1623 0.0527344C43.9238 0.0527344 44.5468 0.69874 44.5468 1.4883V22.8065C44.5468 23.5961 43.9238 24.2421 43.1623 24.2421Z" fill="#8A8FAE"/>
<path d="M108.927 24.2421C108.165 24.2421 107.542 23.5961 107.542 22.8065V1.4883C107.542 0.69874 108.165 0.0527344 108.927 0.0527344C109.688 0.0527344 110.311 0.69874 110.311 1.4883V22.8065C110.311 23.5961 109.688 24.2421 108.927 24.2421Z" fill="#8A8FAE"/>
<path d="M89.1972 24.2418C88.678 24.2418 88.1935 23.9547 87.9858 23.4882L77.2212 2.17003C76.8751 1.45225 77.1173 0.590906 77.8096 0.232015C78.5019 -0.126876 79.3326 0.124347 79.6787 0.842129L89.2318 19.7557L98.9581 0.842129C99.3042 0.160236 100.17 -0.126877 100.827 0.267904C101.485 0.626795 101.762 1.52402 101.381 2.20592L90.4087 23.524C90.1664 23.9547 89.6818 24.2418 89.1972 24.2418Z" fill="#8A8FAE"/>
<path d="M133.086 19.3978H126.441C125.679 19.3978 125.056 18.7518 125.056 17.9622C125.056 17.1726 125.679 16.5266 126.441 16.5266H133.121C133.882 16.5266 134.505 17.1726 134.505 17.9622C134.505 18.7518 133.882 19.3978 133.086 19.3978Z" fill="#8A8FAE"/>
<path d="M140.598 24.2429C140.113 24.2429 139.629 23.9558 139.386 23.4893L129.833 4.57566L120.107 23.4893C119.761 24.1711 118.895 24.4583 118.238 24.0635C117.58 23.7046 117.303 22.8074 117.684 22.1255L128.656 0.807295C128.899 0.340735 129.383 0.0177334 129.868 0.0536226C130.387 0.0536226 130.837 0.340735 131.079 0.807295L141.844 22.1255C142.19 22.8432 141.948 23.7046 141.255 24.0635C141.048 24.1711 140.805 24.2429 140.598 24.2429Z" fill="#8A8FAE"/>
<path d="M33.7476 20.259H26.9634C26.4789 21.1563 25.9251 21.9818 25.3366 22.6996H33.7822C34.4398 22.6996 34.959 22.1612 34.959 21.4793C34.9244 20.7974 34.4052 20.259 33.7476 20.259Z" fill="#8A8FAE"/>
<path d="M33.7475 15.5934H28.5556C28.3825 16.4548 28.1749 17.2443 27.8979 18.0339H33.7129C34.3705 18.0339 34.8897 17.4956 34.8897 16.8137C34.8897 16.1317 34.4052 15.5934 33.7475 15.5934Z" fill="#8A8FAE"/>
<path d="M33.7473 10.928H28.8669C28.9015 11.3228 28.9015 11.6816 28.9015 12.0764C28.9015 12.5071 28.9015 12.9377 28.8669 13.3684H33.7473C34.405 13.3684 34.9242 12.8301 34.9242 12.1482C34.9242 11.4663 34.405 10.928 33.7473 10.928Z" fill="#8A8FAE"/>
<path d="M33.7476 6.26221H27.9673C28.2442 7.0518 28.4519 7.87728 28.5903 8.70276H33.7476C34.4053 8.70276 34.9245 8.1644 34.9245 7.48248C34.9245 6.83645 34.4053 6.26221 33.7476 6.26221Z" fill="#8A8FAE"/>
<path d="M33.7475 1.5968H25.4404C26.0288 2.31458 26.5827 3.14001 27.0326 4.03723H33.7475C34.4052 4.03723 34.9244 3.4989 34.9244 2.81702C34.9244 2.13513 34.4052 1.5968 33.7475 1.5968Z" fill="#8A8FAE"/>
<path d="M11.2838 21.4793C11.2838 20.7974 11.8029 20.259 12.4606 20.259H7.82247C7.16482 20.259 6.64563 20.7974 6.64563 21.4793C6.64563 22.1612 7.16482 22.6996 7.82247 22.6996H12.4606C11.8376 22.6996 11.2838 22.1253 11.2838 21.4793Z" fill="#8A8FAE"/>
<path d="M26.9634 20.259H12.4606C11.8029 20.259 11.2838 20.7974 11.2838 21.4793C11.2838 22.1612 11.8029 22.6996 12.4606 22.6996H25.302C25.925 21.9459 26.4788 21.1563 26.9634 20.259Z" fill="#8A8FAE"/>
<path d="M7.99567 17.0649C7.8226 16.2753 8.41102 15.5934 9.13789 15.5934H4.49977C3.84213 15.5934 3.32294 16.1317 3.32294 16.8137C3.32294 17.4956 3.84213 18.0339 4.49977 18.0339H9.1725C8.6187 18.0339 8.09951 17.6391 7.99567 17.0649Z" fill="#8A8FAE"/>
<path d="M28.5903 15.5934H9.13789C8.41102 15.5934 7.8226 16.2753 7.99566 17.0649C8.0995 17.6391 8.61869 18.0339 9.1725 18.0339H27.8981C28.2096 17.2443 28.4173 16.4189 28.5903 15.5934Z" fill="#8A8FAE"/>
<path d="M4.67274 12.3994C4.49968 11.6099 5.0881 10.928 5.81497 10.928H1.17684C0.519194 10.928 0 11.4663 0 12.1482C0 12.8301 0.519194 13.3684 1.17684 13.3684H5.84958C5.29577 13.3684 4.81119 12.9736 4.67274 12.3994Z" fill="#8A8FAE"/>
<path d="M4.67275 12.3994C4.77659 12.9736 5.29579 13.3684 5.84959 13.3684H28.8325C28.8671 12.9377 28.8671 12.5071 28.8671 12.0764C28.8671 11.6816 28.8671 11.2869 28.8325 10.928H5.84959C5.12272 10.928 4.5343 11.6099 4.67275 12.3994Z" fill="#8A8FAE"/>
<path d="M6.29959 7.48248C6.29959 6.80056 6.81878 6.26221 7.47643 6.26221H2.83831C2.18066 6.26221 1.66147 6.80056 1.66147 7.48248C1.66147 8.1644 2.18066 8.70276 2.83831 8.70276H7.47643C6.81878 8.70276 6.29959 8.1644 6.29959 7.48248Z" fill="#8A8FAE"/>
<path d="M27.9672 6.26221H7.47643C6.81878 6.26221 6.29959 6.80056 6.29959 7.48248C6.29959 8.1644 6.81878 8.70276 7.47643 8.70276H28.5903C28.4518 7.87728 28.2441 7.0518 27.9672 6.26221Z" fill="#8A8FAE"/>
<path d="M14.8489 3.10432C14.6758 2.31473 15.2642 1.63281 15.9911 1.63281H11.353C10.6953 1.63281 10.1761 2.17117 10.1761 2.85309C10.1761 3.53501 10.6953 4.07336 11.353 4.07336H16.0257C15.5065 4.07336 14.9873 3.67857 14.8489 3.10432Z" fill="#8A8FAE"/>
<path d="M25.4404 1.5968H16.0257C15.2989 1.5968 14.7104 2.27869 14.8835 3.06824C14.9874 3.64246 15.5065 4.03723 16.0603 4.03723H27.0326C26.5827 3.1759 26.0288 2.35046 25.4404 1.5968Z" fill="#8A8FAE"/>
</svg>
