<svg width="200" height="31" viewBox="0 0 200 31" fill="none" xmlns="http://www.w3.org/2000/svg">
<path fill-rule="evenodd" clip-rule="evenodd" d="M72.6496 10.922C72.6496 10.6481 72.8739 10.5018 73.1555 10.5018C73.6321 10.5018 74.3515 10.922 74.7573 11.7625C74.6118 11.7625 74.3929 11.7991 74.2461 11.7991C73.3784 11.7991 72.6496 11.4565 72.6496 10.922ZM20.156 10.922C20.156 10.6481 20.3709 10.5018 20.6646 10.5018C21.1291 10.5018 21.8192 10.922 22.2196 11.7625C20.8795 11.7625 20.156 11.5219 20.156 10.922ZM30.2807 6.5787C30.2807 2.08239 31.3352 1.39158 31.6622 1.39158C32.2442 1.39158 32.3136 1.69319 32.3136 3.41742C32.3136 5.18934 31.4046 7.50791 30.2807 8.78085V6.5787ZM67.1368 11.0118C66.5121 11.7348 66.0062 12.7616 66.0062 14.0844C66.0062 16.6181 67.7455 19.0364 71.1253 19.0364C74.3929 19.0364 76.6822 16.892 76.6822 13.9014C76.6822 13.0332 76.6421 12.9135 76.574 12.5531C77.3336 12.2781 77.989 11.8579 78.4989 11.5219C78.9327 11.2502 79.2571 11.0983 79.516 11.0983C79.8417 11.0983 79.9845 11.3101 79.9845 11.7015V17.6182C79.9845 18.5818 80.3516 19.0364 81.2553 19.0364C82.0882 19.0364 82.6742 18.5508 82.9986 17.9786C84.1999 15.8973 85.9392 13.123 86.6988 12.0696C86.8816 11.8279 87.0298 11.6427 87.1339 11.6427C87.2794 11.6427 87.3542 11.7348 87.3542 12.1251V16.8354C87.3542 18.1605 88.083 19.0364 89.6741 19.0364C91.348 19.0364 92.1782 17.7047 93.6412 15.6545C93.7106 15.5314 93.7413 15.4438 93.7413 15.3562C93.7413 15.0846 93.4584 14.9304 93.166 14.9304C92.8363 14.9304 92.6548 15.2043 91.5682 16.1967C91.348 16.3852 91.1344 16.6469 90.7313 16.6469C90.5871 16.6469 90.4763 16.5016 90.4763 16.3176V11.0373C90.4763 9.61912 89.7128 9.04697 88.733 9.04697C87.9361 9.04697 87.2794 9.31863 86.5906 10.1636C85.3559 11.6749 84.0852 13.8183 83.3977 14.8983C83.3203 15.0247 83.2162 15.2043 83.1454 15.2043C83.0693 15.2043 83.0373 15.1112 83.0373 14.8983V11.0373C83.0373 9.92405 82.6742 9.04697 81.2553 9.04697C79.7656 9.04697 79.0048 9.893 77.9156 10.525C77.2254 10.9519 76.6101 11.2502 76.1402 11.431C75.4101 9.89301 74.0686 9.1135 72.9433 9.13678C71.814 9.16894 71.0158 9.74553 71.0158 10.7113C71.0158 11.7015 71.7459 12.3912 72.7217 12.6984C73.2637 12.8791 73.7736 12.9135 74.5037 12.9135C74.7226 12.9135 74.9389 12.9135 75.079 12.8791C75.1564 13.1796 75.1217 13.6076 75.1217 13.938C75.1217 15.4183 74.0686 16.892 72.1104 16.892C70.0721 16.892 68.8787 15.2631 68.8787 13.3947C68.8787 11.9754 69.3846 10.8011 70.2136 9.98947C70.5486 9.68565 70.7982 9.50159 70.7982 9.22327C70.7982 9.08245 70.5486 9.04697 70.3284 9.04697C68.9455 9.04697 67.4251 9.56146 66.3746 10.0117C64.9877 10.616 63.3579 11.615 62.0123 12.6096C61.3596 11.3999 60.5614 10.3443 60.1596 9.52709C60.0154 9.19555 59.91 8.81078 59.619 8.81078C59.3614 8.81078 59.2492 9.02146 59.0717 9.43727C58.4203 11.0373 54.9324 15.7166 54.1702 16.3497C54.0981 16.4362 53.9927 16.5316 53.958 16.5316C53.8792 16.5316 53.8378 16.5016 53.8378 16.3176V11.0373C53.8378 9.61912 53.1491 9.04697 52.212 9.04697C51.4098 9.04697 50.7223 9.31863 50.0696 10.1636C48.8736 11.6749 47.4146 13.877 46.7272 14.9604C46.6164 15.1467 46.5069 15.2043 46.4695 15.2043C46.4335 15.2043 46.4041 15.0846 46.4041 14.8983V11.0373C46.4041 9.61912 45.7114 9.04697 44.7663 9.04697C43.9654 9.04697 43.2072 9.29424 42.5865 10.1636C41.0648 12.308 38.5246 15.5957 38.0521 16.1346C37.9787 16.2278 37.9053 16.2888 37.8332 16.3176C37.7611 16.3176 37.7197 16.2588 37.7197 16.1091V11.0373C37.7197 9.61912 37.0309 9.04697 36.0926 9.04697C34.7831 9.04697 34.0609 10.0471 33.5844 10.6769C32.9277 11.5518 32.06 12.7305 31.3726 13.8183C30.8987 14.5457 30.4969 15.2043 30.3501 15.2043C30.2807 15.2043 30.2807 14.9304 30.2807 14.4193V10.3787C32.5646 8.26302 33.9822 5.67168 33.9822 2.83639C33.9822 1.20419 33.1145 0.30382 31.7744 0.30382C29.2635 0.30382 27.3441 3.56268 27.3441 7.42031V10.5572C26.1801 11.1615 25.0895 11.4565 23.744 11.6749C23.0566 9.98947 21.6016 9.1135 20.4443 9.13678C19.3217 9.16894 18.5195 9.74553 18.5195 10.7113C18.5195 12.308 20.4083 12.9711 22.0741 12.9711H22.5467C22.6174 13.2749 22.6174 13.6076 22.6174 13.938C22.6174 15.4183 21.5656 16.892 19.61 16.892C17.5784 16.892 16.3771 15.2631 16.3771 13.3947C16.3771 11.9754 16.8803 10.8011 17.7159 9.98947C18.0456 9.68565 18.3019 9.41399 18.3019 9.22327C18.3019 9.08245 18.0456 9.04697 17.8254 9.04697C16.4465 9.04697 13.4004 10.5916 9.76697 13.6076C9.44528 11.1937 9.07954 8.8385 9.07954 6.54544C9.07954 3.98293 9.68955 1.80629 9.83505 1.17869C9.90847 0.789489 9.95385 0.544437 9.95385 0.367024C9.95385 0.124189 9.79901 0 9.4079 0C6.46326 0 0 3.89311 0 9.71448C0 13.8427 1.81938 15.8352 4.97225 18.3989C3.0581 20.9636 1.52304 24.0084 1.52304 26.724C1.52304 28.6811 2.073 30.1636 3.81095 30.1636C7.44303 30.1636 10.1634 23.8931 10.1634 19.2449C10.1634 17.8589 10.0967 16.4695 9.95385 15.0846C11.2927 13.9014 13.363 12.308 13.8676 12.1572C13.6513 12.7915 13.5058 13.4568 13.5058 14.0844C13.5058 16.6181 15.2518 19.0364 18.6249 19.0364C21.7885 19.0364 24.1805 16.892 24.1805 13.9014C24.1805 13.5156 24.1431 13.1796 24.1111 12.8192C25.2671 12.6385 26.3309 12.3912 27.3441 11.8867V17.9487C27.3441 18.7293 27.9928 19.0364 28.6108 19.0364C29.4504 19.0364 29.8856 18.5508 30.4969 17.4408C31.0108 16.5316 32.3857 14.4525 33.22 13.2117C33.8781 12.2437 34.2411 11.615 34.5335 11.615C34.6015 11.615 34.679 11.7625 34.679 12.1251V17.2845C34.679 18.6727 35.5506 19.0364 36.3048 19.0364C37.0309 19.0364 37.5061 18.7049 37.9787 18.1605C39.8688 15.9262 41.8684 13.2749 42.6613 12.1251C42.8081 11.9188 42.9883 11.7625 43.1351 11.7625C43.2766 11.7625 43.35 11.8279 43.35 12.2149V17.6182C43.35 18.5818 43.7131 19.0364 44.6248 19.0364C45.4551 19.0364 45.9984 18.5508 46.3227 17.9786C47.5294 15.8973 49.3034 13.1508 50.0696 12.0696C50.2471 11.8279 50.43 11.615 50.5381 11.615C50.689 11.615 50.7223 11.7625 50.7223 12.1572V17.2845C50.7223 18.6727 51.594 19.0364 52.3615 19.0364C53.3693 19.0364 54.03 18.4299 54.6828 17.7391C55.8735 16.4362 57.6181 14.1232 58.6726 12.6385C59.0383 13.123 59.4335 13.6974 59.7658 14.3294C58.8928 15.2043 58.0199 16.1967 58.0199 17.2512C58.0199 18.3689 58.9636 19.0364 59.9447 19.0364C61.6119 19.0364 63.1349 17.7047 63.1349 15.8685C63.1349 15.1467 62.8853 14.3904 62.561 13.6686C64.0413 12.4588 65.8233 11.2824 67.1368 11.0118ZM7.3309 17.5872C7.62457 19.1839 7.87952 20.7562 7.87952 21.9904C7.87952 24.8811 6.72088 28.2608 4.72264 28.2331C3.95111 28.2331 3.30238 27.5922 3.27034 26.4823C3.19693 22.8663 5.26592 19.7882 7.3309 17.5872ZM60.3411 15.5314C60.5614 16.0504 60.6722 16.4695 60.6722 16.892C60.6722 17.3754 60.4533 17.8589 60.0515 17.8589C59.7658 17.8589 59.4748 17.5872 59.4748 17.1636C59.4748 16.7101 59.9447 15.986 60.3411 15.5314ZM8.64171 1.14653C8.64171 1.3306 8.13314 2.1722 7.48174 3.68243C6.79163 5.24811 6.13356 7.47797 6.13356 10.1636C6.13356 11.7625 6.61009 13.877 7.01188 16.0171L5.84924 17.3189C3.99516 15.4438 2.83519 13.3359 2.83519 9.71448C2.83519 4.58835 6.57405 1.03232 8.49488 1.03232C8.60967 1.03232 8.64171 1.05894 8.64171 1.14653Z" fill="#8A8FAE"/>
<path fill-rule="evenodd" clip-rule="evenodd" d="M178.911 10.922C178.911 10.6481 179.123 10.5018 179.417 10.5018C179.885 10.5018 180.613 10.922 181.011 11.7625C180.869 11.7625 180.652 11.7991 180.499 11.7991C179.636 11.7991 178.911 11.4565 178.911 10.922ZM126.407 10.922C126.407 10.6481 126.628 10.5018 126.915 10.5018C127.388 10.5018 128.084 10.922 128.476 11.7625C127.133 11.7625 126.407 11.5219 126.407 10.922ZM136.538 6.5787C136.538 2.08239 137.586 1.39158 137.917 1.39158C138.496 1.39158 138.57 1.69319 138.57 3.41742C138.57 5.18934 137.659 7.50791 136.538 8.78085V6.5787ZM113.595 17.5872C113.877 19.1839 114.141 20.7562 114.141 21.9904C114.141 24.8811 112.981 28.2608 110.979 28.2331C110.218 28.2331 109.564 27.5922 109.528 26.4823C109.453 22.8663 111.526 19.7882 113.595 17.5872ZM166.604 15.5314C166.824 16.0504 166.928 16.4695 166.928 16.892C166.928 17.3754 166.711 17.8589 166.311 17.8589C166.024 17.8589 165.725 17.5872 165.725 17.1636C165.725 16.7101 166.202 15.986 166.604 15.5314ZM114.895 1.14653C114.895 1.3306 114.392 2.1722 113.734 3.68243C113.049 5.24811 112.391 7.47797 112.391 10.1636C112.391 11.7625 112.875 13.877 113.272 16.0171L112.107 17.3189C110.258 15.4438 109.09 13.3359 109.09 9.71448C109.09 4.58835 112.837 1.03232 114.758 1.03232C114.863 1.03232 114.895 1.05894 114.895 1.14653ZM108.842 16.2278C109.49 16.9518 110.291 17.6449 111.235 18.3989C109.309 20.9636 107.786 24.0084 107.786 26.724C107.786 28.6811 108.334 30.1636 110.078 30.1636C113.704 30.1636 116.425 23.8931 116.425 19.2449C116.425 17.8589 116.354 16.4695 116.208 15.0846C117.554 13.9014 119.616 12.308 120.132 12.1572C119.913 12.7915 119.762 13.4568 119.762 14.0844C119.762 16.6181 121.506 19.0364 124.886 19.0364C128.042 19.0364 130.438 16.892 130.438 13.9014C130.438 13.5156 130.404 13.1796 130.364 12.8192C131.528 12.6385 132.588 12.3912 133.599 11.8867V17.9487C133.599 18.7293 134.249 19.0364 134.861 19.0364C135.708 19.0364 136.143 18.5508 136.757 17.4408C137.263 16.5316 138.646 14.4525 139.483 13.2117C140.134 12.2437 140.497 11.615 140.795 11.615C140.863 11.615 140.931 11.7625 140.931 12.1251V17.2845C140.931 18.6727 141.8 19.0364 142.563 19.0364C143.292 19.0364 143.759 18.7049 144.241 18.1605C146.123 15.9262 148.123 13.2749 148.92 12.1251C149.065 11.9188 149.25 11.7625 149.39 11.7625C149.531 11.7625 149.611 11.8279 149.611 12.2149V17.6182C149.611 18.5818 149.97 19.0364 150.877 19.0364C151.712 19.0364 152.257 18.5508 152.587 17.9786C153.785 15.8973 155.563 13.1508 156.323 12.0696C156.508 11.8279 156.689 11.615 156.802 11.615C156.944 11.615 156.984 11.7625 156.984 12.1572V17.2845C156.984 18.6727 157.847 19.0364 158.608 19.0364C159.632 19.0364 160.286 18.4299 160.935 17.7391C162.132 16.4362 163.879 14.1232 164.931 12.6385C165.29 13.123 165.695 13.6974 166.024 14.3294C165.143 15.2043 164.281 16.1967 164.281 17.2512C164.281 18.3689 165.214 19.0364 166.202 19.0364C167.869 19.0364 169.392 17.7047 169.392 15.8685C169.392 15.1467 169.14 14.3904 168.813 13.6686C170.3 12.4588 172.081 11.2824 173.387 11.0118C172.771 11.7348 172.262 12.7616 172.262 14.0844C172.262 16.6181 174.007 19.0364 177.384 19.0364C180.652 19.0364 182.933 16.892 182.933 13.9014C182.933 13.0332 182.899 12.9135 182.831 12.5531C183.585 12.2781 184.244 11.8579 184.757 11.5219C185.183 11.2502 185.517 11.0983 185.767 11.0983C186.095 11.0983 186.248 11.3101 186.248 11.7015V17.6182C186.248 18.5818 186.606 19.0364 187.514 19.0364C188.346 19.0364 188.93 18.5508 189.259 17.9786C190.449 15.8973 192.195 13.123 192.955 12.0696C193.136 11.8279 193.284 11.6427 193.394 11.6427C193.542 11.6427 193.613 11.7348 193.613 12.1251V16.8354C193.613 18.1605 194.332 19.0364 195.934 19.0364C197.609 19.0364 198.442 17.7047 199.897 15.6545C199.965 15.5314 200 15.4438 200 15.3562C200 15.0846 199.709 14.9304 199.421 14.9304C199.096 14.9304 198.911 15.2043 197.824 16.1967C197.609 16.3852 197.388 16.6469 196.99 16.6469C196.84 16.6469 196.738 16.5016 196.738 16.3176V11.0373C196.738 9.61912 195.966 9.04697 194.986 9.04697C194.192 9.04697 193.542 9.31863 192.849 10.1636C191.612 11.6749 190.345 13.8183 189.66 14.8983C189.582 15.0247 189.476 15.2043 189.399 15.2043C189.321 15.2043 189.293 15.1112 189.293 14.8983V11.0373C189.293 9.92405 188.93 9.04697 187.514 9.04697C186.022 9.04697 185.263 9.893 184.175 10.525C183.479 10.9519 182.866 11.2502 182.389 11.431C181.67 9.89301 180.322 9.1135 179.202 9.13678C178.07 9.16894 177.278 9.74553 177.278 10.7113C177.278 11.7015 178.005 12.3912 178.976 12.6984C179.522 12.8791 180.031 12.9135 180.766 12.9135C180.979 12.9135 181.189 12.9135 181.344 12.8791C181.415 13.1796 181.378 13.6076 181.378 13.938C181.378 15.4183 180.322 16.892 178.36 16.892C176.328 16.892 175.135 15.2631 175.135 13.3947C175.135 11.9754 175.639 10.8011 176.471 9.98947C176.802 9.68565 177.058 9.50159 177.058 9.22327C177.058 9.08245 176.802 9.04697 176.584 9.04697C175.211 9.04697 173.681 9.56146 172.628 10.0117C171.246 10.616 169.612 11.615 168.274 12.6096C167.618 11.3999 166.824 10.3443 166.42 9.52709C166.27 9.19555 166.171 8.81078 165.87 8.81078C165.619 8.81078 165.508 9.02146 165.329 9.43727C164.674 11.0373 161.191 15.7166 160.429 16.3497C160.355 16.4362 160.247 16.5316 160.209 16.5316C160.14 16.5316 160.1 16.5016 160.1 16.3176V11.0373C160.1 9.61912 159.416 9.04697 158.463 9.04697C157.663 9.04697 156.984 9.31863 156.323 10.1636C155.123 11.6749 153.675 13.877 152.984 14.9604C152.878 15.1467 152.771 15.2043 152.736 15.2043C152.695 15.2043 152.657 15.0846 152.657 14.8983V11.0373C152.657 9.61912 151.973 9.04697 151.028 9.04697C150.227 9.04697 149.459 9.29424 148.848 10.1636C147.318 12.308 144.781 15.5957 144.305 16.1346C144.241 16.2278 144.164 16.2888 144.086 16.3176C144.022 16.3176 143.98 16.2588 143.98 16.1091V11.0373C143.98 9.61912 143.292 9.04697 142.345 9.04697C141.034 9.04697 140.313 10.0471 139.838 10.6769C139.185 11.5518 138.319 12.7305 137.626 13.8183C137.157 14.5457 136.757 15.2043 136.611 15.2043C136.538 15.2043 136.538 14.9304 136.538 14.4193V10.3787C138.829 8.26302 140.239 5.67168 140.239 2.83639C140.239 1.20419 139.37 0.30382 138.022 0.30382C135.521 0.30382 133.599 3.56268 133.599 7.42031V10.5572C132.433 11.1615 131.344 11.4565 129.999 11.6749C129.314 9.98947 127.86 9.1135 126.706 9.13678C125.572 9.16894 124.777 9.74553 124.777 10.7113C124.777 12.308 126.659 12.9711 128.333 12.9711H128.808C128.875 13.2749 128.875 13.6076 128.875 13.938C128.875 15.4183 127.826 16.892 125.863 16.892C123.829 16.892 122.637 15.2631 122.637 13.3947C122.637 11.9754 123.144 10.8011 123.973 9.98947C124.299 9.68565 124.555 9.41399 124.555 9.22327C124.555 9.08245 124.299 9.04697 124.084 9.04697C122.702 9.04697 119.655 10.5916 116.02 13.6076C115.701 11.1937 115.334 8.8385 115.334 6.54544C115.334 3.98293 115.951 1.80629 116.096 1.17869C116.168 0.789489 116.208 0.544437 116.208 0.367024C116.208 0.124189 116.06 0 115.668 0C112.726 0 106.263 3.89311 106.263 9.71448C106.263 12.094 106.879 13.7872 107.969 15.2631C107.563 15.2043 107.244 15.2043 106.946 15.2043C105.789 15.2043 104.696 15.4438 104.017 15.5669V14.9604C104.017 13.6686 103.649 11.8867 102.994 11.2824C102.916 11.2203 102.808 11.1937 102.707 11.1937C102.408 11.1937 102.05 11.3101 101.652 11.4931C101.212 11.6749 100.776 11.8579 100.776 11.9754C100.776 12.0331 100.776 12.094 100.886 12.2437C101.142 12.5531 101.834 13.1508 102.083 14.5723C100.846 13.5455 99.4363 13.0898 97.5916 13.0898C95.4091 13.0898 94.7524 13.9014 94.7524 14.7209C94.7524 16.2888 97.2579 17.0727 100.421 17.0727C101.001 17.0727 101.652 16.9818 102.302 16.8587C102.302 17.3421 102.376 17.7702 102.376 18.1294C102.376 18.6428 102.481 19.0364 102.886 19.0364C103.501 19.0364 103.867 18.0063 103.936 16.5316C105.061 16.2888 106.225 16.0803 107.209 16.0803C107.679 16.0803 108.266 16.1346 108.842 16.2278ZM101.69 15.9262C101.078 15.986 100.706 15.986 100.058 15.986C98.6381 15.986 97.5916 15.5314 97.5916 14.8739C97.5916 14.4525 97.8425 14.2075 98.5687 14.2075C99.7326 14.2075 100.671 14.8739 101.69 15.9262Z" fill="#8A8FAE"/>
</svg>
