<svg width="109" height="60" viewBox="0 0 109 60" fill="none" xmlns="http://www.w3.org/2000/svg">
<path d="M48.5252 25.3981C49.9597 25.3981 51.1153 26.5547 51.1153 27.9783C51.1153 29.4019 49.9597 30.5585 48.5252 30.5585C47.0807 30.5585 45.9252 29.4019 45.9252 27.9783C45.9252 26.5547 47.0807 25.3981 48.5252 25.3981ZM107.38 34.1866C103.286 38.2299 90.5346 49.3317 87.1576 58.6837L82.9835 57.6161C84.3482 53.7408 88.4625 47.7203 93.0451 43.074C92.0687 43.4398 91.0525 43.5782 90.2357 43.5782C89.0004 43.5782 88.0341 43.2025 87.4564 42.5105C87.038 42.0063 86.8287 41.3539 86.8287 40.5729C86.8287 40.4048 86.8387 40.2367 86.8686 40.039C82.8341 42.4808 79.5963 43.5782 76.4285 43.5782C73.958 43.5782 71.8758 42.5105 70.9196 40.6322C66.9249 42.6094 63.0895 43.5782 59.8818 43.5782C56.9032 43.5782 54.4924 42.4018 53.3966 40.2664C49.3521 42.5204 45.9153 43.5782 43.1856 43.5782C41.6017 43.5782 40.3564 43.1432 39.5495 42.3227C38.9618 41.7196 38.6529 40.909 38.613 39.9698C36.023 41.6603 32.2375 43.5782 28.3524 43.5782C24.3875 43.5782 21.7177 42.2238 19.6555 40.8793C16.3581 42.6884 12.732 43.5782 8.90667 43.5782C6.00771 43.5782 1.32565 42.382 1.32565 38.2596C1.32565 34.928 4.83227 32.6741 9.51435 32.6741C13.4891 32.6741 17.3245 34.3349 19.7353 36.0649C22.0166 34.2657 24.4174 31.7349 27.2465 28.1661C26.6189 28.2057 26.0112 28.2254 25.4136 28.2254C19.9943 28.2254 15.4816 26.6338 13.011 23.8658C11.676 22.3631 11.0484 20.6034 11.0484 18.7153C11.0484 11.2416 20.5622 5.44845 28.8803 4.58838C29.4282 5.8241 29.9263 6.78303 30.4343 7.91003C22.2059 8.85906 15.362 13.6932 15.362 18.4088C15.362 21.513 18.8785 24.627 26.33 24.627C27.6051 24.627 28.8902 24.5084 30.1554 24.3304C36.7402 15.3145 46.8217 1.31616 55.5086 1.31616C58.0687 1.31616 59.4135 2.86825 59.4135 4.93438C59.4135 9.20506 55.7178 13.7921 53.3168 16.1845C49.5314 19.951 42.6875 25.5661 33.134 27.4247C29.4182 32.5555 26.3698 35.9562 23.3116 38.4178C25.1645 39.4063 26.8979 40.0094 28.97 40.0094C34.1103 40.0094 39.1013 35.3432 42.9964 31.379L43.1358 31.2505L46.1742 33.6033L46.0347 33.7714C44.3112 35.7288 42.7174 37.8048 42.7174 38.9615C42.7174 39.8413 43.4744 40.0193 44.112 40.0193C46.0846 40.0193 49.1229 38.7539 52.6892 36.5691V36.5394C53.0877 27.7905 65.1316 14.3853 72.4438 14.3853C74.5058 14.3853 75.6914 15.4035 75.6914 17.1928C75.6914 21.592 68.0605 31.0034 56.9629 38.2003V38.2101C57.5308 39.436 58.8557 40.0291 61.0971 40.0291C62.8505 40.0291 66.2774 39.2581 70.3518 37.1425C70.82 32.6049 73.4101 27.7312 76.6975 24.2612C79.995 20.7814 83.6907 18.5175 86.8886 18.5175C88.861 18.5175 90.0264 19.5951 90.0264 21.2856C90.0264 25.1114 85.5436 31.6657 74.7449 38.5166C75.2231 39.436 76.1495 40.0193 77.594 40.0193C80.8118 40.0193 86.4701 36.6185 90.8832 32.4269L94.0512 34.8687C92.6963 36.4999 91.3315 38.2892 91.3714 39.3174C91.3814 39.6535 91.6105 39.8809 92.1484 39.8809C95.396 39.8809 100.516 35.6201 104.352 31.8535L107.38 34.1866ZM36.4514 22.7586C41.2132 21.2362 45.7358 18.0727 49.113 14.7609C52.2211 11.6963 54.7214 8.05831 54.7214 6.25908C54.7214 5.84387 54.4227 5.59673 54.0441 5.59673C52.6096 5.59673 49.87 7.5047 46.1841 11.1625C43.3151 14.0096 39.9779 17.9046 36.4514 22.7586ZM16.0892 38.3881C14.3358 37.1721 11.6263 36.1242 9.19549 36.1242C6.84452 36.1242 5.34024 37.0337 5.34024 38.2003C5.34024 39.525 7.17323 40.0984 9.21541 40.0984C11.686 40.0984 13.9374 39.436 16.0892 38.3881ZM56.9032 34.0087C63.5478 29.0262 70.5311 21.77 71.2782 18.7943C71.2981 18.6955 71.328 18.5966 71.318 18.5077C71.3081 18.3099 71.1986 18.132 70.9495 18.132C68.8475 18.132 59.1048 27.049 56.9032 34.0087ZM74.5257 34.7995C75.1434 34.3646 75.8109 33.8604 76.4285 33.376C81.2003 29.5897 84.8464 25.4376 85.5735 23.1342C85.5934 23.065 85.6533 22.8475 85.6533 22.6795C85.6533 22.4422 85.5436 22.2742 85.3245 22.2742C83.1329 22.2742 76.0998 29.2239 74.3963 34.849V34.8687L74.5257 34.7995Z" fill="#8A8FAE"/>
</svg>
