<svg width="155" height="47" viewBox="0 0 155 47" fill="none" xmlns="http://www.w3.org/2000/svg">
<path d="M73.5709 12.1295H80.5121V34.8686H75.3686V19.5772L68.7885 34.8686L61.8633 19.558V34.8686H57.0638V12.1295H63.9243L68.8703 23.899L73.5709 12.1295Z" fill="#8A8FAE"/>
<path d="M83.0699 12.1295V34.8686H95.9957V31.0136H88.0808V25.2285H95.6685V21.3371H88.0808V16.1202H95.9957V12.1295H83.0699Z" fill="#8A8FAE"/>
<path d="M115.274 23.5031C115.274 31.9675 123.977 38.7408 133.147 34.2104V29.3387C126.091 34.3562 119.949 29.3272 120.05 23.6975C120.118 19.9559 122.595 16.3976 127.387 16.1202C129.743 15.9844 131.339 16.5789 133.147 18.3358V13.2697C126.521 9.28412 115.274 13.6707 115.274 23.5031Z" fill="#8A8FAE"/>
<path d="M135.262 34.8685H140.026V12.3481H135.262V34.8685Z" fill="#8A8FAE"/>
<path d="M146.005 22.6747L153.204 12.3978H147.64L140.507 22.6555L148.788 34.8685H154.252L146.005 22.6747Z" fill="#8A8FAE"/>
<path d="M98.2231 12.1293V34.8684H103.252V22.6519L111.563 34.8684H116.924L110.343 25.3203C113.393 24.1497 114.382 21.5542 114.382 18.9599C114.382 16.3676 112.239 12.1293 107.045 12.1293H98.2231ZM103.252 15.9132H105.446C109.157 15.9132 109.355 18.3757 109.355 19.2951C109.355 21.052 107.887 22.548 105.991 22.548H103.252V15.9132Z" fill="#8A8FAE"/>
<path d="M11.9502 12.1311C11.9502 5.85095 16.9661 0.76062 23.1522 0.76062C29.3402 0.76062 34.3541 5.85095 34.3541 12.1311H11.9502ZM11.9502 34.8712C11.9502 28.592 16.9661 23.5007 23.1522 23.5007C16.9661 23.5007 11.9502 18.4113 11.9502 12.1311C5.76421 12.1311 0.749329 17.2215 0.749329 23.5007C0.749329 29.7819 5.76421 34.8712 11.9502 34.8712ZM11.9502 34.8712C11.9502 41.1524 16.9661 46.2417 23.1522 46.2417C29.3402 46.2417 34.3541 41.1524 34.3541 34.8712H11.9502ZM23.1522 23.5007C29.3402 23.5007 34.3541 28.592 34.3541 34.8712C40.5411 34.8712 45.557 29.7819 45.557 23.5007C45.557 17.2215 40.5411 12.1311 34.3541 12.1311C34.3541 18.4113 29.3402 23.5007 23.1522 23.5007Z" fill="#8A8FAE"/>
</svg>
