<svg width="189" height="31" viewBox="0 0 189 31" fill="none" xmlns="http://www.w3.org/2000/svg">
<g clip-path="url(#clip0)">
<path d="M18.8996 13.8876L18.8228 14.0862C20.1024 14.6502 22.9752 16.8869 22.9752 21.3924C22.9752 25.6351 19.405 29.9099 13.7939 29.9099C6.81355 29.9099 4.40787 25.821 4.40787 22.0654C4.40787 17.2522 7.76687 14.0478 7.76687 9.66407C7.74858 8.11366 7.2058 6.61532 6.22726 5.41394C5.24872 4.21256 3.89229 3.37919 2.37967 3.05005L2.2645 3.24873C2.81305 3.78189 3.2483 4.42066 3.54407 5.12665C3.83984 5.83263 3.99002 6.59124 3.98559 7.35685C3.98559 12.0931 -0.000427246 15.4577 -0.000427246 20.8925C-0.000427246 25.8979 3.49294 30.9994 13.6083 30.9994C22.6233 30.9994 27.3771 26.5772 27.3771 21.8731C27.3707 17.8355 24.4851 14.4195 18.8996 13.8876Z" fill="#8A8FAE"/>
<path d="M58.5038 30.1917L46.5202 14.7142V28.6664L48.9642 29.2496V29.8905H43.3915V29.2496L45.3877 28.6664V13.4644C44.9018 13.0108 44.3168 12.6772 43.6794 12.4903C43.4363 12.439 43.11 12.3813 43.11 12.3813V11.7404H47.8382L58.0751 25.071V12.9774L55.6311 12.3877V11.7468H61.2038V12.3877L59.2076 12.9774V26.8142C59.2076 28.096 59.2972 29.961 59.3164 30.1982L58.5038 30.1917ZM83.5588 20.3348C83.5588 26.7437 79.0801 30.4609 74.1856 30.4609C69.291 30.4609 64.7931 26.6925 64.7931 20.8347C64.7931 14.9769 69.2718 11.17 74.1408 11.17C75.3664 11.1295 76.5875 11.3371 77.7312 11.7803C78.8749 12.2235 79.9175 12.8932 80.7968 13.7494C81.6761 14.6056 82.3739 15.6307 82.8484 16.7634C83.323 17.896 83.5646 19.1129 83.5588 20.3412V20.3348ZM80.4429 21.2962C80.4429 16.5856 77.6277 12.016 73.8017 12.016C69.7325 12.016 67.8962 15.9575 67.8962 20.1746C67.8962 24.3917 70.2187 29.6214 74.5886 29.6214C78.6962 29.6214 80.4429 25.4556 80.4429 21.2962ZM87.4296 12.9645L85.5102 12.3749V11.734H92.8616V12.3749L90.5583 12.9645L95.632 26.8207L100.706 12.9645L98.4024 12.3749V11.734H103.841V12.3749L101.921 12.9645L95.568 30.2366H93.9429L87.4296 12.9645ZM130.873 20.6232H129.708V12.689C133.547 12.689 135.831 13.5734 135.831 16.7138C135.812 19.0466 133.816 20.6232 130.873 20.6232ZM163.765 29.2496L166.325 28.6664V12.9709L163.765 12.3813V11.7404H171.744V12.3813L169.185 12.9709V28.6664L171.744 29.2496V29.8905H163.765V29.2496ZM176.632 24.9044H177.137L178.833 28.8138C179.841 29.321 180.949 29.5968 182.077 29.6214C184.278 29.6214 186.287 28.3396 186.287 26.0452C186.287 24.3019 185.161 23.2637 183.337 22.3088L181.533 21.3731C179.377 20.2515 177.221 18.6621 177.221 16.1049C177.221 13.3234 179.14 11.1764 183.248 11.1764C184.691 11.1911 186.124 11.4267 187.496 11.875L187.925 16.0793H187.381L185.813 12.7082C185.002 12.2542 184.088 12.0159 183.158 12.016C181.079 12.016 179.665 13.2978 179.665 15.0731C179.665 16.6817 180.733 17.6943 182.563 18.6429L184.7 19.758C187.618 21.2705 189 22.6741 189 25.2697C189 28.4742 185.999 30.4673 182.269 30.4673C180.513 30.4941 178.764 30.2321 177.093 29.6919L176.632 24.9044ZM102.67 29.2496L104.724 28.6664L111.064 11.7276L113.182 11.1829L119.727 28.66L121.781 29.2496V29.8905H114.014V29.2496L116.643 28.66L114.788 23.6354H107.814L105.971 28.66L108.601 29.2432V29.8841H102.67V29.2496ZM108.3 22.2959H114.334L111.339 14.1951L108.3 22.2959ZM134.532 21.0142C135.172 20.8539 138.762 19.9375 138.762 16.5279C138.762 13.7913 136.669 11.6699 131.513 11.6699C128.314 11.6699 125.114 11.7404 124.711 11.7533V12.3941L126.816 12.9838V28.66L124.711 29.2496V29.8905H132.159V29.2496L129.715 28.66V21.5717H131.82L137.2 29.9034H141.967V29.2625L139.555 28.6216L134.532 21.0142ZM150.259 12.6825V28.6664L147.7 29.2496V29.8905H155.678V29.2496L153.119 28.6664V12.689H157.425L158.845 15.7524H159.395L158.986 11.7597H144.392L143.982 15.7524H144.533L145.94 12.721L150.259 12.6825ZM13.7299 24.2186L16.2891 -0.000732422H10.9787L13.5379 24.2186H13.7299Z" fill="#8A8FAE"/>
</g>
<defs>
<clipPath id="clip0">
<rect width="189" height="31" fill="white"/>
</clipPath>
</defs>
</svg>
