<svg width="113" height="57" viewBox="0 0 113 57" fill="none" xmlns="http://www.w3.org/2000/svg">
<path d="M56.9437 56.6544C26.0501 56.6544 1 44.1985 1 28.8371C1 13.4762 26.0494 1.01978 56.9437 1.01978C87.8381 1.01978 112.89 13.4762 112.89 28.8371C112.89 44.1985 87.8387 56.6544 56.9437 56.6544Z" fill="white"/>
<path d="M112.599 28.8038C112.599 44.1598 87.621 56.6075 56.8026 56.6075C47.7198 56.6075 39.1428 55.5238 31.5624 53.6061L41.4415 24.4332H46.2789L41.9084 37.4436H48.9898L53.9796 22.5788H42.0622L45.8469 11.2857C46.3206 9.87275 48.2468 7.74379 50.8743 7.74108C52.4286 7.74108 54.3617 8.35578 54.4478 9.1427C52.4642 9.1427 50.8223 10.6434 50.8223 12.2871C50.8223 13.9308 52.4635 15.2859 54.4478 15.2859C55.7253 15.2859 58.6454 14.1448 58.4752 11.6009C58.3685 10.0266 57.2113 6.926 50.875 6.81064C43.5161 6.68445 38.4401 11.8836 36.6254 17.1457C35.5522 20.276 32.8892 27.7444 30.6144 34.5402L24.8002 51.5806C10.4092 46.552 1.00101 38.2251 1.00101 28.8038C1.00101 13.4504 25.9841 1 56.8026 1C87.621 1 112.599 13.4504 112.599 28.8038ZM14.9663 37.4436L17.2828 30.5818C29.1455 30.7242 31.4456 28.4523 33.0867 22.5788C34.2398 18.4606 31.3758 15.2859 26.1919 15.2859H12.0298L11.4098 17.1462H14.5192L7.71535 37.4442H14.9663V37.4436ZM21.7701 17.1457C25.4858 17.0303 26.9192 17.73 25.4858 22.5783C23.6198 28.8222 21.3552 28.7242 17.9027 28.7242L21.7701 17.1457ZM109.457 25.2066C109.457 23.5223 107.868 22.1477 105.918 22.1477C104.342 22.1477 102.116 22.9628 100.526 24.9927L101.302 22.5788H91.6313L91.0113 24.4332H93.6012L89.2314 37.4436H96.3121C96.3121 37.4436 98.9752 29.5966 98.954 29.5799C100.011 27.1519 101.959 24.3233 102.531 24.7072C101.925 27.0063 104.033 28.2654 105.917 28.2654C107.867 28.2654 109.457 26.8969 109.457 25.2066ZM76.6927 30.5818H88.6285C88.7188 30.3343 88.7673 30.1669 88.8151 29.9395C90.1316 25.0062 87.0386 21.865 82.1186 21.865C76.7925 21.865 71.8724 23.2915 69.8191 29.9395C68.4547 34.3398 71.4261 37.8715 76.6927 38.0166C81.4261 38.1423 85.8964 37.1003 88.1268 32.0105H80.8725L80.4398 33.2973C79.5772 35.8709 78.4206 36.1558 77.1431 36.1558C75.8622 36.1558 75.2422 34.8695 75.7788 33.2973L76.6927 30.5818ZM78.0221 26.5811C78.5553 25.0062 79.7494 23.6512 81.3216 23.7199C82.8595 23.7199 83.219 25.0062 82.6825 26.5811L82.0112 28.5812H77.3468L78.0221 26.5811ZM67.2285 35.586H61.1826L71.5949 22.5783H56.3979L55.7773 24.4327H61.8238L51.5811 37.4436H66.6092L67.2285 35.586Z" fill="#8A8FAE" stroke="#8A8FAE" stroke-width="0.3112"/>
</svg>
