<svg width="112" height="60" viewBox="0 0 112 60" fill="none" xmlns="http://www.w3.org/2000/svg">
<path d="M74.4957 23.6376C73.8344 23.1549 72.7842 22.846 71.773 22.8653C70.6644 22.8846 69.6142 23.2321 68.8752 23.8114V16.8987H65.4329V39.452H68.8752V27.6733C68.8752 26.8623 69.5753 25.9547 70.8589 25.8968C71.4229 25.8775 72.2202 26.1285 72.6287 26.7271C73.0565 27.345 73.0371 28.1946 73.0371 29.1022L73.0176 39.452H76.4599V28.9863C76.4599 25.8968 76.0709 24.7962 74.4957 23.6376Z" fill="#8A8FAE"/>
<path d="M46.4907 31.3805C46.4907 33.5818 46.4129 34.1997 46.3934 34.3928C46.2767 35.6286 45.7516 36.9223 44.3125 36.9223C42.8928 36.9223 42.3094 35.532 42.251 34.3348C42.2316 34.3348 42.1538 33.5818 42.1538 31.3805C42.1538 29.1793 42.2316 28.2524 42.251 28.2524C42.251 26.9973 42.9122 25.7615 44.3125 25.7615C45.7322 25.7615 46.374 26.9973 46.3934 28.2331C46.3934 28.2524 46.4907 29.1793 46.4907 31.3805ZM49.8162 28.7158C49.33 23.9078 46.5684 22.8651 44.3125 22.8651C41.1036 22.8651 39.1588 24.8926 38.8087 28.7158C38.7698 29.0248 38.7309 29.5848 38.7115 31.3805C38.692 32.6936 38.7893 33.7749 38.8087 34.0452C39.0227 37.6174 41.0841 39.7994 44.3125 39.7994C47.5408 39.7994 49.6023 37.5788 49.8357 34.0452C49.8551 33.7942 49.9135 32.6936 49.9135 31.3805C49.9135 30.7819 49.8746 29.1793 49.8162 28.7158Z" fill="#8A8FAE"/>
<path d="M82.2164 29.353C82.2359 28.6 82.2358 28.4455 82.2553 28.2331C82.3525 26.8815 82.9554 25.7615 84.3557 25.7615C86.0087 25.7422 86.3977 27.3449 86.456 28.2331C86.4949 28.7158 86.5144 29.0248 86.5144 29.353H82.2164ZM86.4755 33.8714C86.4755 33.8714 86.4755 34.1224 86.4366 34.4314C86.3393 35.2231 86.0282 36.9223 84.3557 36.9223C82.9165 36.9223 82.372 35.6286 82.2748 34.3542C82.2553 33.9873 82.1969 33.5818 82.1969 32.1915H89.8789C89.8789 32.1915 89.8789 31.0523 89.8594 30.3764C89.8594 30.1061 89.84 29.662 89.7816 28.7158C89.665 27.2676 89.1204 25.6843 88.2841 24.6802C87.3312 23.483 85.9698 22.8651 84.3557 22.8651C81.244 22.8651 79.2992 24.8733 78.9297 28.7158C78.8908 29.0634 78.8325 29.5461 78.8325 31.3805C78.8325 32.6936 78.9103 33.7942 78.9297 34.0452C79.1242 37.5595 81.2246 39.7994 84.3557 39.7994C87.4673 39.7994 89.5483 37.6174 89.7816 33.8714H86.4755Z" fill="#8A8FAE"/>
<path d="M27.8208 5.39027H83.7918L105.184 30.2607L83.7918 54.7835H27.8208L6.33086 30.1834L27.8208 5.39027ZM85.1337 2.62903H26.4594L2.65521 30.0869L26.4789 57.3709H85.1337L108.86 30.1834L85.1337 2.62903Z" fill="#8A8FAE"/>
<path d="M28.5208 19.9688H30.135C31.9047 19.9688 32.8771 20.8956 32.916 22.5562C32.916 22.6914 32.9355 22.8266 32.9355 23.0776C32.9355 23.3865 32.9355 23.4831 32.916 23.6182C32.8188 24.603 32.3715 26.3215 30.31 26.3215H28.5208V19.9688ZM36.6695 38.0423L36.3194 32.5198C36.1638 30.0482 35.522 28.5807 34.219 27.8277C35.1525 27.2677 36.3583 25.8967 36.3389 23.0196C36.3389 18.6557 33.5967 17.111 30.3684 17.0724H25.1174V39.4519H28.5014L28.5208 29.2179H30.4073C31.4963 29.2179 32.7216 30.1641 32.916 32.8288L33.2661 38.0616C33.305 38.8147 33.4411 39.4519 33.4411 39.4519H36.8445C36.8445 39.4519 36.6889 38.834 36.6695 38.0423Z" fill="#8A8FAE"/>
<path d="M59.8709 33.7169C59.8709 33.968 59.8514 34.1804 59.832 34.3348C59.7347 35.59 59.3069 36.9223 57.7511 36.9223C56.3314 36.9223 55.7674 35.4741 55.6507 34.4121C55.5923 33.7749 55.6118 33.2728 55.5923 31.3805C55.5729 29.1793 55.6507 28.6 55.6896 28.2524C55.8063 26.8428 56.3508 25.7615 57.7511 25.7615C59.2097 25.7422 59.8125 26.9973 59.832 28.2331C59.832 28.2524 59.8709 28.5421 59.8903 29.1986H63.2937C63.2937 28.9669 63.2742 28.7738 63.2742 28.6772C62.8853 24.0044 60.007 22.8651 57.7511 22.8651C54.5422 22.8651 52.5974 24.8926 52.2473 28.7158C52.2084 29.0248 52.1695 29.5848 52.1501 31.3805C52.1306 32.6936 52.2279 33.7749 52.2473 34.0452C52.4612 37.6174 54.5227 39.7994 57.7511 39.7994C61.0961 39.8187 62.9436 37.7912 63.2742 34.0452C63.2742 33.91 63.2937 33.8135 63.2937 33.7169H59.8709Z" fill="#8A8FAE"/>
</svg>
