<svg width="173" height="37" viewBox="0 0 173 37" fill="none" xmlns="http://www.w3.org/2000/svg">
<g clip-path="url(#clip0)">
<path d="M123.87 6.44519H120.36V30.5487H123.87V6.44519Z" fill="#8A8FAE"/>
<path fill-rule="evenodd" clip-rule="evenodd" d="M82.0751 9.50556C77.3086 9.50556 73.5124 13.5208 73.5124 18.5827C73.5124 23.5405 77.3452 27.4822 82.2155 27.4822C87.0492 27.4822 90.882 23.5344 90.882 18.5827C90.882 13.3861 87.1225 9.50556 82.0751 9.50556ZM82.2155 6.23096C89.0266 6.23096 94.4279 11.6478 94.4279 18.5459C94.4279 25.2726 88.9168 30.763 82.2155 30.763C75.4654 30.763 69.9604 25.2788 69.9604 18.5459C69.9665 11.6784 75.3678 6.23096 82.2155 6.23096Z" fill="#8A8FAE"/>
<path fill-rule="evenodd" clip-rule="evenodd" d="M8.21473 9.1689C6.01149 9.1689 4.1012 10.6868 4.36974 12.976C4.4857 13.9492 4.96785 14.5613 5.90773 15.204C6.17017 15.3815 6.71335 15.5957 7.3969 15.8405C8.08656 16.0854 8.92269 16.3669 9.78324 16.673C11.5043 17.2789 13.2681 17.9767 14.0188 18.6867C15.3005 19.8925 16.0573 21.4471 16.0573 23.2956C16.0573 27.8433 12.4076 30.8854 8.09877 30.8854C3.74722 30.8854 0.103631 27.8862 -0.00622559 23.4731H3.38103C3.82045 26.4845 5.71243 27.825 8.09877 27.825C10.3081 27.825 12.5846 26.4294 12.5846 23.822C12.5846 22.4265 11.901 21.3615 10.6499 20.6698C10.3203 20.4862 9.83206 20.2964 9.26447 20.1006C8.69687 19.8986 8.04384 19.6905 7.37249 19.4701C6.0359 19.0294 4.63828 18.5459 3.74722 18.0256C2.03223 17.0157 0.927557 15.204 0.927557 13.1229C0.927557 9.06485 4.02186 6.10852 8.37951 6.10852C11.8156 6.10852 15.3432 8.78329 15.5629 12.6577H12.1146C11.9438 10.5644 10.1738 9.1689 8.21473 9.1689Z" fill="#8A8FAE"/>
<path fill-rule="evenodd" clip-rule="evenodd" d="M102.637 6.45131L113.989 6.44519V9.67695H103.808V17.5054H113.989V20.731H103.808V30.5487H100.299V8.78944C100.305 7.49184 101.343 6.45131 102.637 6.45131Z" fill="#8A8FAE"/>
<path fill-rule="evenodd" clip-rule="evenodd" d="M49.057 12.064L49.0387 30.5487H45.5294L45.5416 8.67314C45.5416 7.32657 46.6341 6.23096 47.9768 6.23096C48.8495 6.23096 49.5636 6.5982 50.0519 7.38778C53.5307 13.0495 59.939 23.7486 60.6347 24.9238L60.6591 6.44518H64.1685L64.1563 28.3147C64.1563 29.6612 63.0638 30.763 61.7211 30.763C60.8483 30.763 60.1343 30.3957 59.646 29.6C56.155 23.9444 49.7528 13.2392 49.057 12.064Z" fill="#8A8FAE"/>
<path fill-rule="evenodd" clip-rule="evenodd" d="M29.7406 10.8766L26.2008 20.6086L33.2805 20.6147L29.7406 10.8766ZM25.0473 23.7608L22.5633 30.5487H18.8953L27.5191 7.74278C27.8487 6.86139 28.7458 6.23096 29.7406 6.23096C30.7354 6.23096 31.6326 6.86139 31.9561 7.74278L40.5859 30.5487H36.9179L34.434 23.7547L25.0473 23.7608Z" fill="#8A8FAE"/>
<path d="M172.146 12.9087C166.201 4.14988 159.543 11.8437 152.847 10.8888C146.213 9.94624 145.981 0.820182 154.147 0.0428453C154.343 0.0183623 154.544 0.00612076 154.745 0C162.911 0.0795699 169.796 5.4842 172.146 12.9087Z" fill="#8A8FAE"/>
<path fill-rule="evenodd" clip-rule="evenodd" d="M172.31 13.429C172.768 15.0388 173.006 16.7403 173.006 18.5031C173.006 28.7187 164.748 37 154.562 37C150.083 37 145.987 35.3964 142.795 32.74C144.053 33.2419 145.542 33.45 146.811 33.4561C163.516 33.5479 156.381 11.2622 172.31 13.429Z" fill="#8A8FAE"/>
<path fill-rule="evenodd" clip-rule="evenodd" d="M147.818 31.2098C145.505 32.6298 141.837 32.2013 139.286 28.7064C138.719 27.9291 138.249 27.1456 137.858 26.356C136.741 23.9689 136.112 21.3003 136.112 18.4908C136.112 17.7441 136.155 17.0035 136.247 16.2812C140.269 21.7226 144.901 21.5512 147.843 23.3201C149.155 24.1403 150.022 25.597 150.022 27.2558C150.015 28.9206 149.131 30.4018 147.818 31.2098Z" fill="#8A8FAE"/>
</g>
<defs>
<clipPath id="clip0">
<rect width="173" height="37" fill="white"/>
</clipPath>
</defs>
</svg>
