<svg width="133" height="47" viewBox="0 0 133 47" fill="none" xmlns="http://www.w3.org/2000/svg">
<path fill-rule="evenodd" clip-rule="evenodd" d="M0 32.7118C0 32.7118 22.9811 0.822018 66.3277 0.822018C109.671 0.822018 133 32.6917 133 32.6917L123.585 39.2221C123.585 39.2221 122.46 36.3533 119.903 32.227C119.896 33.2804 119.76 33.9712 119.76 33.9712C118.099 47.3617 105.377 46.999 105.377 46.999H27.5408C27.5408 46.999 14.985 47.3216 13.3204 33.922C13.3204 33.922 13.1798 33.182 13.1692 32.1213C10.5589 36.3533 9.41989 39.3114 9.41989 39.3114L0 32.7118ZM105.214 44.0157C116.139 44.0157 117.835 33.7691 117.835 33.7691C118.241 31.1118 117.9 29.158 116.991 27.9605C109.129 17.2218 93.4319 2.59363 66.2937 2.59363C39.3839 2.59363 23.8189 17.014 15.9528 27.7509C15.1355 29.0504 14.6239 30.9295 15.0441 33.6743C15.0441 33.6743 16.5821 44.0157 27.5049 44.0157H105.214Z" fill="#8A8FAE"/>
<path d="M43.6313 22.5984L44.9285 19.7169H28.3052L27.001 22.5984H33.4415L26.7742 36.6561H31.079L37.7427 22.5984H43.6313Z" fill="#8A8FAE"/>
<path d="M103.663 31.9928C102.427 33.7971 100.676 34.7121 99.7501 34.0304C98.8255 33.3469 99.0804 31.333 100.316 29.5286C101.552 27.7243 103.306 26.8075 104.229 27.4892C105.157 28.1745 104.899 30.1884 103.663 31.9928ZM89.1138 31.9235C87.8711 33.7315 86.1203 34.6428 85.1958 33.9612C84.2764 33.2795 84.5225 31.2656 85.7618 29.4576C87.0028 27.6532 88.757 26.7401 89.6763 27.4199C90.5956 28.1016 90.3495 30.1192 89.1138 31.9235ZM71.0334 30.6112C71.0334 30.6112 71.8385 27.8099 74.4435 26.6891C74.4435 26.6891 75.1852 26.4284 75.5825 26.7656C75.5825 26.7656 76.1397 27.3215 75.477 28.3512C74.8829 29.2698 73.4556 30.932 71.907 31.4916C71.907 31.4916 70.5025 32.1276 71.0334 30.6112ZM45.6529 31.9235C44.4102 33.7315 42.663 34.6428 41.7401 33.9612C40.8155 33.2795 41.0634 31.2656 42.2991 29.4576C43.5383 27.6532 45.2926 26.7401 46.2154 27.4199C47.1435 28.1016 46.8851 30.1192 45.6529 31.9235ZM107.804 34.1179C107.804 34.1179 106.966 34.5225 106.605 34.1325C106.245 33.7461 106.567 33.0262 106.567 33.0262L110.079 25.3695H106.498L105.95 26.392C103.858 24.4837 99.9241 25.4697 97.4878 28.1107C96.0799 29.6325 95.2836 31.4387 95.1764 33.0098C94.7774 33.2832 94.1112 33.7005 93.2534 34.0505C93.2534 34.0505 92.4132 34.4587 92.0493 34.065C91.689 33.6787 92.0142 32.9551 92.0142 32.9551L98.249 19.6502H94.6719L91.3972 26.3227C89.3054 24.4181 85.375 25.4005 82.9335 28.0414C82.4396 28.5827 82.0247 29.1495 81.6802 29.7328L81.6837 29.72C81.6609 29.7674 81.6363 29.8184 81.6117 29.8622C81.5326 30.0007 81.457 30.1337 81.392 30.2686C79.4461 33.7643 77.0256 34.3439 77.0256 34.3439C71.9105 35.9295 71.327 33.3324 71.327 33.3324C77.0555 31.1362 79.2088 28.5353 79.0102 26.5451C78.8168 24.553 76.1802 24.4491 76.1802 24.4491C71.8473 24.1794 68.0962 27.3215 67.1856 30.3962C66.9114 31.333 66.8253 32.2953 66.994 33.172C65.2591 34.1307 64.2607 34.2837 64.2607 34.2837C62.8193 34.7558 62.64 34.0468 62.4695 33.6149C62.2938 33.172 61.6416 29.3464 61.6416 29.3464L67.7253 25.22H64.0041L59.4339 28.1581C58.4038 28.6009 58.8028 27.4782 58.8028 27.4782L62.5346 19.6448H58.9505L52.8967 32.3627C52.2006 32.7965 50.8067 33.6349 49.7907 34.0505C49.7907 34.0505 48.9523 34.4587 48.5919 34.065C48.2246 33.6787 48.5515 32.9551 48.5515 32.9551L52.067 25.3002H48.4847L47.9363 26.3227C45.8463 24.4181 41.9106 25.4005 39.4744 28.0414C37.0328 30.6841 36.4106 34.1689 38.0805 35.8257C39.4146 37.1507 41.8157 36.9028 43.9708 35.3992C43.9708 35.3992 44.5139 34.9144 44.8092 35.4812C45.1133 36.0717 46.3473 37.4058 49.1896 36.243C50.1019 35.873 50.9192 35.4466 51.6206 35.0456L50.8788 36.6021H54.4559L56.2506 32.8421L57.8097 31.8123C57.8097 31.8123 58.2878 31.4223 58.4759 32.2552C58.4759 32.2552 59.2511 35.421 59.5499 35.8293C59.8522 36.243 60.4499 37.178 62.967 36.4289C64.8953 35.8512 66.6917 35.144 67.6427 34.723C68.4846 35.9295 70.1 36.7442 72.7613 36.7442C76.6846 36.7442 79.4601 34.8014 80.6308 33.7898C80.7152 34.5954 81.014 35.3026 81.5431 35.8257C82.8755 37.1507 85.2749 36.9028 87.4281 35.3992C87.4281 35.3992 87.973 34.9144 88.2719 35.4812C88.5777 36.0717 89.8064 37.4058 92.6522 36.243C93.9583 35.709 94.8301 35.1987 95.4031 34.8014C95.5578 35.2206 95.7846 35.5869 96.0922 35.8967C97.4316 37.2163 99.8274 36.9721 101.981 35.4648C101.981 35.4648 102.527 34.9782 102.826 35.5504C103.127 36.141 104.364 37.4769 107.203 36.3105C110.049 35.1495 110.863 34.096 110.863 34.096L110.146 32.7838C110.045 32.8421 109.17 33.562 107.804 34.1179" fill="#8A8FAE"/>
</svg>
