<svg width="150" height="37" viewBox="0 0 150 37" fill="none" xmlns="http://www.w3.org/2000/svg">
<path d="M121.925 4.63989H116.3L106.75 24.3924L97.2249 4.63989H91.7C97.6749 17.0306 106.825 36.0055 106.825 36.0055L121.925 4.63989Z" fill="#8A8FAE"/>
<path d="M78.2748 9.30617C82.9498 9.30617 86.8748 12.6501 87.9498 17.1605H68.5998C69.6748 12.676 73.5998 9.30617 78.2748 9.30617ZM78.2748 29.9659C73.5998 29.9659 69.6748 26.622 68.5998 22.1375H93.0248V19.649C93.0248 11.2244 86.3998 4.3551 78.2748 4.3551C70.1498 4.3551 63.5248 11.2244 63.5248 19.649C63.5248 28.0736 70.1498 34.9429 78.2748 34.9429C83.8748 34.9429 88.8498 31.7286 91.3498 26.7775H85.4998C83.6498 28.7735 81.0748 29.9659 78.2748 29.9659Z" fill="#8A8FAE"/>
<path d="M135.225 30.0946C129.725 30.0946 125.25 25.4546 125.25 19.7777C125.25 14.0749 129.725 9.46084 135.225 9.46084C140.675 9.46084 145.1 13.9972 145.175 19.6222V19.9592C145.1 25.5324 140.675 30.0946 135.225 30.0946ZM150 19.7518C150 19.7 150 19.6481 150 19.5704V4.71715H145.2V8.47581C142.575 5.98732 139.075 4.43201 135.25 4.43201C127.125 4.43201 120.5 11.3013 120.5 19.7259C120.5 28.1505 127.125 35.0198 135.25 35.0198C139.1 35.0198 142.575 33.4904 145.2 30.976V34.7865H150V19.8814C149.975 19.8814 150 19.8037 150 19.7518Z" fill="#8A8FAE"/>
<path d="M45.5002 9.30617C50.1752 9.30617 54.1002 12.6501 55.1752 17.1605H35.8251C36.9251 12.676 40.8502 9.30617 45.5002 9.30617ZM45.5002 29.9659C40.8252 29.9659 36.9001 26.622 35.8251 22.1375H60.2502V19.649C60.2502 11.2244 53.6252 4.3551 45.5002 4.3551C37.3502 4.3551 30.7501 11.2244 30.7501 19.649C30.7501 28.0736 37.3751 34.9429 45.5002 34.9429C51.1002 34.9429 56.0502 31.7286 58.5502 26.7775H52.7002C50.9002 28.7735 48.3252 29.9659 45.5002 29.9659Z" fill="#8A8FAE"/>
<path d="M0 0H5.92502L17.2001 23.5112L28.4001 0H34.2251L17.15 35.9537L0 0Z" fill="#8A8FAE"/>
<path d="M9.40002 0.0520482L17.125 16.0199L24.8251 0.0520482C24.8251 0.0520482 9.40002 0.0261263 9.40002 0.0520482Z" fill="#8A8FAE"/>
</svg>
