<svg width="414" height="479" viewBox="0 0 414 479" fill="none" xmlns="http://www.w3.org/2000/svg">
<path d="M271.943 1H1V195.74H271.943V1Z" fill="#6B86F1"/>
<path d="M262.174 10.7695H10.77V185.971H262.174V10.7695Z" fill="#6280F3"/>
<path d="M262.174 10.7695H10.77V185.971H262.174V10.7695Z" stroke="#97ACFB" stroke-width="2" stroke-miterlimit="10" stroke-linecap="round" stroke-linejoin="round"/>
<path d="M10.6397 10.7696L1.326 1.45593" stroke="#97ACFB" stroke-width="2" stroke-miterlimit="10" stroke-linecap="round" stroke-linejoin="round"/>
<path d="M262.174 10.7696L271.422 1.45593" stroke="#97ACFB" stroke-width="2" stroke-miterlimit="10" stroke-linecap="round" stroke-linejoin="round"/>
<mask id="path-6-inside-1" fill="white">
<path d="M232.865 81.8922V157.118C232.865 159.398 231.237 161.221 229.283 161.221H26.7268C24.7078 161.221 23.1447 159.398 23.1447 157.118V38.906C23.1447 36.6264 24.7729 34.8027 26.7268 34.8027H229.218C231.237 34.8027 232.8 36.6264 232.8 38.906V53.6906"/>
</mask>
<path d="M232.865 81.8922V157.118C232.865 159.398 231.237 161.221 229.283 161.221H26.7268C24.7078 161.221 23.1447 159.398 23.1447 157.118V38.906C23.1447 36.6264 24.7729 34.8027 26.7268 34.8027H229.218C231.237 34.8027 232.8 36.6264 232.8 38.906V53.6906" fill="#7891F3"/>
<path d="M231.865 81.8922V157.118H233.865V81.8922H231.865ZM231.865 157.118C231.865 158.97 230.567 160.221 229.283 160.221V162.221C231.906 162.221 233.865 159.825 233.865 157.118H231.865ZM229.283 160.221H26.7268V162.221H229.283V160.221ZM26.7268 160.221C25.3882 160.221 24.1447 158.983 24.1447 157.118H22.1447C22.1447 159.812 24.0274 162.221 26.7268 162.221V160.221ZM24.1447 157.118V38.906H22.1447V157.118H24.1447ZM24.1447 38.906C24.1447 37.0537 25.4424 35.8027 26.7268 35.8027V33.8027C24.1035 33.8027 22.1447 36.199 22.1447 38.906H24.1447ZM26.7268 35.8027H229.218V33.8027H26.7268V35.8027ZM229.218 35.8027C230.557 35.8027 231.8 37.0412 231.8 38.906H233.8C233.8 36.2116 231.917 33.8027 229.218 33.8027V35.8027ZM231.8 38.906V53.6906H233.8V38.906H231.8Z" fill="#97ACFB" mask="url(#path-6-inside-1)"/>
<path d="M232.865 81.8922V157.118C232.865 159.398 231.237 161.221 229.283 161.221H26.7268C24.7078 161.221 23.1447 159.398 23.1447 157.118V38.906C23.1447 36.6264 24.7729 34.8027 26.7268 34.8027H229.218C231.237 34.8027 232.8 36.6264 232.8 38.906V53.6906" stroke="#97ACFB" stroke-width="2" stroke-miterlimit="10" stroke-linecap="round" stroke-linejoin="round"/>
<path d="M53.1046 35.1936V160.831" stroke="#97ACFB" stroke-width="2" stroke-miterlimit="10" stroke-linecap="round" stroke-linejoin="round"/>
<path d="M198.346 114.327H23.4703" stroke="#97ACFB"/>
<path d="M198.346 114.327H23.4703" stroke="#97ACFB" stroke-width="2" stroke-miterlimit="10" stroke-linecap="round" stroke-linejoin="round"/>
<path d="M232.865 114.327H197.89" stroke="#97ACFB"/>
<path d="M232.865 114.327H197.89" stroke="#97ACFB" stroke-width="2" stroke-miterlimit="10" stroke-linecap="round" stroke-linejoin="round"/>
<path d="M232.018 137.774H23.4703" stroke="#97ACFB"/>
<path d="M232.018 137.774H23.4703" stroke="#97ACFB" stroke-width="2" stroke-miterlimit="10" stroke-linecap="round" stroke-linejoin="round"/>
<path d="M83.0649 35.1936V160.831" stroke="#97ACFB" stroke-width="2" stroke-miterlimit="10" stroke-linecap="round" stroke-linejoin="round"/>
<path d="M113.025 35.1936V160.831" stroke="#97ACFB" stroke-width="2" stroke-miterlimit="10" stroke-linecap="round" stroke-linejoin="round"/>
<path d="M142.985 35.1936V160.831" stroke="#97ACFB" stroke-width="2" stroke-miterlimit="10" stroke-linecap="round" stroke-linejoin="round"/>
<path d="M172.945 35.1936V160.831" stroke="#97ACFB" stroke-width="2" stroke-miterlimit="10" stroke-linecap="round" stroke-linejoin="round"/>
<path d="M202.905 111.787V160.765" stroke="#97ACFB" stroke-width="2" stroke-miterlimit="10" stroke-linecap="round" stroke-linejoin="round"/>
<path d="M202.905 35.1284V84.3671" stroke="#97ACFB" stroke-width="2" stroke-miterlimit="10" stroke-linecap="round" stroke-linejoin="round"/>
<path d="M198.346 90.8802H23.4703" stroke="#97ACFB"/>
<path d="M198.346 90.8802H23.4703" stroke="#97ACFB" stroke-width="2" stroke-miterlimit="10" stroke-linecap="round" stroke-linejoin="round"/>
<path d="M232.018 90.8802H222.444" stroke="#97ACFB"/>
<path d="M232.018 90.8802H222.444" stroke="#97ACFB" stroke-width="2" stroke-miterlimit="10" stroke-linecap="round" stroke-linejoin="round"/>
<path d="M224.268 67.4332H23.4703" stroke="#97ACFB"/>
<path d="M224.268 67.4332H23.4703" stroke="#97ACFB" stroke-width="2" stroke-miterlimit="10" stroke-linecap="round" stroke-linejoin="round"/>
<path d="M232.018 43.9862H23.4703" stroke="#97ACFB"/>
<path d="M232.018 43.9862H23.4703" stroke="#97ACFB" stroke-width="2" stroke-miterlimit="10" stroke-linecap="round" stroke-linejoin="round"/>
<path d="M232.018 43.9862H23.4703" stroke="#97ACFB"/>
<path d="M232.018 43.9862H23.4703" stroke="#97ACFB" stroke-width="2" stroke-miterlimit="10" stroke-linecap="round" stroke-linejoin="round"/>
<path d="M32.9143 39.427H42.8793" stroke="#97ACFB" stroke-width="2" stroke-miterlimit="10" stroke-linecap="round" stroke-linejoin="round"/>
<path d="M62.8742 39.427H72.8392" stroke="#97ACFB" stroke-width="2" stroke-miterlimit="10" stroke-linecap="round" stroke-linejoin="round"/>
<path d="M92.7691 39.427H102.734" stroke="#97ACFB" stroke-width="2" stroke-miterlimit="10" stroke-linecap="round" stroke-linejoin="round"/>
<path d="M122.664 39.427H132.629" stroke="#97ACFB" stroke-width="2" stroke-miterlimit="10" stroke-linecap="round" stroke-linejoin="round"/>
<path d="M152.559 39.427H162.524" stroke="#97ACFB" stroke-width="2" stroke-miterlimit="10" stroke-linecap="round" stroke-linejoin="round"/>
<path d="M182.454 39.427H192.484" stroke="#97ACFB" stroke-width="2" stroke-miterlimit="10" stroke-linecap="round" stroke-linejoin="round"/>
<path d="M212.414 39.427H222.379" stroke="#97ACFB" stroke-width="2" stroke-miterlimit="10" stroke-linecap="round" stroke-linejoin="round"/>
<path d="M56.7098 87.275V85.3672H79.4595V87.275H56.7098Z" fill="#7891F3" stroke="#97ACFB" stroke-width="2"/>
<path d="M86.6701 110.722V108.814H109.42V110.722H86.6701Z" fill="#7891F3" stroke="#97ACFB" stroke-width="2"/>
<path d="M116.63 63.828V61.9202H139.38V63.828H116.63Z" fill="#7891F3" stroke="#97ACFB" stroke-width="2"/>
<path d="M146.59 87.275V85.3672H169.34V87.275H146.59Z" fill="#7891F3" stroke="#97ACFB" stroke-width="2"/>
<path d="M56.7098 134.169V132.261H79.4595V134.169H56.7098Z" fill="#7891F3" stroke="#97ACFB" stroke-width="2"/>
<path d="M89.2293 48.871C89.2293 49.5777 88.6564 50.1506 87.9497 50.1506C87.243 50.1506 86.6701 49.5777 86.6701 48.871C86.6701 48.1643 87.243 47.5914 87.9497 47.5914C88.6564 47.5914 89.2293 48.1643 89.2293 48.871Z" fill="#7891F3" stroke="#97ACFB" stroke-width="2"/>
<path d="M119.189 48.871C119.189 49.5777 118.616 50.1506 117.91 50.1506C117.203 50.1506 116.63 49.5777 116.63 48.871C116.63 48.1643 117.203 47.5914 117.91 47.5914C118.616 47.5914 119.189 48.1643 119.189 48.871Z" fill="#7891F3" stroke="#97ACFB" stroke-width="2"/>
<path d="M149.149 48.871C149.149 49.5777 148.577 50.1506 147.87 50.1506C147.163 50.1506 146.59 49.5777 146.59 48.871C146.59 48.1643 147.163 47.5914 147.87 47.5914C148.577 47.5914 149.149 48.1643 149.149 48.871Z" fill="#7891F3" stroke="#97ACFB" stroke-width="2"/>
<path d="M179.109 48.871C179.109 49.5777 178.536 50.1506 177.83 50.1506C177.123 50.1506 176.55 49.5777 176.55 48.871C176.55 48.1643 177.123 47.5914 177.83 47.5914C178.536 47.5914 179.109 48.1643 179.109 48.871Z" fill="#7891F3" stroke="#97ACFB" stroke-width="2"/>
<path d="M209.07 48.871C209.07 49.5777 208.497 50.1506 207.79 50.1506C207.083 50.1506 206.51 49.5777 206.51 48.871C206.51 48.1643 207.083 47.5914 207.79 47.5914C208.497 47.5914 209.07 48.1643 209.07 48.871Z" fill="#7891F3" stroke="#97ACFB" stroke-width="2"/>
<path d="M29.3091 72.3179C29.3091 73.0246 28.7362 73.5975 28.0295 73.5975C27.3228 73.5975 26.7499 73.0246 26.7499 72.3179C26.7499 71.6112 27.3228 71.0383 28.0295 71.0383C28.7362 71.0383 29.3091 71.6112 29.3091 72.3179Z" fill="#7891F3" stroke="#97ACFB" stroke-width="2"/>
<path d="M59.269 72.3179C59.269 73.0246 58.6961 73.5975 57.9894 73.5975C57.2827 73.5975 56.7098 73.0246 56.7098 72.3179C56.7098 71.6112 57.2827 71.0383 57.9894 71.0383C58.6961 71.0383 59.269 71.6112 59.269 72.3179Z" fill="#7891F3" stroke="#97ACFB" stroke-width="2"/>
<path d="M89.2293 72.3179C89.2293 73.0246 88.6564 73.5975 87.9497 73.5975C87.243 73.5975 86.6701 73.0246 86.6701 72.3179C86.6701 71.6112 87.243 71.0383 87.9497 71.0383C88.6564 71.0383 89.2293 71.6112 89.2293 72.3179Z" fill="#7891F3" stroke="#97ACFB" stroke-width="2"/>
<path d="M119.189 72.3179C119.189 73.0246 118.616 73.5975 117.91 73.5975C117.203 73.5975 116.63 73.0246 116.63 72.3179C116.63 71.6112 117.203 71.0383 117.91 71.0383C118.616 71.0383 119.189 71.6112 119.189 72.3179Z" fill="#7891F3" stroke="#97ACFB" stroke-width="2"/>
<path d="M149.149 72.3179C149.149 73.0246 148.577 73.5975 147.87 73.5975C147.163 73.5975 146.59 73.0246 146.59 72.3179C146.59 71.6112 147.163 71.0383 147.87 71.0383C148.577 71.0383 149.149 71.6112 149.149 72.3179Z" fill="#7891F3" stroke="#97ACFB" stroke-width="2"/>
<path d="M179.109 72.3179C179.109 73.0246 178.536 73.5975 177.83 73.5975C177.123 73.5975 176.55 73.0246 176.55 72.3179C176.55 71.6112 177.123 71.0383 177.83 71.0383C178.536 71.0383 179.109 71.6112 179.109 72.3179Z" fill="#7891F3" stroke="#97ACFB" stroke-width="2"/>
<path d="M209.07 72.3179C209.07 73.0246 208.497 73.5975 207.79 73.5975C207.083 73.5975 206.51 73.0246 206.51 72.3179C206.51 71.6112 207.083 71.0383 207.79 71.0383C208.497 71.0383 209.07 71.6112 209.07 72.3179Z" fill="#7891F3" stroke="#97ACFB" stroke-width="2"/>
<path d="M29.3091 95.765C29.3091 96.4717 28.7362 97.0446 28.0295 97.0446C27.3228 97.0446 26.7499 96.4717 26.7499 95.765C26.7499 95.0584 27.3228 94.4855 28.0295 94.4855C28.7362 94.4855 29.3091 95.0584 29.3091 95.765Z" fill="#7891F3" stroke="#97ACFB" stroke-width="2"/>
<path d="M59.269 95.765C59.269 96.4717 58.6961 97.0446 57.9894 97.0446C57.2827 97.0446 56.7098 96.4717 56.7098 95.765C56.7098 95.0584 57.2827 94.4855 57.9894 94.4855C58.6961 94.4855 59.269 95.0584 59.269 95.765Z" fill="#7891F3" stroke="#97ACFB" stroke-width="2"/>
<path d="M89.2293 95.765C89.2293 96.4717 88.6564 97.0446 87.9497 97.0446C87.243 97.0446 86.6701 96.4717 86.6701 95.765C86.6701 95.0584 87.243 94.4855 87.9497 94.4855C88.6564 94.4855 89.2293 95.0584 89.2293 95.765Z" fill="#7891F3" stroke="#97ACFB" stroke-width="2"/>
<path d="M119.189 95.765C119.189 96.4717 118.616 97.0446 117.91 97.0446C117.203 97.0446 116.63 96.4717 116.63 95.765C116.63 95.0584 117.203 94.4855 117.91 94.4855C118.616 94.4855 119.189 95.0584 119.189 95.765Z" fill="#7891F3" stroke="#97ACFB" stroke-width="2"/>
<path d="M149.149 95.765C149.149 96.4717 148.577 97.0446 147.87 97.0446C147.163 97.0446 146.59 96.4717 146.59 95.765C146.59 95.0584 147.163 94.4855 147.87 94.4855C148.577 94.4855 149.149 95.0584 149.149 95.765Z" fill="#7891F3" stroke="#97ACFB" stroke-width="2"/>
<path d="M179.109 95.765C179.109 96.4717 178.536 97.0446 177.83 97.0446C177.123 97.0446 176.55 96.4717 176.55 95.765C176.55 95.0584 177.123 94.4855 177.83 94.4855C178.536 94.4855 179.109 95.0584 179.109 95.765Z" fill="#7891F3" stroke="#97ACFB" stroke-width="2"/>
<path d="M29.3091 119.212C29.3091 119.919 28.7362 120.492 28.0295 120.492C27.3228 120.492 26.7499 119.919 26.7499 119.212C26.7499 118.505 27.3228 117.932 28.0295 117.932C28.7362 117.932 29.3091 118.505 29.3091 119.212Z" fill="#7891F3" stroke="#97ACFB" stroke-width="2"/>
<path d="M59.269 119.212C59.269 119.919 58.6961 120.492 57.9894 120.492C57.2827 120.492 56.7098 119.919 56.7098 119.212C56.7098 118.505 57.2827 117.932 57.9894 117.932C58.6961 117.932 59.269 118.505 59.269 119.212Z" fill="#7891F3" stroke="#97ACFB" stroke-width="2"/>
<path d="M89.2293 119.212C89.2293 119.919 88.6564 120.492 87.9497 120.492C87.243 120.492 86.6701 119.919 86.6701 119.212C86.6701 118.505 87.243 117.932 87.9497 117.932C88.6564 117.932 89.2293 118.505 89.2293 119.212Z" fill="#7891F3" stroke="#97ACFB" stroke-width="2"/>
<path d="M119.189 119.212C119.189 119.919 118.616 120.492 117.91 120.492C117.203 120.492 116.63 119.919 116.63 119.212C116.63 118.505 117.203 117.932 117.91 117.932C118.616 117.932 119.189 118.505 119.189 119.212Z" fill="#7891F3" stroke="#97ACFB" stroke-width="2"/>
<path d="M149.149 119.212C149.149 119.919 148.577 120.492 147.87 120.492C147.163 120.492 146.59 119.919 146.59 119.212C146.59 118.505 147.163 117.932 147.87 117.932C148.577 117.932 149.149 118.505 149.149 119.212Z" fill="#7891F3" stroke="#97ACFB" stroke-width="2"/>
<path d="M179.109 119.212C179.109 119.919 178.536 120.492 177.83 120.492C177.123 120.492 176.55 119.919 176.55 119.212C176.55 118.505 177.123 117.932 177.83 117.932C178.536 117.932 179.109 118.505 179.109 119.212Z" fill="#7891F3" stroke="#97ACFB" stroke-width="2"/>
<path d="M209.07 119.212C209.07 119.919 208.497 120.492 207.79 120.492C207.083 120.492 206.51 119.919 206.51 119.212C206.51 118.505 207.083 117.932 207.79 117.932C208.497 117.932 209.07 118.505 209.07 119.212Z" fill="#7891F3" stroke="#97ACFB" stroke-width="2"/>
<path d="M29.3091 142.659C29.3091 143.366 28.7362 143.939 28.0295 143.939C27.3228 143.939 26.7499 143.366 26.7499 142.659C26.7499 141.952 27.3228 141.379 28.0295 141.379C28.7362 141.379 29.3091 141.952 29.3091 142.659Z" fill="#7891F3" stroke="#97ACFB" stroke-width="2"/>
<path d="M59.269 142.659C59.269 143.366 58.6961 143.939 57.9894 143.939C57.2827 143.939 56.7098 143.366 56.7098 142.659C56.7098 141.952 57.2827 141.379 57.9894 141.379C58.6961 141.379 59.269 141.952 59.269 142.659Z" fill="#7891F3" stroke="#97ACFB" stroke-width="2"/>
<path d="M89.2293 142.659C89.2293 143.366 88.6564 143.939 87.9497 143.939C87.243 143.939 86.6701 143.366 86.6701 142.659C86.6701 141.952 87.243 141.379 87.9497 141.379C88.6564 141.379 89.2293 141.952 89.2293 142.659Z" fill="#7891F3" stroke="#97ACFB" stroke-width="2"/>
<path d="M119.189 142.659C119.189 143.366 118.616 143.939 117.91 143.939C117.203 143.939 116.63 143.366 116.63 142.659C116.63 141.952 117.203 141.379 117.91 141.379C118.616 141.379 119.189 141.952 119.189 142.659Z" fill="#7891F3" stroke="#97ACFB" stroke-width="2"/>
<path d="M233.516 55.7097C227.003 55.7097 221.337 53.7558 221.141 60.2688C220.946 66.7819 214.107 90.2289 223.747 92.8341C234.754 95.8301 235.014 84.6277 241.332 86.3211C247.519 87.9493 248.692 81.7619 247.845 72.6437C246.933 63.5254 245.63 55.7097 233.516 55.7097Z" fill="#6280F3"/>
<path d="M226.483 82.4006L250.408 79.5184L247.136 52.3605L223.211 55.2427L226.483 82.4006Z" fill="#97ACFB" stroke="#97ACFB" stroke-width="2" stroke-miterlimit="10" stroke-linecap="round" stroke-linejoin="round"/>
<path d="M244.979 59.0964L226.547 61.3109" stroke="#BCCAFF" stroke-width="2" stroke-miterlimit="10" stroke-linecap="round" stroke-linejoin="round"/>
<path d="M200.951 85.6698C197.043 85.6698 196.392 87.6237 196.392 101.952C196.392 116.281 195.936 117.779 204.859 116.281C213.781 114.783 220.49 117.128 220.49 113.025C220.49 108.921 211.372 85.6698 200.951 85.6698Z" fill="#6280F3"/>
<path d="M243.286 62.5485L228.892 64.307" stroke="#BCCAFF" stroke-width="2" stroke-miterlimit="10" stroke-linecap="round" stroke-linejoin="round"/>
<path d="M238.336 71.2108L228.697 72.3832" stroke="#BCCAFF" stroke-width="2" stroke-miterlimit="10" stroke-linecap="round" stroke-linejoin="round"/>
<path d="M245.565 66.2607L227.98 68.4101" stroke="#BCCAFF" stroke-width="2" stroke-miterlimit="10" stroke-linecap="round" stroke-linejoin="round"/>
<path d="M244.198 75.6396L229.804 77.3982" stroke="#BCCAFF" stroke-width="2" stroke-miterlimit="10" stroke-linecap="round" stroke-linejoin="round"/>
<path d="M222.444 84.3672H198.346V111.722H222.444V84.3672Z" fill="#97ACFB" stroke="#97ACFB" stroke-width="2" stroke-miterlimit="10" stroke-linecap="round" stroke-linejoin="round"/>
<path d="M201.732 91.5315H218.666" stroke="#BCCAFF" stroke-width="2" stroke-miterlimit="10" stroke-linecap="round" stroke-linejoin="round"/>
<path d="M201.732 94.1367H210.59" stroke="#BCCAFF" stroke-width="2" stroke-miterlimit="10" stroke-linecap="round" stroke-linejoin="round"/>
<path d="M202.319 98.0446H218.21" stroke="#BCCAFF" stroke-width="2" stroke-miterlimit="10" stroke-linecap="round" stroke-linejoin="round"/>
<path d="M201.732 101.952H212.479" stroke="#BCCAFF" stroke-width="2" stroke-miterlimit="10" stroke-linecap="round" stroke-linejoin="round"/>
<path d="M204.077 106.512H215.41" stroke="#BCCAFF" stroke-width="2" stroke-miterlimit="10" stroke-linecap="round" stroke-linejoin="round"/>
<path d="M237.359 56.4261C238.798 56.4261 239.964 55.2597 239.964 53.8209C239.964 52.3821 238.798 51.2157 237.359 51.2157C235.92 51.2157 234.754 52.3821 234.754 53.8209C234.754 55.2597 235.92 56.4261 237.359 56.4261Z" fill="#BCCAFF"/>
<path d="M210.069 87.6238C211.508 87.6238 212.675 86.4574 212.675 85.0186C212.675 83.5797 211.508 82.4133 210.069 82.4133C208.631 82.4133 207.464 83.5797 207.464 85.0186C207.464 86.4574 208.631 87.6238 210.069 87.6238Z" fill="#BCCAFF"/>
<path d="M1.326 195.74H271.488" stroke="#97ACFB" stroke-width="2" stroke-miterlimit="10" stroke-linecap="round" stroke-linejoin="round"/>
<path d="M1.326 1.06519H271.488" stroke="#97ACFB" stroke-width="2" stroke-miterlimit="10" stroke-linecap="round" stroke-linejoin="round"/>
<path d="M58.5503 469.354L113.26 367.815L124.137 369.248L61.0253 470.07C59.0713 473.262 56.7918 472.545 58.5503 469.354Z" fill="#6F8AF3"/>
<path d="M96.326 475.607L121.922 374.068L133.255 375.501L98.9963 476.323C97.9542 479.515 95.4793 478.798 96.326 475.607Z" fill="#6F8AF3"/>
<path d="M207.634 469.354L152.924 367.815L142.048 369.248L205.159 470.07C207.113 473.262 209.327 472.545 207.634 469.354Z" fill="#6F8AF3"/>
<path d="M169.858 475.607L144.262 374.068L132.929 375.501L167.188 476.323C168.23 479.515 170.64 478.798 169.858 475.607Z" fill="#6F8AF3"/>
<path d="M196.301 449.75C196.301 449.75 191.873 454.569 190.309 460.04C189.398 463.102 188.616 466.488 188.16 469.028C188.16 469.028 208.025 477.3 215.059 478.537C220.856 479.514 238.506 478.537 238.506 478.537C238.506 478.537 239.678 475.411 236.552 472.024C233.426 468.638 223.005 466.814 223.005 466.814L208.806 450.01L196.301 449.75Z" fill="#4A4C9B"/>
<path d="M216.232 475.411C209.067 474.174 188.746 465.707 188.746 465.707C188.486 466.879 188.225 468.051 188.095 469.028C188.095 469.028 207.96 477.3 214.994 478.537C220.791 479.514 238.441 478.537 238.441 478.537C238.441 478.537 238.897 477.235 238.376 475.411C238.441 475.411 221.703 476.323 216.232 475.411Z" fill="#263059"/>
<path d="M268.401 447.014C268.401 447.014 266.838 453.332 268.075 458.933C268.726 462.059 269.638 465.381 270.485 467.856C270.485 467.856 291.913 465.577 298.686 463.297C304.223 461.408 319.268 452.094 319.268 452.094C319.268 452.094 318.812 448.838 314.448 447.34C310.084 445.842 300.119 449.229 300.119 449.229L279.668 441.283L268.401 447.014Z" fill="#4A4C9B"/>
<path d="M178.806 228H57.3057L51.8057 235.5L72.3057 336L107.806 377.5H212.306V340H178.806V228Z" fill="#FF8966"/>
<path d="M298.231 459.975C291.327 462.32 269.508 464.665 269.508 464.665C269.834 465.837 270.16 466.944 270.485 467.921C270.485 467.921 291.913 465.642 298.687 463.362C304.223 461.473 319.268 452.16 319.268 452.16C319.268 452.16 319.073 450.792 317.705 449.424C317.705 449.359 303.441 458.217 298.231 459.975Z" fill="#263059"/>
<path d="M155.595 324.113C161.652 312.52 215.515 314.995 237.334 319.554C259.153 324.113 266.056 328.021 268.076 341.828C269.899 354.464 280.841 424.349 282.339 431.774C283.837 439.199 285.856 442.26 285.856 442.26L266.838 448.121C266.838 448.121 260.976 425.326 254.333 410.02C247.755 394.78 240.656 388.071 240.656 388.071C240.656 388.071 239.548 384.163 238.246 371.984C237.594 365.862 238.181 360.26 238.181 360.26C238.181 360.26 189.658 365.471 170.77 365.471C151.883 365.471 147.063 340.395 155.595 324.113Z" fill="#A6A0D6"/>
<path d="M118.926 328.933C124.984 317.339 178.847 319.814 200.665 324.374C222.484 328.933 236.487 335.12 235.184 347.821C233.882 360.521 214.929 436.724 213.822 444.214C212.714 451.704 213.04 453.006 213.04 453.006L193.175 452.03C193.175 452.03 195.455 428.582 194.478 411.974C193.501 395.366 192.198 389.178 192.198 389.178C192.198 389.178 195.064 378.758 198.06 372.896C200.991 367.034 201.642 365.08 201.642 365.08C201.642 365.08 153.12 370.291 134.232 370.291C115.344 370.291 110.459 345.215 118.926 328.933Z" fill="#A6A0D6"/>
<path d="M118.926 328.933C124.983 317.339 178.846 319.814 200.665 324.374C222.484 328.933 236.487 335.12 235.184 347.821C234.272 356.483 225.154 394.715 219.162 420.506" stroke="#7971BD" stroke-width="2" stroke-miterlimit="10" stroke-linecap="round" stroke-linejoin="round"/>
<path d="M159.112 188.316C147.258 188.576 123.095 195.675 112.088 207.79C106.617 213.782 98.9965 220.034 102.253 249.343C104.012 264.909 105.965 283.797 103.1 305.811C99.1919 335.967 122.444 361.237 127.198 360.977C158.656 359.023 160.415 345.085 168.23 335.38C179.954 320.791 202.75 315.971 202.75 315.971C202.75 315.971 192.589 313.497 191.873 310.175C189.202 297.019 189.268 293.501 194.673 283.276C197.213 278.391 204.703 260.545 208.351 247.259C212.063 233.777 212.78 216.973 210.109 210.33C207.374 203.621 187.509 187.794 159.112 188.316Z" fill="#4A4C9B"/>
<path d="M206.918 205.64C218.836 214.954 226.913 264.128 228.28 292.199C228.671 299.689 211.021 303.662 209.848 300.601C207.895 295.781 206.462 296.432 203.14 292.459C200.209 288.942 196.822 284.644 193.175 279.238C159.372 229.999 186.922 190.009 206.918 205.64Z" fill="#4A4C9B"/>
<path d="M205.68 280.931C206.527 284.253 204.182 288.356 204.312 288.942C204.703 290.505 211.477 300.666 215.58 302.099C222.94 304.704 244.498 301.122 247.038 299.037C256.547 291.417 252.118 283.146 252.118 283.146L230.169 276.046L222.484 275.135C222.484 275.2 204.443 275.916 205.68 280.931Z" fill="#4A4C9B"/>
<path d="M249.187 285.621C252.639 286.467 257.198 284.969 264.623 284.969C271.983 284.969 276.347 285.425 280.45 290.18C284.553 294.934 285.66 299.103 286.507 300.601C287.354 302.099 287.614 304.313 281.492 304.965C275.435 305.616 273.481 306.072 267.359 300.926C261.301 295.846 261.301 297.54 256.938 296.693C252.574 295.846 246.842 292.46 246.842 292.46L249.187 285.621Z" fill="#FFBF80"/>
<path d="M156.051 212.674C159.633 227.654 164.192 260.871 164.518 272.595C164.843 284.318 163.997 290.831 163.997 290.831L182.689 295.976C182.689 295.976 193.501 268.687 196.757 248.822C200.014 228.957 196.432 210.395 193.175 198.997C192.849 197.825 192.589 196.717 192.394 195.675C183.731 191.377 172.333 188.055 159.047 188.316C156.832 188.381 154.227 188.641 151.361 189.162C152.534 195.74 154.162 204.598 156.051 212.674Z" fill="white"/>
<path d="M161.912 154.578C161.912 154.578 162.043 153.601 162.238 151.908C162.433 150.214 162.694 147.739 163.15 144.808C163.541 141.877 164.127 138.426 165.039 134.713C165.495 132.889 166.081 131.001 166.797 129.112C167.514 127.223 168.425 125.334 169.663 123.641C170.835 121.882 172.333 120.319 174.092 119.147C175.85 117.975 177.869 117.193 179.823 116.932C180.8 116.802 181.777 116.737 182.689 116.737C183.145 116.737 183.601 116.737 184.057 116.802C184.513 116.867 184.969 116.867 185.425 116.998C187.183 117.258 188.877 117.909 190.179 118.691C191.547 119.538 192.654 120.515 193.436 121.492C194.282 122.469 194.803 123.446 195.194 124.227C195.585 125.009 195.845 125.725 195.976 126.181C196.106 126.637 196.171 126.897 196.171 126.897C196.236 127.288 195.976 127.679 195.585 127.744C195.194 127.809 194.869 127.549 194.738 127.223C194.738 127.223 194.673 127.028 194.543 126.637C194.413 126.246 194.152 125.66 193.761 124.944C193.371 124.227 192.849 123.38 192.068 122.599C191.351 121.752 190.375 120.971 189.137 120.319C187.965 119.668 186.532 119.212 184.969 119.017C184.578 118.952 184.187 118.951 183.796 118.951C183.406 118.951 183.015 118.951 182.559 118.951C181.712 118.951 180.865 119.082 180.084 119.277C178.456 119.603 176.827 120.319 175.46 121.361C174.092 122.403 172.92 123.771 171.943 125.334C170.966 126.897 170.249 128.591 169.663 130.349C169.077 132.108 168.621 133.866 168.295 135.625C167.579 139.142 167.253 142.464 166.993 145.395C166.732 148.26 166.602 150.735 166.472 152.429C166.341 154.122 166.276 155.099 166.276 155.099C166.211 156.336 165.104 157.313 163.866 157.248C162.629 157.183 161.652 156.076 161.717 154.838C161.912 154.643 161.912 154.643 161.912 154.578Z" fill="#191D2B"/>
<path d="M194.347 170.6C199.707 170.6 204.052 166.255 204.052 160.896C204.052 155.536 199.707 151.191 194.347 151.191C188.987 151.191 184.643 155.536 184.643 160.896C184.643 166.255 188.987 170.6 194.347 170.6Z" fill="#191D2B"/>
<path d="M163.736 170.6C163.736 170.6 160.935 181.021 158.655 191.637C157.288 197.89 172.528 207.92 174.743 207.92C176.566 207.92 178.195 199.713 179.106 195.74C181.972 183.496 181.647 182.389 183.731 172.945C185.75 163.957 165.103 159.202 163.736 170.6Z" fill="#FFBF80"/>
<path d="M171.291 187.143C173.636 188.967 176.371 190.009 180.214 190.791C181.907 182.91 181.972 180.891 183.731 172.88C185.75 163.957 164.452 162.98 163.54 175.615C164.062 179.067 165.885 183.04 171.291 187.143Z" fill="#F09D4A"/>
<path d="M184.187 130.219C200.665 132.303 200.86 143.506 198.711 160.44C196.952 174.638 190.765 184.668 185.489 185.319C176.176 186.427 160.284 180.109 156.702 167.018C149.277 139.989 164.192 127.679 184.187 130.219Z" fill="#FFBF80"/>
<path d="M162.173 163.957C159.893 161.352 157.158 160.635 157.353 155.164C157.483 151.712 161.977 148.13 163.54 150.084C165.299 152.233 165.625 159.007 169.207 154.252C171.747 149.954 172.203 146.893 177.218 147.023C180.67 147.088 188.29 149.302 191.742 149.563C215.515 151.191 221.246 132.173 218.25 126.963C213.3 118.496 198.906 123.576 197.083 125.79C195.78 124.683 194.347 123.511 191.872 122.013C183.535 116.933 166.276 119.603 159.698 131.782C153.575 132.759 145.695 135.69 146.411 145.981C147.518 163.045 158.135 176.332 159.567 173.466C162.889 166.823 162.173 163.957 162.173 163.957Z" fill="#2F3A6F"/>
<path d="M163.364 163.367C166.529 163.327 169.056 160.233 169.008 156.456C168.96 152.68 166.355 149.651 163.19 149.691C160.025 149.731 157.498 152.825 157.546 156.602C157.594 160.378 160.199 163.407 163.364 163.367Z" fill="#FFBF99"/>
<path d="M163.996 164.803C169.356 164.803 173.701 160.459 173.701 155.099C173.701 149.739 169.356 145.395 163.996 145.395C158.637 145.395 154.292 149.739 154.292 155.099C154.292 160.459 158.637 164.803 163.996 164.803Z" fill="#191D2B"/>
<path d="M163.996 162.329C167.989 162.329 171.226 159.092 171.226 155.099C171.226 151.106 167.989 147.87 163.996 147.87C160.003 147.87 156.767 151.106 156.767 155.099C156.767 159.092 160.003 162.329 163.996 162.329Z" stroke="#56529E" stroke-width="2" stroke-miterlimit="10" stroke-linecap="round" stroke-linejoin="round"/>
<path d="M161.912 154.578C161.912 154.578 162.238 151.777 162.759 147.544C163.28 143.31 164.061 137.644 165.755 132.043C166.602 129.242 167.774 126.507 169.337 124.097C170.119 122.924 170.965 121.817 171.942 120.905C172.854 119.994 173.896 119.212 174.873 118.626C176.892 117.453 178.781 116.998 180.149 116.802C180.8 116.737 181.321 116.672 181.647 116.672C181.972 116.672 182.168 116.672 182.168 116.672C182.754 116.672 183.275 117.128 183.34 117.714C183.34 118.3 182.949 118.821 182.363 118.886H182.298C182.298 118.886 182.103 118.886 181.842 118.951C181.516 118.951 181.061 119.017 180.54 119.147C179.432 119.342 177.869 119.798 176.241 120.84C175.459 121.361 174.678 122.013 173.896 122.859C173.18 123.641 172.463 124.618 171.877 125.66C170.64 127.809 169.728 130.349 169.077 132.955C167.774 138.23 167.318 143.766 166.992 147.935C166.732 152.168 166.536 154.969 166.536 154.969C166.471 156.206 165.364 157.183 164.127 157.118C162.889 157.053 161.912 155.946 161.977 154.708C161.912 154.643 161.912 154.643 161.912 154.578Z" fill="#191D2B"/>
<path d="M165.885 154.122C165.885 154.122 165.82 154.643 165.69 155.49C165.559 156.336 165.364 157.574 165.103 159.072C164.843 160.505 164.582 162.198 164.452 163.957C164.322 165.715 164.257 167.474 164.778 169.102C165.234 170.73 166.276 172.163 167.513 173.401C168.099 173.987 168.751 174.638 169.402 175.029C169.532 175.094 169.663 175.224 169.858 175.289C170.053 175.355 170.184 175.485 170.379 175.55C170.705 175.745 171.03 175.876 171.356 176.006C172.659 176.592 173.831 176.983 174.612 177.243C175.394 177.504 175.915 177.634 175.915 177.634C176.306 177.764 176.501 178.155 176.436 178.481C176.371 178.806 175.98 179.067 175.655 179.002C175.655 179.002 175.134 178.937 174.287 178.741C173.44 178.546 172.203 178.285 170.705 177.83C170.314 177.699 169.923 177.569 169.532 177.439C169.337 177.374 169.142 177.243 168.946 177.178C168.751 177.113 168.49 176.983 168.295 176.853C167.513 176.397 166.797 175.81 166.015 175.159C165.234 174.508 164.517 173.791 163.801 172.945C163.149 172.098 162.498 171.121 162.107 170.079C161.651 169.037 161.391 167.93 161.261 166.888C161.13 165.845 161.065 164.803 161.065 163.826C161.065 161.873 161.196 160.114 161.261 158.616C161.326 157.118 161.456 155.88 161.456 155.034C161.521 154.187 161.521 153.666 161.521 153.666C161.586 152.429 162.694 151.452 163.931 151.517C165.169 151.582 166.146 152.689 166.08 153.927C165.885 153.992 165.885 154.057 165.885 154.122Z" fill="#191D2B"/>
<path d="M173.114 180.956L175.72 181.607C177.348 181.998 178.976 181.021 179.367 179.458C179.758 177.83 178.781 176.201 177.218 175.81L174.612 175.159C172.984 174.768 171.356 175.745 170.965 177.308C170.509 178.937 171.486 180.565 173.114 180.956Z" fill="#191D2B"/>
<path d="M168.1 206.292L176.893 219.188C176.893 219.188 173.245 240.225 170.836 254.228C168.426 268.231 162.108 291.548 162.108 291.548L168.1 300.34L177.544 296.237C177.544 296.237 184.383 276.047 183.406 255.335C182.429 234.624 179.172 218.862 179.172 218.862C179.172 218.862 182.299 213.782 182.95 210.395C183.601 207.008 183.536 204.989 183.536 204.989C183.536 204.989 176.437 204.142 173.05 204.989C169.663 205.836 168.1 206.292 168.1 206.292Z" fill="#191D2B"/>
<path d="M149.082 186.622C149.082 186.622 154.162 182.519 156.702 181.216C160.936 179.067 157.94 179.979 160.154 185.645C161.066 187.86 166.862 197.238 170.314 200.495C173.766 203.752 176.176 204.598 176.176 204.598C176.176 204.598 174.222 204.924 169.468 208.636C164.713 212.349 158.851 219.187 158.851 219.187C158.851 219.187 153.836 202.449 152.143 196.196C150.384 189.879 149.082 186.622 149.082 186.622Z" fill="white"/>
<path d="M191.156 204.012C189.724 198.671 191.287 193.721 191.287 193.721C187.705 191.312 185.034 190.204 181.257 185.71C181.126 186.557 180.67 188.902 180.54 189.162C180.54 189.162 179.303 194.763 177.935 201.081C177.284 203.947 175.59 204.728 175.59 204.728C175.59 204.728 178.651 205.315 183.862 208.376C189.072 211.502 194.348 214.759 194.348 214.759C194.348 214.759 192.589 209.353 191.156 204.012Z" fill="white"/>
<path d="M194.348 214.824C194.348 214.824 189.072 211.567 183.862 208.441C178.651 205.315 176.046 205.054 176.046 205.054C176.046 205.054 174.287 204.989 169.468 208.636C164.713 212.349 158.851 219.187 158.851 219.187" stroke="#B7BBD1" stroke-width="2" stroke-miterlimit="10" stroke-linecap="round" stroke-linejoin="round"/>
<path d="M250.034 283.797L257.199 285.1C257.199 285.1 253.747 287.835 252.118 290.766C250.49 293.697 251.142 296.497 251.142 296.497L244.433 294.609C244.433 294.609 244.433 290.766 245.41 288.356C246.387 285.946 250.034 283.797 250.034 283.797Z" fill="white"/>
<path d="M157.158 204.208C153.902 196.196 152.99 183.691 152.99 183.691L141.071 190.986L138.661 201.146L151.231 204.403L141.657 212.023C141.657 212.023 154.227 236.577 157.484 254.814C160.74 273.051 162.043 291.483 162.043 291.483L165.951 298.191C165.951 298.191 169.403 266.928 165.951 242.374C163.476 224.203 160.415 212.219 157.158 204.208Z" fill="#253B6D"/>
<path d="M197.278 207.008L202.293 204.208L197.278 197.694L185.75 190.074C185.75 190.074 191.417 206.357 192.915 217.885C194.152 227.329 192.263 255.009 189.202 269.794C186.141 284.579 180.735 296.693 180.735 296.693L183.796 297.8C183.796 297.8 197.409 272.595 201.121 252.665C204.833 232.67 206.527 214.889 206.527 214.889L197.278 207.008Z" fill="#253B6D"/>
<path d="M210.304 299.624C210.304 299.624 214.408 299.428 216.361 299.298C218.315 299.168 222.875 296.042 226.978 293.762C231.081 291.482 233.491 290.831 237.268 291.613C241.046 292.394 248.992 293.892 250.164 295.455C251.337 297.019 251.337 297.019 251.337 297.019C251.337 297.019 254.919 301.122 257.198 302.88C259.478 304.639 259.022 306.007 255.7 305.811C252.379 305.616 248.015 306.007 244.758 303.662C241.502 301.317 239.353 302.034 236.291 304.183C233.23 306.332 223.396 310.566 220.334 310.566C217.273 310.566 215.45 308.612 211.021 308.612C206.592 308.612 207.178 299.428 210.304 299.624Z" fill="#FFBF80"/>
<path d="M132.539 285.881C133.776 289.398 131.106 293.632 131.366 294.218C131.952 295.846 140.485 310.761 145.565 312.455C154.618 315.516 199.232 313.432 202.814 312.194C208.872 310.11 207.504 297.214 207.504 297.214C207.504 297.214 203.922 296.954 193.371 294.218C184.578 291.938 164.713 282.104 164.713 282.104C164.713 282.104 130.715 280.541 132.539 285.881Z" fill="#4A4C9B"/>
<path d="M237.66 355.506C240.916 353.552 249.709 349.253 251.011 350.686C252.9 352.77 249.057 354.855 246.973 356.157C243.326 358.437 238.506 361.172 240.46 363.387C241.828 364.885 244.628 363.126 247.494 362.41" stroke="#7971BD" stroke-width="2" stroke-miterlimit="10" stroke-linecap="round" stroke-linejoin="round"/>
<path d="M213.887 298.451C213.887 298.451 211.281 298.582 207.634 298.386C207.764 300.991 207.764 307.309 205.159 310.501C208.285 310.175 210.435 309.914 211.086 309.784C214.668 309.003 213.887 298.451 213.887 298.451Z" fill="white"/>
<path d="M167.188 283.146C167.774 271.878 167.97 256.051 166.081 242.374C163.541 224.203 160.415 212.219 157.158 204.142C153.901 196.131 152.99 183.626 152.99 183.626" stroke="#1B1733" stroke-width="2" stroke-miterlimit="10" stroke-linecap="round" stroke-linejoin="round"/>
<path d="M129.087 211.046C142.569 219.709 162.173 267.124 160.024 300.666C159.503 308.612 142.894 314.474 141.331 311.347C138.856 306.463 137.358 307.309 133.385 303.401C129.933 299.95 124.983 296.367 121.531 290.375C90.0734 234.558 106.356 196.457 129.087 211.046Z" fill="#4A4C9B"/>
<path d="M145.5 312.389C154.553 315.45 199.167 313.366 202.749 312.129C208.807 310.045 207.439 297.149 207.439 297.149C207.439 297.149 203.857 296.888 193.305 294.153C184.513 291.873 164.648 282.038 164.648 282.038C164.648 282.038 162.499 281.973 159.372 281.908" stroke="#6C6EC1" stroke-width="2" stroke-miterlimit="10" stroke-linecap="round" stroke-linejoin="round"/>
<path d="M143.546 277.544C145.369 277.349 148.04 276.958 149.603 276.893C153.185 276.828 155.269 276.893 155.269 278.391C155.269 280.54 152.794 280.866 150.58 281.908C147.519 283.341 144.262 285.881 146.021 287.9C147.649 289.724 154.097 282.95 159.242 281.908" stroke="#6C6EC1" stroke-width="2" stroke-miterlimit="10" stroke-linecap="round" stroke-linejoin="round"/>
<path d="M144.783 312.064C143.025 312.324 141.657 312.064 141.266 311.282C138.791 306.397 137.293 307.244 133.32 303.336C129.868 299.884 124.918 296.302 121.466 290.31C115.344 279.498 111.045 269.338 108.245 260.089" stroke="#6C6EC1" stroke-width="2" stroke-miterlimit="10" stroke-linecap="round" stroke-linejoin="round"/>
<path d="M118.926 207.92C122.052 207.724 125.504 208.701 129.087 211.046C140.224 218.21 152.013 251.948 159.307 281.908" stroke="#6C6EC1" stroke-width="2" stroke-miterlimit="10" stroke-linecap="round" stroke-linejoin="round"/>
<path d="M213.561 297.996C213.561 297.996 214.212 301.252 213.366 305.29C212.519 309.328 211.412 310.37 211.412 310.37" stroke="#6C6EC1" stroke-width="2" stroke-miterlimit="10" stroke-linecap="round" stroke-linejoin="round"/>
<path d="M190.57 293.371C191.221 290.375 192.524 287.314 194.673 283.211C197.213 278.326 204.703 260.48 208.351 247.194C209.197 244.133 209.849 240.941 210.37 237.685C211.021 233.842 214.408 234.689 213.235 239.704C212.063 244.784 211.542 247.194 210.239 251.102C208.937 255.009 211.802 255.205 213.496 251.948C214.994 249.148 215.515 247.975 215.515 247.975" stroke="#6C6EC1" stroke-width="2" stroke-miterlimit="10" stroke-linecap="round" stroke-linejoin="round"/>
<path d="M101.862 228.566C101.862 228.566 65.1935 228.566 55.4239 228.566C45.6544 228.566 48.2596 236.382 53.1444 266.668C58.0292 296.953 65.1935 330.821 69.7527 352.64C74.3118 374.459 76.917 379.669 98.4101 379.669C119.903 379.669 195.129 379.669 195.129 379.669L196.432 376.413C196.432 376.413 194.478 376.413 183.861 376.413C173.245 376.413 173.18 362.41 171.226 352.64C168.881 340.721 161.457 330.496 137.358 330.496C93.851 330.496 89.7478 336.357 65.2587 263.867C54.968 233.321 52.4279 231.171 75.5493 231.171C98.6707 231.171 101.341 231.171 101.341 231.171L101.862 228.566Z" fill="#FF8966"/>
<path d="M166.667 358.567C164.387 347.104 157.288 337.334 134.167 337.334C92.3531 337.334 86.1005 341.372 64.412 274.874C61.416 265.626 59.1364 258.657 57.4431 253.446" stroke="#C04C34" stroke-width="2" stroke-miterlimit="10" stroke-linecap="round" stroke-linejoin="round"/>
<path d="M200.991 360.26C204.247 358.306 213.04 354.008 214.342 355.441C216.231 357.525 212.388 359.609 210.304 360.912C206.657 363.191 201.837 365.927 203.791 368.141C205.159 369.639 207.96 367.881 210.825 367.164" stroke="#7971BD" stroke-width="2" stroke-miterlimit="10" stroke-linecap="round" stroke-linejoin="round"/>
<path d="M127.133 474.043L152.729 315.19L166.602 317.404L132.343 475.216C131.301 480.166 126.286 479.059 127.133 474.043Z" fill="#263059"/>
<path d="M400.681 474.044L375.085 315.19L361.212 317.405L395.471 475.216C396.513 480.166 401.528 479.059 400.681 474.044Z" fill="#263059"/>
<path d="M356.197 287.314H235.966C230.821 287.314 226.652 283.146 226.652 278V187.274C226.652 182.128 230.821 177.96 235.966 177.96H356.262C361.407 177.96 365.576 182.128 365.576 187.274V278C365.576 283.146 361.407 287.314 356.197 287.314Z" fill="#DCE0F4"/>
<rect x="236.797" y="205.192" width="122" height="26" transform="rotate(-6.55905 236.797 205.192)" fill="white"/>
<path d="M248.373 224.319L250.99 224.018L250.429 219.135L253.195 218.817C256.532 218.433 258.094 216.223 257.774 213.443C257.457 210.685 255.453 208.863 252.13 209.245L246.711 209.868L248.373 224.319ZM250.181 216.983L249.58 211.755L251.979 211.479C253.941 211.253 254.93 212.212 255.107 213.75C255.284 215.288 254.542 216.482 252.594 216.706L250.181 216.983ZM262.871 216.218C262.69 214.651 263.56 213.636 264.929 213.479C266.27 213.325 267.158 214.087 267.326 215.548L268.074 222.053L270.628 221.76L269.835 214.859C269.534 212.241 267.884 210.951 265.633 211.21C263.968 211.402 262.997 212.278 262.637 213.563L262.51 213.578L261.883 208.124L259.385 208.411L261.047 222.861L263.601 222.568L262.871 216.218ZM276.376 221.32C278.076 221.125 279 220.211 279.361 219.247L279.446 219.237L279.617 220.726L282.073 220.444L281.239 213.19C280.909 210.326 278.475 209.734 276.408 209.971C274.129 210.233 272.496 211.451 272.158 213.491L274.582 213.556C274.751 212.785 275.398 212.068 276.646 211.924C277.832 211.788 278.551 212.32 278.673 213.385L278.678 213.428C278.762 214.162 277.997 214.285 276.109 214.71C274.032 215.177 272.093 216.036 272.374 218.478C272.619 220.609 274.308 221.558 276.376 221.32ZM276.823 219.367C275.758 219.49 274.94 219.091 274.832 218.152C274.719 217.171 275.526 216.664 276.65 216.37C277.31 216.202 278.631 215.878 278.932 215.572L279.079 216.849C279.217 218.055 278.361 219.191 276.823 219.367ZM284.641 220.149L287.195 219.855L286.463 213.483C286.304 212.108 287.23 211.015 288.634 210.853C289.064 210.804 289.609 210.82 289.836 210.865L289.566 208.515C289.328 208.5 288.923 208.518 288.641 208.55C287.399 208.693 286.443 209.518 286.192 210.819L286.079 210.832L285.872 209.026L283.395 209.311L284.641 220.149ZM292.519 219.243L295.073 218.949L294.315 212.359C294.162 211.025 294.947 210.02 296.048 209.893C297.127 209.769 297.952 210.411 298.08 211.526L298.883 218.511L301.388 218.223L300.611 211.464C300.47 210.243 301.1 209.313 302.335 209.171C303.365 209.052 304.253 209.565 304.407 210.905L305.198 217.785L307.759 217.49L306.923 210.216C306.645 207.796 305.1 206.672 303.11 206.901C301.537 207.082 300.427 207.996 300.085 209.258L299.973 209.271C299.415 208.091 298.277 207.457 296.816 207.625C295.363 207.792 294.362 208.665 294.053 209.951L293.926 209.966L293.714 208.124L291.273 208.405L292.519 219.243ZM313.494 217.053C315.195 216.857 316.119 215.943 316.48 214.979L316.565 214.969L316.736 216.458L319.191 216.176L318.357 208.923C318.028 206.058 315.594 205.466 313.526 205.703C311.247 205.965 309.614 207.183 309.277 209.223L311.701 209.288C311.87 208.518 312.516 207.8 313.765 207.656C314.951 207.52 315.669 208.052 315.792 209.117L315.797 209.16C315.881 209.894 315.116 210.017 313.228 210.442C311.151 210.909 309.212 211.769 309.493 214.21C309.738 216.341 311.427 217.29 313.494 217.053ZM313.942 215.099C312.876 215.222 312.058 214.823 311.951 213.884C311.838 212.904 312.644 212.396 313.769 212.102C314.429 211.934 315.75 211.61 316.05 211.304L316.197 212.581C316.336 213.788 315.48 214.923 313.942 215.099ZM326.688 215.314L329.242 215.02L328.51 208.649C328.352 207.273 329.277 206.18 330.681 206.019C331.111 205.969 331.657 205.985 331.883 206.03L331.613 203.681C331.376 203.665 330.97 203.683 330.688 203.716C329.446 203.859 328.49 204.683 328.239 205.985L328.126 205.998L327.919 204.191L325.442 204.476L326.688 215.314ZM338.942 214.119C341.468 213.829 343.062 212.395 343.297 210.459L340.881 210.465C340.641 211.422 339.849 211.999 338.749 212.126C337.097 212.316 335.879 211.355 335.644 209.501L343.194 208.633L343.104 207.85C342.667 204.047 340.188 202.638 337.521 202.944C334.417 203.301 332.654 205.813 333.038 209.158C333.429 212.559 335.675 214.495 338.942 214.119ZM335.453 207.779C335.372 206.387 336.261 205.105 337.785 204.93C339.253 204.761 340.364 205.72 340.548 207.193L335.453 207.779ZM346.365 217.169L348.919 216.876L348.255 211.104L348.361 211.092C348.854 211.836 349.821 212.847 351.684 212.633C354.238 212.339 355.918 210.094 355.507 206.524C355.092 202.912 352.898 201.176 350.393 201.464C348.481 201.684 347.816 202.926 347.518 203.754L347.369 203.771L347.163 201.979L344.652 202.268L346.365 217.169ZM347.779 207.398C347.538 205.296 348.284 203.83 349.928 203.641C351.629 203.446 352.67 204.791 352.902 206.809C353.136 208.841 352.417 210.425 350.731 210.619C349.101 210.807 348.021 209.501 347.779 207.398Z" fill="#2F3A6F"/>
<path d="M353.982 283.341H236.682C233.882 283.341 231.602 281.062 231.602 278.261V188.446" stroke="#B7BBD1" stroke-width="2" stroke-miterlimit="10" stroke-linecap="round" stroke-linejoin="round"/>
<path d="M304.418 310.501C303.832 307.505 301.227 305.29 298.101 305.29H244.563C241.437 305.29 238.832 307.505 238.246 310.501H304.418Z" fill="#253B6D"/>
<path d="M296.306 253H315.845C315.845 253 327.995 282.82 332.099 294.739C336.202 306.658 329.689 310.37 326.107 310.37C310.931 310.37 288.201 310.37 288.201 310.37C288.201 310.37 288.852 302.099 300.771 302.099C312.69 302.099 307.414 292.003 304.483 281.973C298.817 262.239 296.306 253 296.306 253Z" fill="#B7BBD1"/>
<path d="M288.266 310.37C288.266 310.37 288.917 302.099 300.836 302.099C312.755 302.099 308.237 293.53 305.306 283.5C299.574 263.831 295.806 253 295.806 253H315.345" stroke="#8A8FAE" stroke-width="2" stroke-miterlimit="10" stroke-linecap="round" stroke-linejoin="round"/>
<path d="M288.461 175.289C293.497 175.289 297.579 171.207 297.579 166.171C297.579 161.135 293.497 157.053 288.461 157.053C283.425 157.053 279.343 161.135 279.343 166.171C279.343 171.207 283.425 175.289 288.461 175.289Z" fill="#B7BBD1"/>
<path d="M284.228 161.547C283.055 162.719 282.339 164.347 282.339 166.171C282.339 169.753 285.27 172.684 288.852 172.684C290.676 172.684 292.304 171.968 293.476 170.795" stroke="#676D8C" stroke-width="2" stroke-miterlimit="10" stroke-linecap="round" stroke-linejoin="round"/>
<path d="M297.189 179.914H290.48L287.224 168.776C286.898 167.604 287.745 166.627 289.178 166.627C290.611 166.627 292.174 167.539 292.63 168.776L297.189 179.914Z" fill="#253B6D"/>
<path d="M405.175 233.842C405.175 233.842 391.628 247.714 385.18 258.722C374.955 276.177 369.744 295.325 369.744 295.325" stroke="#53B584" stroke-width="2" stroke-miterlimit="10" stroke-linecap="round" stroke-linejoin="round"/>
<path d="M412.47 224.593C410.646 223.095 408.627 223.812 406.999 225.831C405.371 227.785 403.286 232.604 404.133 234.819C406.478 235.209 410.777 232.213 412.405 230.194C413.968 228.24 414.359 226.156 412.47 224.593Z" fill="#53B584"/>
<path d="M398.597 226.352C396.187 226.612 395.341 228.566 395.601 231.106C395.862 233.646 397.75 238.531 399.9 239.508C401.854 238.14 402.635 232.995 402.375 230.455C402.114 227.85 401.007 226.091 398.597 226.352Z" fill="#53B584"/>
<path d="M390.065 234.167C387.72 234.753 387.199 236.838 387.85 239.313C388.502 241.788 391.107 246.282 393.451 246.933C395.145 245.24 395.21 240.029 394.559 237.554C393.842 235.079 392.344 233.581 390.065 234.167Z" fill="#53B584"/>
<path d="M383.552 243.09C381.207 243.676 380.686 245.761 381.337 248.236C381.989 250.71 384.594 255.205 386.939 255.856C388.632 254.162 388.632 248.952 387.981 246.477C387.329 244.067 385.896 242.504 383.552 243.09Z" fill="#53B584"/>
<path d="M396.969 259.959C396.708 257.549 394.755 256.703 392.214 256.963C389.674 257.224 384.79 259.112 383.813 261.262C385.18 263.216 390.326 264.127 392.931 263.867C395.471 263.541 397.164 262.304 396.969 259.959Z" fill="#53B584"/>
<path d="M403.221 251.101C403.091 248.691 401.202 247.715 398.662 247.845C396.122 247.975 391.107 249.538 390 251.688C391.303 253.707 396.383 254.879 398.923 254.749C401.528 254.618 403.352 253.511 403.221 251.101Z" fill="#53B584"/>
<path d="M410.255 242.113C410.125 239.703 408.236 238.726 405.696 238.857C403.156 238.987 398.206 240.615 397.099 242.764C398.402 244.784 403.482 245.956 406.022 245.826C408.562 245.63 410.386 244.458 410.255 242.113Z" fill="#53B584"/>
<path d="M384.203 205.51C384.203 205.51 376.973 223.486 375.215 236.121C372.414 256.181 373.521 289.528 373.521 289.528" stroke="#53B584" stroke-width="2" stroke-miterlimit="10" stroke-linecap="round" stroke-linejoin="round"/>
<path d="M387.394 194.177C385.115 193.461 383.552 194.959 382.77 197.369C382.054 199.843 381.923 205.054 383.552 206.812C385.896 206.291 388.697 201.863 389.413 199.388C390.195 196.978 389.674 194.894 387.394 194.177Z" fill="#53B584"/>
<path d="M375.28 201.081C373.196 202.188 373.066 204.338 374.303 206.617C375.541 208.897 379.123 212.674 381.533 212.739C382.77 210.72 381.533 205.705 380.361 203.426C379.058 201.146 377.365 199.974 375.28 201.081Z" fill="#53B584"/>
<path d="M370.33 211.632C368.441 213.065 368.702 215.214 370.265 217.233C371.828 219.252 375.931 222.444 378.341 222.183C379.253 219.969 377.299 215.149 375.736 213.065C374.173 210.981 372.219 210.134 370.33 211.632Z" fill="#53B584"/>
<path d="M367.725 222.313C365.836 223.746 366.097 225.896 367.66 227.915C369.223 229.934 373.392 233.125 375.736 232.799C376.648 230.585 374.694 225.765 373.131 223.746C371.568 221.727 369.679 220.881 367.725 222.313Z" fill="#53B584"/>
<path d="M386.548 232.735C385.441 230.65 383.291 230.52 381.012 231.758C378.732 232.995 374.955 236.577 374.889 238.987C376.909 240.225 381.989 239.117 384.268 237.88C386.548 236.707 387.655 234.884 386.548 232.735Z" fill="#53B584"/>
<path d="M388.958 222.183C387.981 220.034 385.831 219.839 383.487 220.881C381.142 221.988 377.169 225.375 376.974 227.719C378.928 229.087 384.073 228.24 386.418 227.133C388.762 226.156 390 224.398 388.958 222.183Z" fill="#53B584"/>
<path d="M392.019 211.176C390.977 209.027 388.893 208.832 386.548 209.939C384.203 211.046 380.295 214.433 380.1 216.843C382.054 218.21 387.199 217.299 389.544 216.256C391.889 215.214 393.061 213.326 392.019 211.176Z" fill="#53B584"/>
<path d="M352.485 234.884C352.485 234.884 359.714 252.86 361.473 265.495C364.273 285.555 361.733 305.16 361.733 305.16" stroke="#39805E" stroke-width="2" stroke-miterlimit="10" stroke-linecap="round" stroke-linejoin="round"/>
<path d="M349.228 223.616C351.508 222.9 353.071 224.398 353.853 226.808C354.569 229.283 354.699 234.493 353.071 236.252C350.726 235.731 347.926 231.302 347.209 228.827C346.493 226.352 346.949 224.268 349.228 223.616Z" fill="#39805E"/>
<path d="M361.408 230.455C363.492 231.562 363.622 233.712 362.385 235.991C361.147 238.271 357.565 242.048 355.155 242.113C353.918 240.094 355.155 235.079 356.328 232.8C357.565 230.585 359.324 229.348 361.408 230.455Z" fill="#39805E"/>
<path d="M366.357 241.006C368.246 242.439 367.986 244.588 366.423 246.607C364.859 248.626 360.756 251.818 358.346 251.557C357.435 249.343 359.389 244.523 360.952 242.439C362.45 240.42 364.404 239.573 366.357 241.006Z" fill="#39805E"/>
<path d="M368.898 251.753C370.786 253.185 370.526 255.335 368.963 257.354C367.4 259.373 363.231 262.564 360.887 262.239C359.975 260.024 361.929 255.205 363.492 253.186C365.055 251.166 367.009 250.32 368.898 251.753Z" fill="#39805E"/>
<path d="M350.075 262.174C351.182 260.09 353.331 259.959 355.611 261.197C357.89 262.434 361.668 266.016 361.733 268.426C359.714 269.664 354.634 268.557 352.354 267.319C350.075 266.082 348.968 264.258 350.075 262.174Z" fill="#39805E"/>
<path d="M347.665 251.622C348.642 249.473 350.791 249.278 353.136 250.32C355.481 251.427 359.454 254.814 359.649 257.159C357.695 258.526 352.55 257.68 350.205 256.572C347.925 255.53 346.688 253.772 347.665 251.622Z" fill="#39805E"/>
<path d="M344.604 240.616C345.646 238.466 347.73 238.271 350.075 239.378C352.42 240.485 356.328 243.872 356.523 246.282C354.569 247.65 349.424 246.738 347.079 245.696C344.799 244.523 343.562 242.765 344.604 240.616Z" fill="#39805E"/>
<path d="M344.93 274.548H397.034V284.188C397.034 298.712 385.441 310.435 370.917 310.435C356.393 310.435 344.93 298.647 344.93 284.188V274.548Z" fill="#9F94F8"/>
<rect x="122.806" y="310" width="281" height="14" fill="#263059"/>
</svg>
