<svg width="380" height="487" viewBox="0 0 380 487" fill="none" xmlns="http://www.w3.org/2000/svg">
<path d="M378.148 1H196.434V476.453H378.148V1Z" fill="#8199F4" stroke="#97ACFB" stroke-width="2" stroke-miterlimit="10" stroke-linecap="round" stroke-linejoin="round"/>
<path d="M368.379 10.7695H292.176V65.4792H368.379V10.7695Z" fill="#6280F3"/>
<path d="M282.407 10.7697H206.204V65.4794H282.407V10.7697Z" fill="#6280F3"/>
<path d="M368.379 75.2488H292.176V129.958H368.379V75.2488Z" fill="#6280F3"/>
<path d="M282.406 75.2488H206.204V129.958H282.406V75.2488Z" fill="#6280F3"/>
<path d="M368.379 139.728H292.176V194.438H368.379V139.728Z" fill="#6280F3"/>
<path d="M282.407 139.728H206.204V194.438H282.407V139.728Z" fill="#6280F3"/>
<path d="M368.379 204.208H292.176V258.917H368.379V204.208Z" fill="#6280F3"/>
<path d="M282.406 204.208H206.204V258.917H282.406V204.208Z" fill="#6280F3"/>
<path d="M368.379 268.687H292.176V323.396H368.379V268.687Z" fill="#6280F3"/>
<path d="M282.407 268.687H206.204V323.396H282.407V268.687Z" fill="#6280F3"/>
<path d="M368.379 333.166H292.176V387.876H368.379V333.166Z" fill="#6280F3"/>
<path d="M282.406 333.166H206.204V387.876H282.406V333.166Z" fill="#6280F3"/>
<path d="M368.379 397.645H292.176V466.684H368.379V397.645Z" fill="#6280F3"/>
<path d="M282.406 397.645H206.204V466.684H282.406V397.645Z" fill="#6280F3"/>
<path d="M367.076 78.5054L368.379 79.808V129.959H348.188L367.076 78.5054Z" fill="#5171ED"/>
<path d="M327.347 159.919C332.883 165.455 338.289 170.861 342.327 174.899C346.365 178.937 343.825 183.561 341.024 185.971C338.223 188.381 350.598 193.787 341.024 193.787C331.45 193.787 314.321 193.787 314.321 193.787C314.321 193.787 315.428 148 327.347 159.919Z" fill="#5171ED"/>
<path d="M206.855 65.4792H281.755" stroke="#97ACFB" stroke-width="2" stroke-miterlimit="10" stroke-linecap="round" stroke-linejoin="round"/>
<path d="M206.855 129.958H281.755" stroke="#97ACFB" stroke-width="2" stroke-miterlimit="10" stroke-linecap="round" stroke-linejoin="round"/>
<path d="M292.827 65.4792H367.727" stroke="#97ACFB" stroke-width="2" stroke-miterlimit="10" stroke-linecap="round" stroke-linejoin="round"/>
<path d="M292.827 129.958H367.727" stroke="#97ACFB" stroke-width="2" stroke-miterlimit="10" stroke-linecap="round" stroke-linejoin="round"/>
<path d="M206.855 194.438H281.755" stroke="#97ACFB" stroke-width="2" stroke-miterlimit="10" stroke-linecap="round" stroke-linejoin="round"/>
<path d="M206.855 258.917H281.755" stroke="#97ACFB" stroke-width="2" stroke-miterlimit="10" stroke-linecap="round" stroke-linejoin="round"/>
<path d="M292.827 194.438H367.727" stroke="#97ACFB" stroke-width="2" stroke-miterlimit="10" stroke-linecap="round" stroke-linejoin="round"/>
<path d="M292.827 258.917H367.727" stroke="#97ACFB" stroke-width="2" stroke-miterlimit="10" stroke-linecap="round" stroke-linejoin="round"/>
<path d="M206.855 323.396H281.755" stroke="#97ACFB" stroke-width="2" stroke-miterlimit="10" stroke-linecap="round" stroke-linejoin="round"/>
<path d="M206.855 387.876H281.755" stroke="#97ACFB" stroke-width="2" stroke-miterlimit="10" stroke-linecap="round" stroke-linejoin="round"/>
<path d="M292.827 323.396H367.727" stroke="#97ACFB" stroke-width="2" stroke-miterlimit="10" stroke-linecap="round" stroke-linejoin="round"/>
<path d="M292.827 387.876H367.727" stroke="#97ACFB" stroke-width="2" stroke-miterlimit="10" stroke-linecap="round" stroke-linejoin="round"/>
<path d="M206.855 466.032H281.755" stroke="#97ACFB" stroke-width="2" stroke-miterlimit="10" stroke-linecap="round" stroke-linejoin="round"/>
<path d="M292.827 466.032H367.727" stroke="#97ACFB" stroke-width="2" stroke-miterlimit="10" stroke-linecap="round" stroke-linejoin="round"/>
<path d="M263.518 84.3672C263.518 84.3672 266.254 87.1027 267.426 88.275C268.599 89.4474 267.882 98.24 271.985 104.558C276.089 110.875 280.257 119.733 278.498 124.748C276.74 129.763 274.591 129.959 274.591 129.959H257.005V84.3672H263.518Z" fill="#5171ED"/>
<path d="M261.565 106.056V86.9723L263.519 84.3671H250.493L252.447 86.9723V106.056C247.888 107.879 244.631 112.308 244.631 117.584C244.631 124.422 250.167 129.958 257.006 129.958C263.845 129.958 269.381 124.422 269.381 117.584C269.381 112.373 266.124 107.879 261.565 106.056Z" fill="#E6F3F7"/>
<path d="M314.972 176.853C316.411 176.853 317.577 175.686 317.577 174.247C317.577 172.808 316.411 171.642 314.972 171.642C313.533 171.642 312.367 172.808 312.367 174.247C312.367 175.686 313.533 176.853 314.972 176.853Z" fill="#E6F3F7"/>
<path d="M314.972 193.786C325.763 193.786 334.511 185.038 334.511 174.247C334.511 163.456 325.763 154.708 314.972 154.708C304.181 154.708 295.433 163.456 295.433 174.247C295.433 185.038 304.181 193.786 314.972 193.786Z" fill="#E6F3F7"/>
<path d="M314.972 191.116C324.324 191.116 331.906 183.564 331.906 174.247C331.906 164.931 324.324 157.379 314.972 157.379C305.62 157.379 298.038 164.931 298.038 174.247C298.038 183.564 305.62 191.116 314.972 191.116Z" fill="#E6F3F7"/>
<path d="M311.194 129.959H348.319L367.076 78.5054H329.952L311.194 129.959Z" fill="#E6F3F7"/>
<path d="M314.776 127.353H346.69L363.494 81.1106H331.58L314.776 127.353Z" fill="#E6F3F7"/>
<path d="M348.058 93.1597C347.081 95.8301 344.085 98.0445 341.415 98.0445C338.744 98.0445 337.312 95.8301 338.289 93.1597C339.266 90.4893 342.262 88.2749 344.932 88.2749C347.667 88.2749 349.035 90.4893 348.058 93.1597Z" fill="#E6F3F7"/>
<path d="M266.124 117.584C266.124 122.534 262.021 126.507 257.006 126.507L266.124 117.584Z" fill="#E6F3F7"/>
<path d="M227.046 21.1905C227.046 19.3668 223.789 19.2366 219.881 19.2366C215.974 19.2366 212.782 19.3668 212.717 21.1905V65.4793H227.046V21.1905Z" fill="#E6F3F7"/>
<path d="M219.881 57.1426C222.435 57.1426 224.505 55.0722 224.505 52.5183C224.505 49.9644 222.435 47.894 219.881 47.894C217.327 47.894 215.257 49.9644 215.257 52.5183C215.257 55.0722 217.327 57.1426 219.881 57.1426Z" fill="#E6F3F7"/>
<path d="M215.322 41.3809H224.441V24.6423C223.203 24.4469 221.64 24.4469 219.881 24.4469C218.123 24.4469 216.56 24.4469 215.322 24.6423V41.3809Z" fill="#E6F3F7"/>
<path d="M241.375 21.1905C241.375 19.3668 238.118 19.2366 234.21 19.2366C230.302 19.2366 227.111 19.3668 227.046 21.1905V65.4793H241.375V21.1905Z" fill="#E6F3F7"/>
<path d="M234.211 57.1426C236.765 57.1426 238.835 55.0722 238.835 52.5183C238.835 49.9644 236.765 47.894 234.211 47.894C231.657 47.894 229.586 49.9644 229.586 52.5183C229.586 55.0722 231.657 57.1426 234.211 57.1426Z" fill="#E6F3F7"/>
<path d="M229.651 41.3809H238.77V24.6423C237.532 24.4469 235.969 24.4469 234.211 24.4469C232.452 24.4469 230.889 24.4469 229.651 24.6423V41.3809Z" fill="#E6F3F7"/>
<path d="M258.96 21.1905C258.96 19.3668 255.703 19.2366 251.795 19.2366C247.888 19.2366 244.696 19.3668 244.631 21.1905V65.4793H258.96V21.1905Z" fill="#E6F3F7"/>
<path d="M251.795 57.1426C254.349 57.1426 256.42 55.0722 256.42 52.5183C256.42 49.9644 254.349 47.894 251.795 47.894C249.242 47.894 247.171 49.9644 247.171 52.5183C247.171 55.0722 249.242 57.1426 251.795 57.1426Z" fill="#E6F3F7"/>
<path d="M247.236 41.3809H256.354V24.6423C255.117 24.4469 253.554 24.4469 251.795 24.4469C250.037 24.4469 248.474 24.4469 247.236 24.6423V41.3809Z" fill="#E6F3F7"/>
<path d="M306.505 25.0983C306.505 23.2747 304.291 23.1444 301.686 23.1444C299.08 23.1444 296.736 23.2747 296.736 25.0983V65.4793H306.505V25.0983Z" fill="#E6F3F7"/>
<path d="M316.275 25.0983C316.275 23.2747 314.06 23.1444 311.455 23.1444C308.85 23.1444 306.505 23.2747 306.505 25.0983V65.4793H316.275V25.0983Z" fill="#E6F3F7"/>
<path d="M368.249 23.7956C368.835 22.1022 366.816 21.1904 364.406 20.2785C361.996 19.3667 359.717 18.7154 359.066 20.4088L343.89 62.0272L353.074 65.3489L368.249 23.7956Z" fill="#E6F3F7"/>
<path d="M347.472 23.8608C348.058 22.1674 346.039 21.2555 343.629 20.3437C341.22 19.4319 338.94 18.7806 338.289 20.474L323.113 62.0924L332.297 65.4141L347.472 23.8608Z" fill="#E6F3F7"/>
<path d="M355.874 29.2015C356.46 27.5081 354.441 26.5962 352.032 25.6844C349.622 24.7726 347.342 24.1213 346.691 25.8147L333.534 61.897L342.718 65.2187L355.874 29.2015Z" fill="#E6F3F7"/>
<path d="M311.064 214.628C311.064 212.805 307.808 212.674 303.9 212.674C299.992 212.674 296.801 212.805 296.736 214.628V258.917H311.064V214.628Z" fill="#E6F3F7"/>
<path d="M303.9 250.58C306.454 250.58 308.524 248.51 308.524 245.956C308.524 243.402 306.454 241.332 303.9 241.332C301.346 241.332 299.276 243.402 299.276 245.956C299.276 248.51 301.346 250.58 303.9 250.58Z" fill="#E6F3F7"/>
<path d="M299.341 234.819H308.459V218.08C307.222 217.885 305.658 217.885 303.9 217.885C302.141 217.885 300.578 217.885 299.341 218.08V234.819Z" fill="#E6F3F7"/>
<path d="M325.393 214.628C325.393 212.805 322.136 212.674 318.229 212.674C314.321 212.674 311.129 212.805 311.064 214.628V258.917H325.393V214.628Z" fill="#E6F3F7"/>
<path d="M318.229 250.58C320.782 250.58 322.853 248.51 322.853 245.956C322.853 243.402 320.782 241.332 318.229 241.332C315.675 241.332 313.604 243.402 313.604 245.956C313.604 248.51 315.675 250.58 318.229 250.58Z" fill="#E6F3F7"/>
<path d="M313.67 234.819H322.788V218.08C321.55 217.885 319.987 217.885 318.229 217.885C316.47 217.885 314.907 217.885 313.67 218.08V234.819Z" fill="#E6F3F7"/>
<path d="M339.722 214.628C339.722 212.805 336.465 212.674 332.557 212.674C328.65 212.674 325.458 212.805 325.393 214.628V258.917H339.722V214.628Z" fill="#E6F3F7"/>
<path d="M332.557 250.58C335.111 250.58 337.181 248.51 337.181 245.956C337.181 243.402 335.111 241.332 332.557 241.332C330.003 241.332 327.933 243.402 327.933 245.956C327.933 248.51 330.003 250.58 332.557 250.58Z" fill="#E6F3F7"/>
<path d="M327.998 234.819H337.116V218.08C335.879 217.885 334.316 217.885 332.557 217.885C330.799 217.885 329.236 217.885 327.998 218.08V234.819Z" fill="#E6F3F7"/>
<path d="M258.96 21.8418C258.96 21.8418 263.649 26.5312 266.45 29.3318C269.25 32.1324 269.185 39.2317 268.078 42.6836C266.971 46.1355 267.231 51.1506 268.729 57.6636C270.227 64.1767 270.032 65.4793 270.032 65.4793H233.559V21.8418H258.96Z" fill="#5171ED"/>
<path d="M261.565 106.056V86.9724L263.519 84.3672H250.493L252.447 86.9724V106.056C247.887 107.879 244.631 112.308 244.631 117.584C244.631 124.423 250.167 129.959 257.006 129.959C263.844 129.959 269.38 124.423 269.38 117.584C269.38 112.373 266.124 107.879 261.565 106.056Z" fill="#BCCAFF" stroke="#97ACFB" stroke-width="2" stroke-miterlimit="10" stroke-linecap="round" stroke-linejoin="round"/>
<path d="M314.972 193.787C325.763 193.787 334.511 185.039 334.511 174.247C334.511 163.456 325.763 154.708 314.972 154.708C304.181 154.708 295.433 163.456 295.433 174.247C295.433 185.039 304.181 193.787 314.972 193.787Z" fill="#BCCAFF" stroke="#97ACFB" stroke-width="2" stroke-miterlimit="10" stroke-linecap="round" stroke-linejoin="round"/>
<path d="M314.972 191.116C324.324 191.116 331.906 183.564 331.906 174.247C331.906 164.931 324.324 157.379 314.972 157.379C305.619 157.379 298.038 164.931 298.038 174.247C298.038 183.564 305.619 191.116 314.972 191.116Z" fill="#BCCAFF" stroke="#97ACFB" stroke-width="2" stroke-miterlimit="10" stroke-linecap="round" stroke-linejoin="round"/>
<path d="M314.972 171.773V161.742" stroke="#97ACFB" stroke-width="2" stroke-miterlimit="10" stroke-linecap="round" stroke-linejoin="round"/>
<path d="M318.098 174.247H328.78" stroke="#97ACFB" stroke-width="2" stroke-miterlimit="10" stroke-linecap="round" stroke-linejoin="round"/>
<path d="M311.194 129.959H348.319L367.076 78.5055H329.952L311.194 129.959Z" fill="#BCCAFF" stroke="#97ACFB" stroke-width="2" stroke-miterlimit="10" stroke-linecap="round" stroke-linejoin="round"/>
<path d="M314.776 127.353H346.69L363.494 81.1107H331.58L314.776 127.353Z" fill="#BCCAFF" stroke="#97ACFB" stroke-width="2" stroke-miterlimit="10" stroke-linecap="round" stroke-linejoin="round"/>
<path d="M227.046 21.1905C227.046 19.3668 223.789 19.2366 219.881 19.2366C215.973 19.2366 212.782 19.3668 212.717 21.1905V65.4793H227.046V21.1905Z" fill="#BCCAFF" stroke="#97ACFB" stroke-width="2" stroke-miterlimit="10" stroke-linecap="round" stroke-linejoin="round"/>
<path d="M241.375 21.1905C241.375 19.3668 238.118 19.2366 234.21 19.2366C230.302 19.2366 227.111 19.3668 227.046 21.1905V65.4793H241.375V21.1905Z" fill="#BCCAFF" stroke="#97ACFB" stroke-width="2" stroke-miterlimit="10" stroke-linecap="round" stroke-linejoin="round"/>
<path d="M258.96 21.1905C258.96 19.3668 255.703 19.2366 251.795 19.2366C247.887 19.2366 244.696 19.3668 244.631 21.1905V65.4793H258.96V21.1905Z" fill="#BCCAFF" stroke="#97ACFB" stroke-width="2" stroke-miterlimit="10" stroke-linecap="round" stroke-linejoin="round"/>
<path d="M306.505 25.0984C306.505 23.2748 304.291 23.1445 301.685 23.1445C299.08 23.1445 296.735 23.2748 296.735 25.0984V65.4794H306.505V25.0984Z" fill="#BCCAFF" stroke="#97ACFB" stroke-width="2" stroke-miterlimit="10" stroke-linecap="round" stroke-linejoin="round"/>
<path d="M316.274 25.0984C316.274 23.2748 314.06 23.1445 311.455 23.1445C308.85 23.1445 306.505 23.2748 306.505 25.0984V65.4794H316.274V25.0984Z" fill="#BCCAFF" stroke="#97ACFB" stroke-width="2" stroke-miterlimit="10" stroke-linecap="round" stroke-linejoin="round"/>
<path d="M368.248 23.7957C368.835 22.1023 366.816 21.1905 364.406 20.2787C361.996 19.3668 359.716 18.7155 359.065 20.4089L343.89 62.0274L353.073 65.349L368.248 23.7957Z" fill="#BCCAFF" stroke="#97ACFB" stroke-width="2" stroke-miterlimit="10" stroke-linecap="round" stroke-linejoin="round"/>
<path d="M347.472 23.8609C348.058 22.1675 346.039 21.2557 343.629 20.3438C341.22 19.432 338.94 18.7807 338.289 20.4741L323.113 62.0925L332.297 65.4142L347.472 23.8609Z" fill="#BCCAFF" stroke="#97ACFB" stroke-width="2" stroke-miterlimit="10" stroke-linecap="round" stroke-linejoin="round"/>
<path d="M355.874 29.2016C356.46 27.5082 354.441 26.5964 352.031 25.6845C349.621 24.7727 347.342 24.1214 346.691 25.8148L333.534 61.8971L342.718 65.2188L355.874 29.2016Z" fill="#BCCAFF" stroke="#97ACFB" stroke-width="2" stroke-miterlimit="10" stroke-linecap="round" stroke-linejoin="round"/>
<path d="M311.064 214.628C311.064 212.805 307.808 212.674 303.9 212.674C299.992 212.674 296.8 212.805 296.735 214.628V258.917H311.064V214.628Z" fill="#BCCAFF" stroke="#97ACFB" stroke-width="2" stroke-miterlimit="10" stroke-linecap="round" stroke-linejoin="round"/>
<path d="M325.393 214.628C325.393 212.805 322.136 212.674 318.228 212.674C314.32 212.674 311.129 212.805 311.064 214.628V258.917H325.393V214.628Z" fill="#BCCAFF" stroke="#97ACFB" stroke-width="2" stroke-miterlimit="10" stroke-linecap="round" stroke-linejoin="round"/>
<path d="M339.722 214.628C339.722 212.805 336.465 212.674 332.557 212.674C328.65 212.674 325.458 212.805 325.393 214.628V258.917H339.722V214.628Z" fill="#BCCAFF" stroke="#97ACFB" stroke-width="2" stroke-miterlimit="10" stroke-linecap="round" stroke-linejoin="round"/>
<path d="M314.972 176.853C316.411 176.853 317.577 175.686 317.577 174.247C317.577 172.809 316.411 171.642 314.972 171.642C313.533 171.642 312.367 172.809 312.367 174.247C312.367 175.686 313.533 176.853 314.972 176.853Z" stroke="#97ACFB" stroke-width="2" stroke-miterlimit="10" stroke-linecap="round" stroke-linejoin="round"/>
<path d="M348.058 93.1599C347.081 95.8303 344.085 98.0447 341.415 98.0447C338.744 98.0447 337.312 95.8303 338.289 93.1599C339.266 90.4896 342.262 88.2751 344.932 88.2751C347.667 88.2751 349.035 90.4896 348.058 93.1599Z" stroke="#97ACFB" stroke-width="2" stroke-miterlimit="10" stroke-linecap="round" stroke-linejoin="round"/>
<path d="M328.584 104.558H349.491" stroke="#97ACFB" stroke-width="2" stroke-miterlimit="10" stroke-linecap="round" stroke-linejoin="round"/>
<path d="M329.756 109.768H344.541" stroke="#97ACFB" stroke-width="2" stroke-miterlimit="10" stroke-linecap="round" stroke-linejoin="round"/>
<path d="M328.779 112.373H343.564" stroke="#97ACFB" stroke-width="2" stroke-miterlimit="10" stroke-linecap="round" stroke-linejoin="round"/>
<path d="M266.124 117.584C266.124 122.534 262.021 126.507 257.006 126.507" stroke="#97ACFB" stroke-width="2" stroke-miterlimit="10" stroke-linecap="round" stroke-linejoin="round"/>
<path d="M219.881 57.1426C222.435 57.1426 224.505 55.0722 224.505 52.5183C224.505 49.9644 222.435 47.894 219.881 47.894C217.327 47.894 215.257 49.9644 215.257 52.5183C215.257 55.0722 217.327 57.1426 219.881 57.1426Z" stroke="#97ACFB" stroke-width="2" stroke-miterlimit="10" stroke-linecap="round" stroke-linejoin="round"/>
<path d="M215.323 41.3812H224.442V24.6427C223.204 24.4473 221.641 24.4473 219.882 24.4473C218.124 24.4473 216.561 24.4473 215.323 24.6427V41.3812Z" stroke="#97ACFB" stroke-width="2" stroke-miterlimit="10" stroke-linecap="round" stroke-linejoin="round"/>
<path d="M234.21 57.1426C236.764 57.1426 238.834 55.0722 238.834 52.5183C238.834 49.9644 236.764 47.894 234.21 47.894C231.656 47.894 229.585 49.9644 229.585 52.5183C229.585 55.0722 231.656 57.1426 234.21 57.1426Z" stroke="#97ACFB" stroke-width="2" stroke-miterlimit="10" stroke-linecap="round" stroke-linejoin="round"/>
<path d="M229.651 41.3811H238.769V24.6425C237.532 24.4471 235.969 24.4471 234.21 24.4471C232.451 24.4471 230.888 24.4471 229.651 24.6425V41.3811Z" stroke="#97ACFB" stroke-width="2" stroke-miterlimit="10" stroke-linecap="round" stroke-linejoin="round"/>
<path d="M251.795 57.1426C254.349 57.1426 256.419 55.0722 256.419 52.5183C256.419 49.9644 254.349 47.894 251.795 47.894C249.241 47.894 247.171 49.9644 247.171 52.5183C247.171 55.0722 249.241 57.1426 251.795 57.1426Z" stroke="#97ACFB" stroke-width="2" stroke-miterlimit="10" stroke-linecap="round" stroke-linejoin="round"/>
<path d="M247.236 41.3811H256.355V24.6425C255.117 24.4471 253.554 24.4471 251.795 24.4471C250.037 24.4471 248.474 24.4471 247.236 24.6425V41.3811Z" stroke="#97ACFB" stroke-width="2" stroke-miterlimit="10" stroke-linecap="round" stroke-linejoin="round"/>
<path d="M339.265 54.277L343.759 55.9052" stroke="#97ACFB" stroke-width="2" stroke-miterlimit="10" stroke-linecap="round" stroke-linejoin="round"/>
<path d="M338.354 56.6217L342.848 58.25" stroke="#97ACFB" stroke-width="2" stroke-miterlimit="10" stroke-linecap="round" stroke-linejoin="round"/>
<path d="M337.377 59.0966L341.871 60.7248" stroke="#97ACFB" stroke-width="2" stroke-miterlimit="10" stroke-linecap="round" stroke-linejoin="round"/>
<path d="M303.9 250.581C306.454 250.581 308.524 248.51 308.524 245.956C308.524 243.402 306.454 241.332 303.9 241.332C301.346 241.332 299.275 243.402 299.275 245.956C299.275 248.51 301.346 250.581 303.9 250.581Z" stroke="#97ACFB" stroke-width="2" stroke-miterlimit="10" stroke-linecap="round" stroke-linejoin="round"/>
<path d="M299.341 234.819H308.459V218.08C307.222 217.885 305.658 217.885 303.9 217.885C302.141 217.885 300.578 217.885 299.341 218.08V234.819Z" stroke="#97ACFB" stroke-width="2" stroke-miterlimit="10" stroke-linecap="round" stroke-linejoin="round"/>
<path d="M318.228 250.581C320.782 250.581 322.853 248.51 322.853 245.956C322.853 243.402 320.782 241.332 318.228 241.332C315.674 241.332 313.604 243.402 313.604 245.956C313.604 248.51 315.674 250.581 318.228 250.581Z" stroke="#97ACFB" stroke-width="2" stroke-miterlimit="10" stroke-linecap="round" stroke-linejoin="round"/>
<path d="M313.669 234.819H322.787V218.08C321.55 217.885 319.987 217.885 318.228 217.885C316.47 217.885 314.906 217.885 313.669 218.08V234.819Z" stroke="#97ACFB" stroke-width="2" stroke-miterlimit="10" stroke-linecap="round" stroke-linejoin="round"/>
<path d="M332.557 250.581C335.111 250.581 337.181 248.51 337.181 245.956C337.181 243.402 335.111 241.332 332.557 241.332C330.003 241.332 327.933 243.402 327.933 245.956C327.933 248.51 330.003 250.581 332.557 250.581Z" stroke="#97ACFB" stroke-width="2" stroke-miterlimit="10" stroke-linecap="round" stroke-linejoin="round"/>
<path d="M327.998 234.819H337.116V218.08C335.879 217.885 334.316 217.885 332.557 217.885C330.799 217.885 329.236 217.885 327.998 218.08V234.819Z" stroke="#97ACFB" stroke-width="2" stroke-miterlimit="10" stroke-linecap="round" stroke-linejoin="round"/>
<path d="M308.459 30.3088H314.321" stroke="#97ACFB" stroke-width="2" stroke-miterlimit="10" stroke-linecap="round" stroke-linejoin="round"/>
<path d="M309.11 58.9663H313.669" stroke="#97ACFB" stroke-width="2" stroke-miterlimit="10" stroke-linecap="round" stroke-linejoin="round"/>
<path d="M298.689 30.3088H304.551" stroke="#97ACFB" stroke-width="2" stroke-miterlimit="10" stroke-linecap="round" stroke-linejoin="round"/>
<path d="M299.341 58.9663H303.9" stroke="#97ACFB" stroke-width="2" stroke-miterlimit="10" stroke-linecap="round" stroke-linejoin="round"/>
<path d="M224.996 365.145H219.395V468.573H224.996V365.145Z" fill="#475387"/>
<path d="M222.26 462.711C202.982 462.711 186.438 468.312 183.377 475.867C182.856 477.105 183.833 478.538 185.201 478.538H259.254C260.622 478.538 261.534 477.17 261.078 475.867C257.952 468.377 241.539 462.711 222.26 462.711Z" fill="#475387"/>
<path d="M212.781 219.187C216.364 201.277 220.662 198.997 256.158 198.997C291.654 198.997 289.701 214.954 288.398 229.934C287.095 244.914 274.655 311.412 269.119 333.882C263.583 356.352 258.503 368.076 233.949 368.076C209.395 368.076 175.331 368.076 164.585 368.076C153.838 368.076 151.233 345.932 163.933 345.932C176.634 345.932 200.081 341.047 204.314 310.11C208.548 279.173 212.781 219.187 212.781 219.187Z" fill="#FF8966"/>
<path d="M181.91 318.903C173.964 304.704 141.985 291.548 107.466 320.531C72.9465 349.514 74.5747 344.629 88.5778 371.984C102.581 399.339 121.013 427.019 126.354 436.659C131.694 446.298 132.476 454.57 133.648 467.205C135.276 485.311 138.794 486.353 138.794 486.353C138.794 486.353 142.441 486.809 146.023 478.668C148.628 472.806 149.345 469.81 147.586 465.837C145.893 461.864 145.046 458.477 148.954 461.213C151.429 462.971 153.774 459.91 151.559 456.849C149.345 453.788 146.479 449.62 143.353 447.861C140.226 446.103 137.686 437.31 135.407 429.103C133.127 420.897 130.848 399.274 130.196 396.408C129.545 393.542 122.837 377.52 118.929 370.356C115.021 363.191 111.96 360.391 115.868 358.632C119.775 356.874 161.915 352.575 177.742 351.468C193.699 350.426 186.404 326.979 181.91 318.903Z" fill="#FCD7A8"/>
<path d="M143.417 447.926C143.157 447.796 142.962 447.601 142.701 447.34C143.743 456.784 144.785 474.239 138.989 474.955C137.035 475.216 135.472 473.979 134.169 472.09C135.927 485.637 138.793 486.484 138.793 486.484C138.793 486.484 142.441 486.939 146.023 478.798C148.628 472.936 149.344 469.94 147.586 465.967C145.892 461.994 145.046 458.608 148.954 461.343C151.429 463.102 153.773 460.041 151.559 456.979C149.41 453.788 146.544 449.685 143.417 447.926Z" fill="#FF8966"/>
<path d="M214.866 316.297C206.92 302.099 174.941 288.942 140.422 317.926C105.903 346.909 107.531 342.024 121.534 369.379C135.537 396.734 148.237 425.391 151.82 435.812C155.402 446.233 154.75 454.504 153.643 467.205C152.145 485.311 155.402 486.939 155.402 486.939C155.402 486.939 158.919 488.047 163.869 480.622C167.451 475.281 168.623 472.48 167.646 468.247C166.669 464.013 166.474 460.562 169.796 463.883C171.945 466.033 174.746 463.427 173.117 460.04C171.489 456.654 169.34 452.029 166.604 449.75C163.869 447.47 162.827 435.095 162.045 426.629C161.264 418.162 160.808 393.217 160.677 390.286C160.547 387.355 155.793 374.85 151.885 367.685C147.977 360.521 144.916 357.72 148.824 355.962C152.731 354.203 194.871 349.905 210.698 348.797C226.524 347.69 219.36 324.373 214.866 316.297Z" fill="#FCD7A8"/>
<path d="M210.827 348.863C226.654 347.755 219.424 324.308 214.93 316.297C206.985 302.099 175.005 288.942 140.486 317.926C105.967 346.909 107.595 342.024 121.598 369.379" stroke="#F09D4A" stroke-width="2" stroke-miterlimit="10" stroke-linecap="round" stroke-linejoin="round"/>
<path d="M145.697 330.952C145.697 330.952 131.043 321.508 120.296 319.879C109.55 318.251 109.55 318.251 109.55 318.251C109.55 318.251 137.882 305.225 150.908 301.317C163.934 297.409 169.144 296.432 169.144 296.432L145.697 330.952Z" fill="#9F94F8"/>
<path d="M110.266 272.66L133.257 269.078C146.478 240.941 145.176 235.405 151.233 222.965C156.704 211.893 163.152 202.384 175.266 195.154C192.851 184.668 212.391 185.906 231.018 196.131C249.71 206.357 263.258 228.371 266.123 257.289C268.989 286.207 264.625 299.428 264.365 300.731C264.169 302.034 259.806 301.187 257.656 301.838C255.507 302.49 240.071 304.248 231.604 298.777C223.137 293.371 216.233 292.459 216.233 292.459L219.62 279.433C219.62 279.433 222.877 280.28 231.148 280.996C236.945 281.518 239.42 280.345 243.979 281.648C245.737 282.169 236.815 256.182 236.815 256.182C236.815 256.182 234.014 268.752 233.558 277.479C233.102 286.142 234.209 292.459 234.861 297.67C235.512 302.88 236.815 313.497 238.768 322.224C241.178 332.84 236.098 340.656 231.409 345.867C225.352 352.575 207.115 354.334 199.951 361.498C192.786 368.662 189.53 375.371 189.53 375.371C189.53 375.371 164.129 359.739 154.359 351.468C144.59 343.196 133.517 331.277 133.517 331.277L152.601 311.543C152.601 311.543 136.123 312.65 128.046 317.404C120.035 322.159 118.277 326.067 118.277 326.067L96.9141 325.22C96.9141 325.22 104.274 318.186 118.603 309.263C127.07 303.988 157.681 299.949 163.608 279.433C164.65 275.916 162.631 264.779 162.631 264.779C162.631 264.779 151.493 290.636 126.093 293.241C100.692 295.846 94.2437 279.433 110.266 272.66Z" fill="white"/>
<path d="M165.5 203C159.167 209.667 145.3 229.1 140.5 253.5" stroke="#B7BBD1" stroke-width="1.5"/>
<path d="M178.588 208.832C175.331 226.743 179.89 235.21 179.89 235.21C179.89 235.21 189.66 218.276 203.337 206.227C210.567 199.844 217.471 195.089 222.29 192.028C210.502 187.469 198.583 186.492 187.12 189.944C183.668 194.243 180.086 200.56 178.588 208.832Z" fill="#9F94F8"/>
<path d="M156.183 245.565C156.183 245.565 157.941 212.74 174.94 198.15C190.702 184.668 205.226 183.366 220.532 190.856C235.186 198.02 232.776 207.399 225.351 219.969C222.681 224.463 217.926 229.739 215.061 235.861" stroke="#1B1733" stroke-width="4" stroke-miterlimit="10" stroke-linecap="round" stroke-linejoin="round"/>
<path d="M165.236 223.812C165.236 223.812 158.267 233.126 157.876 241.202C157.486 249.278 161.328 256.833 162.761 264.844C164.194 272.855 163.934 278.131 163.217 281.192C162.501 284.188 160.742 286.533 158.853 288.617C156.965 290.636 154.034 293.111 154.034 293.111" stroke="#B7BBD1" stroke-width="2" stroke-miterlimit="10" stroke-linecap="round" stroke-linejoin="round"/>
<path d="M4.62451 474.044L30.2208 311.738L44.0936 314.018L9.90008 475.281C8.858 480.296 3.77781 479.189 4.62451 474.044Z" fill="#262F59"/>
<path d="M298.038 474.044L272.442 311.738L258.569 314.018L292.828 475.216C293.805 480.296 298.82 479.189 298.038 474.044Z" fill="#262F59"/>
<path d="M86.1686 211.437C91.2045 211.437 95.2869 207.355 95.2869 202.319C95.2869 197.283 91.2045 193.2 86.1686 193.2C81.1327 193.2 77.0503 197.283 77.0503 202.319C77.0503 207.355 81.1327 211.437 86.1686 211.437Z" fill="#B7BBD1"/>
<path d="M81.1533 206.943C82.3257 208.115 83.9539 208.832 85.7776 208.832C89.3598 208.832 92.2907 205.901 92.2907 202.319C92.2907 200.495 91.5742 198.867 90.4019 197.694" stroke="#676D8C" stroke-width="2" stroke-miterlimit="10" stroke-linecap="round" stroke-linejoin="round"/>
<path d="M140.618 291.222V223.421C140.618 218.276 136.449 214.107 131.304 214.107H36.4738C31.3285 214.107 27.1602 218.276 27.1602 223.421V293.046C27.1602 298.191 31.3285 302.359 36.4738 302.359H178.198C183.343 302.359 187.512 298.191 187.512 293.046V291.287H140.618V291.222Z" fill="#DCE0F4"/>
<rect x="48.1133" y="246.082" width="57" height="26" transform="rotate(-6 48.1133 246.082)" fill="white"/>
<path d="M58.4665 265.039L61.087 264.764L60.4411 258.619L67.1442 257.914L67.7901 264.059L70.4177 263.783L68.8973 249.317L66.2697 249.593L66.9134 255.717L60.2102 256.422L59.5666 250.298L56.9461 250.573L58.4665 265.039ZM84.6424 252.597C83.8596 249.43 81.1915 247.825 77.9847 248.162C74.2058 248.559 71.6488 251.613 72.1403 256.289C72.631 260.958 75.7325 263.424 79.5467 263.024C82.9866 262.662 85.0342 260.197 85.1465 257.393L82.5033 257.657C82.3495 259.387 81.0653 260.486 79.3348 260.668C76.9898 260.914 75.1238 259.332 74.7749 256.012C74.4319 252.749 75.9081 250.759 78.2743 250.51C80.0331 250.325 81.5151 251.176 82.0007 252.875L84.6424 252.597ZM88.0496 261.93L90.6701 261.654L90.1564 256.767L92.9252 256.476C96.2662 256.124 97.8495 253.93 97.557 251.147C97.2667 248.385 95.2807 246.544 91.9539 246.894L86.5292 247.464L88.0496 261.93ZM89.93 254.612L89.3799 249.378L91.7814 249.126C93.745 248.92 94.7252 249.888 94.887 251.428C95.0488 252.967 94.2951 254.153 92.3456 254.358L89.93 254.612Z" fill="#2F3A6F"/>
<path d="M181.911 295.195H136.254V226.287C136.254 221.532 132.411 217.755 127.657 217.755" stroke="#B7BBD1" stroke-width="2" stroke-miterlimit="10" stroke-linecap="round" stroke-linejoin="round"/>
<path d="M77.4412 216.061H84.1496L87.4061 204.924C87.7318 203.752 86.8851 202.775 85.4522 202.775C84.0194 202.775 82.4562 203.686 82.0003 204.924L77.4412 216.061Z" fill="#253B6D"/>
<path d="M226.394 258.657C228.348 260.871 229.651 263.867 231.67 263.411C234.47 262.695 232.06 257.68 230.302 253.772C229.26 251.492 227.241 247.65 230.041 246.998C231.93 246.542 236.033 254.488 238.639 261.522C241.244 268.361 244.24 280.866 244.24 280.866" stroke="#B7BBD1" stroke-width="2" stroke-miterlimit="10" stroke-linecap="round" stroke-linejoin="round"/>
<path d="M178.588 207.138L191.679 203.426L196.173 214.042" stroke="#1469CC" stroke-width="2" stroke-miterlimit="10" stroke-linecap="round" stroke-linejoin="round"/>
<path d="M216.038 286.989C216.363 284.904 216.363 282.755 216.494 280.671C209.459 278.977 203.533 277.479 202.881 277.349C198.908 276.568 195.066 277.349 191.027 276.893C186.989 276.437 182.56 276.763 179.695 279.629C178.327 280.996 174.745 285.1 171.814 287.314C172.53 289.008 176.894 290.701 183.407 289.008C194.675 286.077 194.023 287.249 204.249 285.556C205.877 285.295 210.567 286.663 215.777 288.421C215.907 288.031 215.973 287.51 216.038 286.989Z" fill="#FCD7A8"/>
<path d="M230.953 195.61C224.049 192.354 223.268 192.354 222.291 192.028C217.406 195.089 210.567 199.909 203.338 206.227C189.66 218.276 179.891 235.21 179.891 235.21C179.891 235.21 175.332 226.743 178.588 208.832C180.086 200.56 183.734 194.243 187.12 189.944C183.473 190.204 178.784 192.354 175.853 194.177C171.945 196.652 168.167 200.235 166.213 202.97L174.811 204.468L167.516 209.679C167.516 209.679 167.386 211.828 168.493 218.601C169.665 225.31 177.546 238.727 177.546 238.727C177.546 238.727 176.96 240.355 175.462 243.416C173.638 247.194 173.117 249.734 173.117 249.734C173.117 249.734 175.918 245.5 182.236 239.183C188.553 232.865 210.111 220.62 210.111 220.62L211.088 207.008L220.076 211.502C220.076 211.502 221.053 209.809 224.57 206.552C226.98 204.338 231.93 200.169 236.229 198.281C234.796 197.173 232.581 196.327 230.953 195.61Z" fill="#E0E2EE"/>
<path d="M211.023 204.208L210.177 220.62C210.177 220.62 203.664 223.226 189.791 233.191C175.918 243.156 173.313 249.669 173.313 249.669" stroke="#B7BBD1" stroke-width="2" stroke-miterlimit="10" stroke-linecap="round" stroke-linejoin="round"/>
<path d="M236.294 198.15C236.294 198.15 231.149 200.821 226.655 204.468C223.919 206.682 220.142 211.372 220.142 211.372L211.023 206.813" stroke="#B7BBD1" stroke-width="2" stroke-miterlimit="10" stroke-linecap="round" stroke-linejoin="round"/>
<path d="M177.807 239.052C177.807 239.052 173.639 233.842 170.382 224.919C167.125 215.996 167.581 209.744 167.581 209.744L177.937 201.798" stroke="#B7BBD1" stroke-width="2" stroke-miterlimit="10" stroke-linecap="round" stroke-linejoin="round"/>
<path d="M166.279 203.426H175.527" stroke="#B7BBD1" stroke-width="2" stroke-miterlimit="10" stroke-linecap="round" stroke-linejoin="round"/>
<path d="M218.448 280.345L213.237 278.847L211.283 287.51L217.34 289.789L218.448 280.345Z" fill="#2F8FFF"/>
<path d="M218.448 278.196C218.448 278.196 218.448 282.95 217.797 286.663C217.145 290.375 215.973 292.85 215.973 292.85C215.973 292.85 226.264 295.651 230.823 297.605C235.382 299.559 241.244 303.336 250.688 302.685C260.132 302.034 261.955 301.643 262.932 301.448C263.844 301.252 264.756 299.819 265.212 297.279C265.668 294.674 265.993 290.506 265.993 290.506" stroke="#B7BBD1" stroke-width="2" stroke-miterlimit="10" stroke-linecap="round" stroke-linejoin="round"/>
<path d="M205.552 172.098C205.552 172.098 207.115 179.067 208.222 188.772C208.874 194.503 194.284 202.123 192.33 201.928C190.702 201.798 189.986 196.848 189.53 193.2C188.097 181.998 187.576 178.481 187.38 172.294C187.12 164.152 205.356 161.742 205.552 172.098Z" fill="#FCD7A8"/>
<path d="M197.28 186.297C195.001 187.729 192.461 188.381 188.944 188.772C188.097 181.542 188.292 179.718 187.38 172.359C186.403 164.152 205.552 165.194 205.291 176.657C204.445 179.653 202.491 183.04 197.28 186.297Z" fill="#F09D4A"/>
<path d="M189.204 129.503C172.596 129.959 171.294 141.096 171.749 158.095C172.14 172.359 177.22 183.04 182.431 184.147C191.549 186.166 208.027 181.477 212.912 168.842C222.942 142.724 209.395 128.982 189.204 129.503Z" fill="#FCD7A8"/>
<path d="M180.607 154.513C180.607 154.513 182.692 152.624 187.772 152.624C193.829 152.624 195.913 153.862 195.913 153.862C195.913 153.862 197.672 164.543 187.967 164.543C179.891 164.543 180.607 154.513 180.607 154.513Z" stroke="#253B6D" stroke-width="2" stroke-miterlimit="10" stroke-linecap="round" stroke-linejoin="round"/>
<path d="M177.155 154.513C177.155 154.513 175.331 152.624 170.902 152.624C165.627 152.624 163.803 153.862 163.803 153.862C163.803 153.862 162.305 164.543 170.707 164.543C177.806 164.543 177.155 154.513 177.155 154.513Z" stroke="#253B6D" stroke-width="2" stroke-miterlimit="10" stroke-linecap="round" stroke-linejoin="round"/>
<path d="M163.803 154.578C163.803 154.578 165.562 153.34 170.902 153.34C175.331 153.34 177.155 155.229 177.155 155.229H180.672C180.672 155.229 182.756 153.34 187.836 153.34C193.894 153.34 195.978 154.578 195.978 154.578H203.337" stroke="#253B6D" stroke-width="2" stroke-miterlimit="10" stroke-linecap="round" stroke-linejoin="round"/>
<path d="M205.943 160.635C204.836 154.578 199.756 147.674 190.442 146.437C181.128 145.199 178.393 147.414 172.857 146.632C166.669 145.72 163.217 141.747 162.761 136.016C162.305 130.415 164.129 125.009 169.6 122.534C175.788 119.733 183.538 123.771 183.538 123.771C183.538 123.771 194.024 118.756 205.552 121.622C217.276 124.553 218.578 132.368 218.578 132.368C218.578 132.368 221.118 123.771 231.149 126.963C242.742 130.74 243.198 154.839 234.731 160.375C227.045 165.39 220.532 156.271 220.532 156.271C220.532 156.271 220.011 168.321 214.67 172.424C209.33 176.527 208.678 175.811 205.943 160.635Z" fill="#2F3A6F"/>
<path d="M208.557 152.917C205.412 152.561 202.518 155.315 202.093 159.068C201.668 162.821 203.874 166.152 207.02 166.508C210.165 166.864 213.059 164.11 213.484 160.357C213.908 156.604 211.703 153.273 208.557 152.917Z" fill="#FCD7A8"/>
<path d="M192.591 264.258L191.028 263.476C188.227 262.109 187.12 258.722 188.488 255.921L196.369 240.16C199.365 234.168 206.659 231.693 212.651 234.689L216.82 236.773C222.812 239.769 225.287 247.063 222.291 253.056L214.41 268.817C213.042 271.618 209.655 272.725 206.855 271.357L205.422 270.641" stroke="#253B6D" stroke-width="2" stroke-miterlimit="10" stroke-linecap="round" stroke-linejoin="round"/>
<path d="M194.61 243.742L196.434 240.16C199.43 234.168 206.724 231.693 212.716 234.689L216.885 236.773C222.877 239.769 225.351 247.063 222.355 253.056L220.662 256.442" stroke="#1B1733" stroke-width="4" stroke-miterlimit="10" stroke-linecap="round" stroke-linejoin="round"/>
<path d="M194.219 266.863L192.591 265.886C192.07 265.561 191.874 264.909 192.135 264.388L192.395 263.802C192.656 263.281 193.307 263.021 193.893 263.216L195.652 263.932C196.303 264.193 196.564 264.909 196.238 265.561L195.847 266.407C195.587 266.994 194.805 267.254 194.219 266.863Z" fill="#2F8FFF"/>
<path d="M202.23 270.901L203.989 271.618C204.575 271.878 205.226 271.618 205.487 271.032L205.747 270.445C206.008 269.924 205.813 269.208 205.291 268.947L203.663 267.97C203.077 267.645 202.295 267.84 202.035 268.426L201.644 269.273C201.319 269.924 201.644 270.641 202.23 270.901Z" fill="#2F8FFF"/>
<path d="M156.835 245.109C156.704 245.109 156.118 245.109 155.988 245.109C151.233 245.109 147.391 249.213 147.391 254.293C147.391 259.373 151.233 263.476 155.988 263.476C156.118 263.476 156.704 263.476 156.835 263.476C161.589 263.476 165.432 259.373 165.432 254.293C165.432 249.213 161.524 245.109 156.835 245.109Z" fill="#253B6D"/>
<path d="M161.394 249.213C160.742 249.213 158.202 249.213 157.551 249.213C154.685 249.213 152.406 251.688 152.406 254.749C152.406 257.81 154.685 260.285 157.551 260.285C158.202 260.285 160.742 260.285 161.394 260.285C164.26 260.285 166.539 257.81 166.539 254.749C166.539 251.688 164.194 249.213 161.394 249.213Z" fill="#2F8FFF"/>
<path d="M160.742 261.066C164.016 261.066 166.669 258.238 166.669 254.749C166.669 251.26 164.016 248.431 160.742 248.431C157.469 248.431 154.815 251.26 154.815 254.749C154.815 258.238 157.469 261.066 160.742 261.066Z" fill="#1B1733"/>
<path d="M166.669 449.815C166.474 449.62 166.278 449.424 166.083 449.099C165.431 458.608 163.478 475.932 157.616 475.607C155.662 475.476 154.294 474.044 153.382 471.894C152.796 485.507 155.401 486.874 155.401 486.874C155.401 486.874 158.918 487.981 163.868 480.557C167.451 475.216 168.623 472.415 167.646 468.182C166.669 463.948 166.474 460.496 169.795 463.818C171.945 465.967 174.745 463.362 173.117 459.975C171.489 456.589 169.47 452.095 166.669 449.815Z" fill="#FF8966"/>
<path d="M326.109 420.441C328.258 414.84 325.783 412.43 318.293 408.783C310.803 405.135 302.336 400.185 308.198 391.914C314.06 383.642 311.715 380.581 302.662 371.984C293.544 363.387 292.241 357.004 302.011 354.789C311.78 352.64 309.501 349.253 303.639 338.832C297.777 328.412 300.057 322.289 308.198 319.163C316.339 316.037 325.132 323.136 326.109 335.446C327.086 347.69 328.063 357.59 334.901 351.403C341.74 345.28 346.951 364.559 339.786 375.957C332.622 387.29 333.599 393.477 340.763 394.975C347.928 396.538 340.177 419.204 336.4 423.242C332.622 427.28 324.806 423.763 326.109 420.441Z" fill="#3B9F5F"/>
<path d="M338.158 419.139C339.07 413.212 335.879 407.415 329.691 399.925C323.504 392.435 319.27 384.619 325.458 376.804C331.645 368.988 338.484 370.616 328.063 357.916C317.642 345.215 315.037 336.748 322.852 330.235C330.668 323.722 332.622 323.722 327.412 311.022C322.201 298.321 322.527 289.529 332.296 287.249C342.066 284.97 342.066 281.387 333.273 269.013C324.481 256.638 325.458 246.217 334.25 243.612C343.043 241.006 343.694 239.052 335.879 227.98C328.063 216.908 322.527 201.928 332.296 199.974C342.066 198.02 344.346 197.043 341.74 185.971C339.135 174.899 344.671 162.85 357.046 165.781C369.421 168.711 366.49 179.132 362.582 187.274C358.674 195.415 357.046 201.407 364.21 201.472C371.375 201.602 372.352 216.582 362.582 224.398C352.813 232.214 351.51 241.593 361.28 241.983C371.049 242.374 375.934 253.381 366.816 263.802C357.697 274.223 350.533 281.713 360.628 283.667C370.723 285.621 376.585 297.996 360.954 310.696C345.323 323.397 340.112 335.446 349.556 335.446C359 335.446 367.467 336.097 359.977 351.077C352.487 366.057 345.974 375.501 355.743 376.152C365.513 376.804 369.421 384.294 361.931 396.343C354.441 408.392 350.533 415.231 348.253 421.092C345.974 426.954 337.181 425.652 338.158 419.139Z" fill="#7CDB9F"/>
<path d="M356.394 171.968C356.394 171.968 343.043 202.579 345.648 224.398C348.253 246.217 353.464 263.867 350.207 283.211C346.95 302.555 333.599 322.419 337.832 346.192C342.066 369.965 345.648 386.899 345.322 401.553C344.997 416.207 343.043 421.744 343.043 421.744" stroke="#53B576" stroke-width="2" stroke-miterlimit="10" stroke-linecap="round" stroke-linejoin="round"/>
<path d="M327.802 203.296C327.802 203.296 335.227 206.552 339.46 211.111C343.694 215.67 344.996 218.276 344.996 218.276" stroke="#53B576" stroke-width="2" stroke-miterlimit="10" stroke-linecap="round" stroke-linejoin="round"/>
<path d="M351.119 265.105C351.119 265.105 354.636 259.308 358.935 254.814C365.448 247.845 369.877 246.477 369.877 246.477" stroke="#53B576" stroke-width="2" stroke-miterlimit="10" stroke-linecap="round" stroke-linejoin="round"/>
<path d="M325.653 291.417C325.653 291.417 339.461 301.903 340.763 312.65" stroke="#53B576" stroke-width="2" stroke-miterlimit="10" stroke-linecap="round" stroke-linejoin="round"/>
<path d="M340.893 363.191C340.893 363.191 346.95 345.215 360.497 337.725" stroke="#53B576" stroke-width="2" stroke-miterlimit="10" stroke-linecap="round" stroke-linejoin="round"/>
<path d="M337.833 478.863C324.546 478.863 313.734 468.052 313.734 454.765V414.579H361.931V454.765C361.931 468.052 351.119 478.863 337.833 478.863Z" fill="#9F94F8"/>
<rect x="311" y="414" width="54" height="18" fill="#9F94F8"/>
<path d="M362.5 432H313.5V436L362.5 432Z" fill="#796DDA"/>
<rect y="302" width="303" height="14" fill="#263059"/>
</svg>
