<svg width="224" height="85" viewBox="0 0 224 85" fill="none" xmlns="http://www.w3.org/2000/svg">
<path d="M84.734 42.367C84.734 65.7657 65.7657 84.734 42.367 84.734C18.9684 84.734 0 65.7657 0 42.367C0 18.9684 18.9684 0 42.367 0C65.7657 0 84.734 18.9684 84.734 42.367Z" fill="#676D8C"/>
<path fill-rule="evenodd" clip-rule="evenodd" d="M63.7363 85H216C220.418 85 224 81.4183 224 77V67H83.2023C78.5627 74.6912 71.8047 80.9606 63.7363 85Z" fill="#92BBA4"/>
<path fill-rule="evenodd" clip-rule="evenodd" d="M85.8259 62C88.5078 56.0506 90.0003 49.4495 90.0003 42.4999C90.0003 23.8997 79.3093 7.79645 63.7371 0H216C220.418 0 224 3.58172 224 8V62H85.8259Z" fill="white"/>
<path d="M160.893 78.1884C161.53 78.1884 161.864 77.8457 161.978 77.6077H162.006V78.1028H162.568V75.6942C162.568 74.5327 161.683 74.3994 161.216 74.3994C160.664 74.3994 160.036 74.5899 159.75 75.2563L160.283 75.4467C160.407 75.1801 160.7 74.8945 161.235 74.8945C161.752 74.8945 162.006 75.1682 162.006 75.6371V75.6561C162.006 75.9274 161.73 75.9036 161.064 75.9893C160.386 76.0774 159.646 76.2273 159.646 77.0651C159.646 77.7791 160.198 78.1884 160.893 78.1884ZM160.978 77.6839C160.531 77.6839 160.207 77.484 160.207 77.0936C160.207 76.6652 160.598 76.5319 161.035 76.4748C161.273 76.4463 161.911 76.3796 162.006 76.2654V76.7795C162.006 77.2364 161.645 77.6839 160.978 77.6839Z" fill="white"/>
<path d="M166.183 75.2658C166.007 74.7469 165.612 74.3994 164.888 74.3994C164.117 74.3994 163.546 74.8374 163.546 75.4562C163.546 75.9607 163.846 76.2987 164.517 76.4558L165.126 76.5986C165.495 76.6843 165.669 76.8604 165.669 77.1127C165.669 77.4268 165.336 77.6839 164.812 77.6839C164.353 77.6839 164.065 77.4863 163.965 77.0936L163.432 77.2269C163.562 77.8481 164.074 78.1789 164.821 78.1789C165.671 78.1789 166.249 77.7148 166.249 77.0841C166.249 76.5748 165.931 76.2535 165.278 76.094L164.736 75.9607C164.303 75.8536 164.107 75.7085 164.107 75.4276C164.107 75.1135 164.441 74.885 164.888 74.885C165.378 74.885 165.581 75.1563 165.678 75.4086L166.183 75.2658Z" fill="white"/>
<path d="M170.465 78.1789C171.455 78.1789 172.122 77.4268 172.122 76.2939C172.122 75.1515 171.455 74.3994 170.465 74.3994C169.475 74.3994 168.809 75.1515 168.809 76.2939C168.809 77.4268 169.475 78.1789 170.465 78.1789ZM170.465 77.6744C169.713 77.6744 169.37 77.027 169.37 76.2939C169.37 75.5609 169.713 74.904 170.465 74.904C171.217 74.904 171.56 75.5609 171.56 76.2939C171.56 77.027 171.217 77.6744 170.465 77.6744Z" fill="white"/>
<path d="M174.607 74.447H173.788V74.0758C173.788 73.714 173.94 73.5236 174.312 73.5236C174.474 73.5236 174.569 73.5617 174.626 73.5807L174.788 73.0952C174.702 73.0571 174.531 73 174.255 73C173.731 73 173.226 73.3142 173.226 73.9425V74.447H172.636V74.9231H173.226V78.1028H173.788V74.9231H174.607V74.447Z" fill="white"/>
<path d="M177.27 78.1028H180.345V77.5792H178.079V77.5411L179.174 76.3701C180.011 75.4728 180.259 75.054 180.259 74.5137C180.259 73.7616 179.65 73.1618 178.793 73.1618C177.938 73.1618 177.289 73.7426 177.289 74.5994H177.85C177.85 74.0448 178.21 73.6759 178.774 73.6759C179.302 73.6759 179.707 73.9996 179.707 74.5137C179.707 74.9635 179.442 75.2967 178.878 75.9131L177.27 77.6744V78.1028Z" fill="white"/>
<path d="M182.917 78.1694C183.993 78.1694 184.612 77.2578 184.612 75.6656C184.612 74.0853 183.984 73.1618 182.917 73.1618C181.851 73.1618 181.223 74.0853 181.223 75.6656C181.223 77.2578 181.842 78.1694 182.917 78.1694ZM182.917 77.6458C182.208 77.6458 181.794 76.9342 181.794 75.6656C181.794 74.3994 182.213 73.6759 182.917 73.6759C183.622 73.6759 184.041 74.3994 184.041 75.6656C184.041 76.9342 183.627 77.6458 182.917 77.6458Z" fill="white"/>
<path d="M185.516 78.1028H188.591V77.5792H186.325V77.5411L187.42 76.3701C188.258 75.4728 188.506 75.054 188.506 74.5137C188.506 73.7616 187.896 73.1618 187.039 73.1618C186.185 73.1618 185.535 73.7426 185.535 74.5994H186.097C186.097 74.0448 186.456 73.6759 187.02 73.6759C187.549 73.6759 187.953 73.9996 187.953 74.5137C187.953 74.9635 187.689 75.2967 187.125 75.9131L185.516 77.6744V78.1028Z" fill="white"/>
<path d="M191.164 78.1694C192.24 78.1694 192.859 77.2578 192.859 75.6656C192.859 74.0853 192.23 73.1618 191.164 73.1618C190.098 73.1618 189.469 74.0853 189.469 75.6656C189.469 77.2578 190.088 78.1694 191.164 78.1694ZM191.164 77.6458C190.455 77.6458 190.041 76.9342 190.041 75.6656C190.041 74.3994 190.46 73.6759 191.164 73.6759C191.869 73.6759 192.287 74.3994 192.287 75.6656C192.287 76.9342 191.873 77.6458 191.164 77.6458Z" fill="white"/>
<path d="M195.867 75.4038H193.734V75.9274H195.867V75.4038Z" fill="white"/>
<path d="M198.436 78.1694C199.511 78.1694 200.13 77.2578 200.13 75.6656C200.13 74.0853 199.502 73.1618 198.436 73.1618C197.369 73.1618 196.741 74.0853 196.741 75.6656C196.741 77.2578 197.36 78.1694 198.436 78.1694ZM198.436 77.6458C197.726 77.6458 197.312 76.9342 197.312 75.6656C197.312 74.3994 197.731 73.6759 198.436 73.6759C199.14 73.6759 199.559 74.3994 199.559 75.6656C199.559 76.9342 199.145 77.6458 198.436 77.6458Z" fill="white"/>
<path d="M201.035 78.1028H204.11V77.5792H201.844V77.5411L202.939 76.3701C203.776 75.4728 204.024 75.054 204.024 74.5137C204.024 73.7616 203.415 73.1618 202.558 73.1618C201.703 73.1618 201.054 73.7426 201.054 74.5994H201.615C201.615 74.0448 201.975 73.6759 202.539 73.6759C203.067 73.6759 203.472 73.9996 203.472 74.5137C203.472 74.9635 203.208 75.2967 202.643 75.9131L201.035 77.6744V78.1028Z" fill="white"/>
<path d="M207.196 75.4038H205.064V75.9274H207.196V75.4038Z" fill="white"/>
<path d="M207.946 78.1028H211.021V77.5792H208.755V77.5411L209.85 76.3701C210.688 75.4728 210.935 75.054 210.935 74.5137C210.935 73.7616 210.326 73.1618 209.469 73.1618C208.615 73.1618 207.965 73.7426 207.965 74.5994H208.527C208.527 74.0448 208.886 73.6759 209.45 73.6759C209.979 73.6759 210.383 73.9996 210.383 74.5137C210.383 74.9635 210.119 75.2967 209.555 75.9131L207.946 77.6744V78.1028Z" fill="white"/>
<path d="M211.785 77.1031H214.079V78.1028H214.641V77.1031H215.308V76.5795H214.641V73.2285H213.927L211.785 76.6176V77.1031ZM214.079 76.5795H212.423V76.5415L214.041 73.9806H214.079V76.5795Z" fill="white"/>
<path d="M105.978 74.9557C105.806 73.7181 104.854 73 103.619 73C102.164 73 101.068 74.0608 101.068 75.8615C101.068 77.6594 102.15 78.7229 103.619 78.7229C104.944 78.7229 105.822 77.8661 105.978 76.8026L104.96 76.7971C104.832 77.45 104.299 77.8172 103.633 77.8172C102.73 77.8172 102.082 77.1399 102.082 75.8615C102.082 74.6048 102.724 73.9058 103.636 73.9058C104.313 73.9058 104.843 74.2893 104.96 74.9557H105.978Z" fill="white"/>
<path d="M107.285 78.6468H110.929V77.8008H108.294V76.2803H110.72V75.4344H108.294V73.9221H110.908V73.0762H107.285V78.6468Z" fill="white"/>
<path d="M112.32 78.6468H113.329V76.6067H114.357L115.451 78.6468H116.577L115.372 76.4381C116.028 76.1743 116.373 75.6139 116.373 74.8578C116.373 73.7942 115.688 73.0762 114.409 73.0762H112.32V78.6468ZM113.329 75.769V73.9194H114.254C115.008 73.9194 115.345 74.2648 115.345 74.8578C115.345 75.4507 115.008 75.769 114.26 75.769H113.329Z" fill="white"/>
<path d="M117.44 73.9221H119.162V78.6468H120.163V73.9221H121.885V73.0762H117.44V73.9221Z" fill="white"/>
<path d="M124.133 73.0762H123.124V78.6468H124.133V73.0762Z" fill="white"/>
<path d="M125.609 78.6468H126.618V76.2803H128.933V75.4344H126.618V73.9221H129.178V73.0762H125.609V78.6468Z" fill="white"/>
<path d="M131.489 73.0762H130.48V78.6468H131.489V73.0762Z" fill="white"/>
<path d="M132.965 78.6468H136.61V77.8008H133.974V76.2803H136.4V75.4344H133.974V73.9221H136.588V73.0762H132.965V78.6468Z" fill="white"/>
<path d="M139.888 78.6468C141.586 78.6468 142.592 77.5968 142.592 75.856C142.592 74.1206 141.586 73.0762 139.926 73.0762H138.001V78.6468H139.888ZM139.01 77.7736V73.9493H139.869C141.001 73.9493 141.591 74.5803 141.591 75.856C141.591 77.1371 141.001 77.7736 139.839 77.7736H139.01Z" fill="white"/>
<path d="M102.649 54.9785C103.525 54.9785 104.229 54.5787 104.229 53.6362V49.8758H103.687V50.4565H103.629C103.506 50.2661 103.277 49.8282 102.563 49.8282C101.64 49.8282 101.002 50.5612 101.002 51.6846C101.002 52.827 101.668 53.4743 102.554 53.4743C103.268 53.4743 103.496 53.0555 103.62 52.8555H103.668V53.5981C103.668 54.2074 103.239 54.4835 102.649 54.4835C101.985 54.4835 101.752 54.1336 101.602 53.9313L101.154 54.2455C101.383 54.6287 101.833 54.9785 102.649 54.9785ZM102.63 52.9698C101.925 52.9698 101.564 52.4367 101.564 51.6751C101.564 50.9325 101.916 50.3327 102.63 50.3327C103.315 50.3327 103.677 50.8849 103.677 51.6751C103.677 52.4843 103.306 52.9698 102.63 52.9698Z" fill="#676D8C"/>
<path d="M106.638 53.6076C107.342 53.6076 107.58 53.1697 107.704 52.9698H107.771V53.5315H108.313V48.6572H107.752V50.4565H107.704C107.58 50.2661 107.361 49.8282 106.647 49.8282C105.724 49.8282 105.086 50.5612 105.086 51.7131C105.086 52.8746 105.724 53.6076 106.638 53.6076ZM106.714 53.1031C106.01 53.1031 105.648 52.4843 105.648 51.7036C105.648 50.9325 106 50.3327 106.714 50.3327C107.399 50.3327 107.761 50.8849 107.761 51.7036C107.761 52.5319 107.39 53.1031 106.714 53.1031Z" fill="#676D8C"/>
<path d="M109.42 54.9024H109.982V52.9698H110.029C110.153 53.1697 110.391 53.6076 111.096 53.6076C112.01 53.6076 112.647 52.8746 112.647 51.7131C112.647 50.5612 112.01 49.8282 111.086 49.8282C110.372 49.8282 110.153 50.2661 110.029 50.4565H109.963V49.8758H109.42V54.9024ZM109.972 51.7036C109.972 50.8849 110.334 50.3327 111.019 50.3327C111.733 50.3327 112.086 50.9325 112.086 51.7036C112.086 52.4843 111.724 53.1031 111.019 53.1031C110.344 53.1031 109.972 52.5319 109.972 51.7036Z" fill="#676D8C"/>
<path d="M113.504 53.5315H114.066V51.2181C114.066 50.723 114.456 50.3613 114.989 50.3613C115.139 50.3613 115.294 50.3898 115.332 50.3994V49.8282C115.268 49.8234 115.12 49.8186 115.037 49.8186C114.599 49.8186 114.218 50.0662 114.085 50.4279H114.047V49.8758H113.504V53.5315Z" fill="#676D8C"/>
<path d="M117.824 51.18H115.691V51.7036H117.824V51.18Z" fill="#676D8C"/>
<path d="M118.812 53.5315H119.374V51.2181C119.374 50.723 119.764 50.3613 120.297 50.3613C120.447 50.3613 120.602 50.3898 120.64 50.3994V49.8282C120.576 49.8234 120.428 49.8186 120.345 49.8186C119.907 49.8186 119.526 50.0662 119.393 50.4279H119.355V49.8758H118.812V53.5315Z" fill="#676D8C"/>
<path d="M122.727 53.6076C123.47 53.6076 124.013 53.2363 124.184 52.6842L123.641 52.5319C123.498 52.9127 123.168 53.1031 122.727 53.1031C122.068 53.1031 121.613 52.677 121.587 51.894H124.241V51.656C124.241 50.2946 123.432 49.8282 122.67 49.8282C121.68 49.8282 121.023 50.6088 121.023 51.7322C121.023 52.8555 121.671 53.6076 122.727 53.6076ZM121.587 51.4085C121.625 50.8397 122.028 50.3327 122.67 50.3327C123.279 50.3327 123.67 50.7897 123.67 51.4085H121.587Z" fill="#676D8C"/>
<path d="M125.095 54.9024H125.657V52.9698H125.705C125.828 53.1697 126.066 53.6076 126.771 53.6076C127.685 53.6076 128.323 52.8746 128.323 51.7131C128.323 50.5612 127.685 49.8282 126.761 49.8282C126.047 49.8282 125.828 50.2661 125.705 50.4565H125.638V49.8758H125.095V54.9024ZM125.648 51.7036C125.648 50.8849 126.009 50.3327 126.695 50.3327C127.409 50.3327 127.761 50.9325 127.761 51.7036C127.761 52.4843 127.399 53.1031 126.695 53.1031C126.019 53.1031 125.648 52.5319 125.648 51.7036Z" fill="#676D8C"/>
<path d="M129.589 53.5695C129.825 53.5695 130.017 53.3768 130.017 53.1411C130.017 52.9055 129.825 52.7127 129.589 52.7127C129.353 52.7127 129.161 52.9055 129.161 53.1411C129.161 53.3768 129.353 53.5695 129.589 53.5695Z" fill="#676D8C"/>
<path d="M132.558 53.6076C133.301 53.6076 133.843 53.2363 134.015 52.6842L133.472 52.5319C133.329 52.9127 132.998 53.1031 132.558 53.1031C131.899 53.1031 131.444 52.677 131.418 51.894H134.072V51.656C134.072 50.2946 133.262 49.8282 132.501 49.8282C131.511 49.8282 130.854 50.6088 130.854 51.7322C130.854 52.8555 131.501 53.6076 132.558 53.6076ZM131.418 51.4085C131.456 50.8397 131.858 50.3327 132.501 50.3327C133.11 50.3327 133.5 50.7897 133.5 51.4085H131.418Z" fill="#676D8C"/>
<path d="M137.23 52.0368C137.23 52.7223 136.706 53.0364 136.287 53.0364C135.821 53.0364 135.488 52.6937 135.488 52.1606V49.8758H134.926V52.1987C134.926 53.1316 135.421 53.5791 136.107 53.5791C136.659 53.5791 137.021 53.2839 137.192 52.9127H137.23V53.5315H137.792V49.8758H137.23V52.0368Z" fill="#676D8C"/>
<path d="M140.544 48.4287H140.029L138.459 54.2645H138.973L140.544 48.4287Z" fill="#676D8C"/>
<path d="M144.265 54.9024V49.8758H143.723V50.4565H143.656C143.532 50.2661 143.313 49.8282 142.599 49.8282C141.676 49.8282 141.038 50.5612 141.038 51.7131C141.038 52.8746 141.676 53.6076 142.59 53.6076C143.294 53.6076 143.532 53.1697 143.656 52.9698H143.704V54.9024H144.265ZM143.713 51.7036C143.713 52.5319 143.342 53.1031 142.666 53.1031C141.961 53.1031 141.6 52.4843 141.6 51.7036C141.6 50.9325 141.952 50.3327 142.666 50.3327C143.351 50.3327 143.713 50.8849 143.713 51.7036Z" fill="#676D8C"/>
<path d="M147.017 48.4287H146.503L144.932 54.2645H145.446L147.017 48.4287Z" fill="#676D8C"/>
<path d="M149.386 48.6572H148.796L147.578 49.4664V50.0662L148.768 49.276H148.796V53.5315H149.386V48.6572Z" fill="#676D8C"/>
<path d="M152.502 48.6572H151.912L150.693 49.4664V50.0662L151.883 49.276H151.912V53.5315H152.502V48.6572Z" fill="#676D8C"/>
<path d="M153.79 52.5319H156.084V53.5315H156.646V52.5319H157.312V52.0083H156.646V48.6572H155.932L153.79 52.0463V52.5319ZM156.084 52.0083H154.427V51.9702L156.046 49.4093H156.084V52.0083Z" fill="#676D8C"/>
<path d="M159.794 53.5981C160.869 53.5981 161.488 52.6866 161.488 51.0943C161.488 49.514 160.86 48.5906 159.794 48.5906C158.727 48.5906 158.099 49.514 158.099 51.0943C158.099 52.6866 158.718 53.5981 159.794 53.5981ZM159.794 53.0745C159.084 53.0745 158.67 52.3629 158.67 51.0943C158.67 49.8282 159.089 49.1046 159.794 49.1046C160.498 49.1046 160.917 49.8282 160.917 51.0943C160.917 52.3629 160.503 53.0745 159.794 53.0745Z" fill="#676D8C"/>
<path d="M162.278 52.5319H164.573V53.5315H165.134V52.5319H165.801V52.0083H165.134V48.6572H164.42L162.278 52.0463V52.5319ZM164.573 52.0083H162.916V51.9702L164.535 49.4093H164.573V52.0083Z" fill="#676D8C"/>
<path d="M166.693 53.5315H169.768V53.0079H167.502V52.9698L168.597 51.7988C169.435 50.9015 169.682 50.4827 169.682 49.9424C169.682 49.1903 169.073 48.5906 168.216 48.5906C167.362 48.5906 166.712 49.1713 166.712 50.0281H167.273C167.273 49.4735 167.633 49.1046 168.197 49.1046C168.725 49.1046 169.13 49.4283 169.13 49.9424C169.13 50.3922 168.866 50.7254 168.302 51.3419L166.693 53.1031V53.5315Z" fill="#676D8C"/>
<path d="M170.903 53.5315H171.522L173.692 49.2094V48.6572H170.57V49.1808H173.083V49.2189L170.903 53.5315Z" fill="#676D8C"/>
<path d="M176.093 53.5981C177.079 53.61 177.721 52.8674 177.721 51.9607C177.721 51.0182 177.024 50.3422 176.188 50.3422C175.686 50.3422 175.255 50.5874 174.989 50.9896H174.951C174.953 49.7925 175.415 49.1046 176.169 49.1046C176.683 49.1046 176.993 49.4283 177.102 49.8758H177.683C177.564 49.1094 176.988 48.581 176.169 48.581C175.072 48.581 174.399 49.5521 174.399 51.2847C174.399 53.0864 175.294 53.5886 176.093 53.5981ZM176.093 53.0745C175.482 53.0745 175.034 52.5533 175.037 51.9702C175.039 51.3871 175.508 50.8658 176.112 50.8658C176.71 50.8658 177.15 51.3561 177.15 51.9607C177.15 52.5795 176.691 53.0745 176.093 53.0745Z" fill="#676D8C"/>
<path d="M42.1396 6.92418C42.2112 6.70366 42.5232 6.70366 42.5949 6.92418L43.4958 9.69685H46.4111C46.643 9.69685 46.7394 9.99357 46.5518 10.1299L44.1932 11.8435L45.0941 14.6161C45.1658 14.8367 44.9134 15.02 44.7258 14.8837L42.3672 13.1701L40.0086 14.8837C39.821 15.02 39.5686 14.8367 39.6403 14.6161L40.5412 11.8435L38.1826 10.1299C37.995 9.99357 38.0914 9.69685 38.3233 9.69685H41.2387L42.1396 6.92418Z" fill="white"/>
<path d="M42.1396 70.0594C42.2112 69.8389 42.5232 69.8389 42.5949 70.0594L43.4958 72.8321H46.4111C46.643 72.8321 46.7394 73.1288 46.5518 73.2651L44.1932 74.9787L45.0941 77.7514C45.1658 77.9719 44.9134 78.1553 44.7258 78.019L42.3672 76.3054L40.0086 78.019C39.821 78.1553 39.5686 77.9719 39.6403 77.7514L40.5412 74.9787L38.1826 73.2651C37.995 73.1288 38.0914 72.8321 38.3233 72.8321H41.2387L42.1396 70.0594Z" fill="white"/>
<path d="M57.9125 65.9901C57.9842 65.7696 58.2962 65.7696 58.3678 65.9901L59.2687 68.7628H62.1841C62.4159 68.7628 62.5123 69.0595 62.3248 69.1958L59.9662 70.9094L60.8671 73.682C60.9387 73.9026 60.6863 74.086 60.4987 73.9497L58.1402 72.2361L55.7816 73.9497C55.594 74.086 55.3416 73.9026 55.4132 73.682L56.3141 70.9094L53.9556 69.1958C53.768 69.0595 53.8644 68.7628 54.0963 68.7628H57.0116L57.9125 65.9901Z" fill="white"/>
<path d="M57.9125 10.9369C57.9842 10.7164 58.2962 10.7164 58.3678 10.9369L59.2687 13.7095H62.1841C62.4159 13.7095 62.5123 14.0063 62.3248 14.1426L59.9662 15.8562L60.8671 18.6288C60.9387 18.8494 60.6863 19.0327 60.4987 18.8964L58.1402 17.1828L55.7816 18.8964C55.594 19.0327 55.3416 18.8494 55.4132 18.6288L56.3141 15.8562L53.9556 14.1426C53.768 14.0063 53.8644 13.7095 54.0963 13.7095H57.0116L57.9125 10.9369Z" fill="white"/>
<path d="M26.3163 65.9901C26.388 65.7696 26.7 65.7696 26.7716 65.9901L27.6725 68.7628H30.5879C30.8197 68.7628 30.9162 69.0595 30.7286 69.1958L28.37 70.9094L29.2709 73.682C29.3425 73.9026 29.0901 74.086 28.9025 73.9497L26.544 72.2361L24.1854 73.9497C23.9978 74.086 23.7454 73.9026 23.8171 73.682L24.718 70.9094L22.3594 69.1958C22.1718 69.0595 22.2682 68.7628 22.5001 68.7628H25.4154L26.3163 65.9901Z" fill="white"/>
<path d="M26.3163 10.9369C26.388 10.7164 26.7 10.7164 26.7716 10.9369L27.6725 13.7095H30.5879C30.8197 13.7095 30.9162 14.0063 30.7286 14.1426L28.37 15.8562L29.2709 18.6288C29.3425 18.8494 29.0901 19.0327 28.9025 18.8964L26.544 17.1828L24.1854 18.8964C23.9978 19.0327 23.7454 18.8494 23.8171 18.6288L24.718 15.8562L22.3594 14.1426C22.1718 14.0063 22.2682 13.7095 22.5001 13.7095H25.4154L26.3163 10.9369Z" fill="white"/>
<path d="M14.8276 54.2611C14.8992 54.0406 15.2112 54.0406 15.2828 54.2611L16.1837 57.0338H19.0991C19.331 57.0338 19.4274 57.3305 19.2398 57.4668L16.8812 59.1804L17.7821 61.953C17.8538 62.1736 17.6014 62.357 17.4138 62.2207L15.0552 60.5071L12.6966 62.2207C12.509 62.357 12.2566 62.1736 12.3283 61.953L13.2292 59.1804L10.8706 57.4668C10.683 57.3305 10.7794 57.0338 11.0113 57.0338H13.9267L14.8276 54.2611Z" fill="white"/>
<path d="M14.8276 22.6659C14.8992 22.4454 15.2112 22.4454 15.2828 22.6659L16.1837 25.4386H19.0991C19.331 25.4386 19.4274 25.7353 19.2398 25.8716L16.8812 27.5852L17.7821 30.3578C17.8538 30.5784 17.6014 30.7617 17.4138 30.6254L15.0552 28.9118L12.6966 30.6254C12.509 30.7617 12.2566 30.5784 12.3283 30.3578L13.2292 27.5852L10.8706 25.8716C10.683 25.7353 10.7794 25.4386 11.0113 25.4386H13.9267L14.8276 22.6659Z" fill="white"/>
<path d="M10.519 38.4632C10.5906 38.2427 10.9026 38.2427 10.9743 38.4632L11.8751 41.2359H14.7905C15.0224 41.2359 15.1188 41.5326 14.9312 41.6689L12.5726 43.3825L13.4735 46.1552C13.5452 46.3757 13.2928 46.5591 13.1052 46.4228L10.7466 44.7092L8.38804 46.4228C8.20044 46.5591 7.94804 46.3757 8.0197 46.1552L8.92059 43.3825L6.56202 41.6689C6.37443 41.5326 6.47084 41.2359 6.70271 41.2359H9.61807L10.519 38.4632Z" fill="white"/>
<path d="M69.4018 54.2611C69.4734 54.0406 69.7854 54.0406 69.8571 54.2611L70.758 57.0338H73.6733C73.9052 57.0338 74.0016 57.3305 73.814 57.4668L71.4554 59.1804L72.3563 61.953C72.428 62.1736 72.1756 62.357 71.988 62.2207L69.6294 60.5071L67.2708 62.2207C67.0833 62.357 66.8309 62.1736 66.9025 61.953L67.8034 59.1804L65.4448 57.4668C65.2572 57.3305 65.3536 57.0338 65.5855 57.0338H68.5009L69.4018 54.2611Z" fill="white"/>
<path d="M69.4018 22.6659C69.4734 22.4454 69.7854 22.4454 69.8571 22.6659L70.758 25.4386H73.6733C73.9052 25.4386 74.0016 25.7353 73.814 25.8716L71.4554 27.5852L72.3563 30.3578C72.428 30.5784 72.1756 30.7617 71.988 30.6254L69.6294 28.9118L67.2708 30.6254C67.0833 30.7617 66.8309 30.5784 66.9025 30.3578L67.8034 27.5852L65.4448 25.8716C65.2572 25.7353 65.3536 25.4386 65.5855 25.4386H68.5009L69.4018 22.6659Z" fill="white"/>
<path d="M73.7099 38.4632C73.7815 38.2427 74.0935 38.2427 74.1652 38.4632L75.0661 41.2359H77.9814C78.2133 41.2359 78.3097 41.5326 78.1221 41.6689L75.7635 43.3825L76.6644 46.1552C76.7361 46.3757 76.4837 46.5591 76.2961 46.4228L73.9375 44.7092L71.579 46.4228C71.3914 46.5591 71.139 46.3757 71.2106 46.1552L72.1115 43.3825L69.7529 41.6689C69.5653 41.5326 69.6618 41.2359 69.8936 41.2359H72.809L73.7099 38.4632Z" fill="white"/>
<path d="M27.4993 39.8587C29.7014 39.8587 30.6206 38.9778 30.927 38.6236C31.0514 38.9204 31.1855 39.4757 31.2142 39.7342H32.5546V35.7416H27.5376V37.0916H30.3334V37.1108C30.3334 37.3119 29.6919 38.1257 27.5759 38.1257C25.6131 38.1257 24.8855 37.1395 24.8855 36.2108V36.1055C24.8855 35.1193 25.4217 34.181 27.5951 34.181C29.8163 34.181 30.0748 35.0331 30.1323 35.1959H32.5068V35.1863C32.4685 34.2193 31.7695 32.4863 27.7865 32.4863H27.3748C23.277 32.4863 22.5493 34.6214 22.5493 36.0097V36.2778C22.5493 37.7044 23.4397 39.8587 27.2983 39.8587H27.4993Z" fill="white"/>
<path d="M33.5704 39.7342H38.3002C42.4651 39.7342 43.3172 37.8002 43.3172 36.2682V35.981C43.3172 34.3821 42.4172 32.6108 38.2906 32.6108H33.5704V39.7342ZM35.8013 34.2959H38.1183C40.6842 34.2959 40.9811 35.397 40.9811 36.1246V36.1821C40.9811 36.9097 40.646 38.0204 38.1183 38.0204H35.8013V34.2959Z" fill="white"/>
<path d="M49.4224 37.3597C51.9693 37.3597 52.7448 36.297 52.7448 35.0236V34.9278C52.7448 33.6257 51.9884 32.6108 49.4224 32.6108H44.0799V39.7342H46.3107V37.3597H49.4224ZM46.3107 34.2289H49.3841C50.1022 34.2289 50.4182 34.497 50.4182 34.9853V35.014C50.4182 35.5023 50.0831 35.7608 49.3841 35.7608H46.3107V34.2289Z" fill="white"/>
<path d="M55.7169 34.2289H59.0967C59.7478 34.2289 59.9967 34.5448 59.9967 34.9182V34.9278C59.9967 35.3204 59.7382 35.6268 59.0967 35.6268H55.7169V34.2289ZM55.7169 37.2065H58.6275C59.7286 37.2065 60.1116 37.5895 60.1116 38.4608V39.2842C60.1116 39.5427 60.1499 39.648 60.2169 39.7342H62.4861V39.6863C62.419 39.5714 62.352 39.3895 62.352 38.815V37.7714C62.352 36.8523 61.7297 36.3448 61.002 36.1342C61.4712 35.981 62.3233 35.598 62.3233 34.5736V34.4587C62.3233 33.4342 61.6052 32.6108 59.2307 32.6108H53.4861V39.7342H55.7169V37.2065Z" fill="white"/>
<path d="M31.4254 46.6757H34.8052C35.4563 46.6757 35.7052 46.9916 35.7052 47.365V47.3746C35.7052 47.7672 35.4467 48.0736 34.8052 48.0736H31.4254V46.6757ZM31.4254 49.6533H34.3361C35.4371 49.6533 35.8201 50.0363 35.8201 50.9076V51.731C35.8201 51.9895 35.8584 52.0948 35.9254 52.181H38.1946V52.1331C38.1276 52.0182 38.0605 51.8363 38.0605 51.2619V50.2182C38.0605 49.2991 37.4382 48.7916 36.7105 48.581C37.1797 48.4278 38.0318 48.0448 38.0318 47.0204V46.9055C38.0318 45.881 37.3137 45.0576 34.9393 45.0576H29.1946V52.181H31.4254V49.6533Z" fill="white"/>
<path d="M38.9374 45.0576V52.181H46.5395V50.5246H41.1395V49.3565H46.3193V47.7289H41.1395V46.6757H46.4437V45.0576H38.9374Z" fill="white"/>
<path d="M52.8072 49.8065C55.354 49.8065 56.1295 48.7438 56.1295 47.4704V47.3746C56.1295 46.0725 55.3731 45.0576 52.8072 45.0576H47.4646V52.181H49.6955V49.8065H52.8072ZM49.6955 46.6757H52.7689C53.487 46.6757 53.8029 46.9438 53.8029 47.4321V47.4608C53.8029 47.9491 53.4678 48.2076 52.7689 48.2076H49.6955V46.6757Z" fill="white"/>
<path d="M107.778 16.2463H109.578C109.278 14.3328 107.621 13 105.465 13C102.914 13 101 14.8755 101 18.0171C101 21.1016 102.828 23.0151 105.517 23.0151C107.931 23.0151 109.658 21.4633 109.658 18.95V17.7791H105.703V19.1595H107.95C107.921 20.5494 106.993 21.43 105.527 21.43C103.894 21.43 102.775 20.2067 102.775 17.998C102.775 15.8037 103.913 14.5851 105.489 14.5851C106.664 14.5851 107.464 15.2134 107.778 16.2463Z" fill="#676D8C"/>
<path d="M114.67 22.8818C117.64 22.8818 119.401 21.0445 119.401 17.998C119.401 14.9611 117.64 13.1333 114.736 13.1333H111.366V22.8818H114.67ZM113.132 21.3539V14.6613H114.636C116.616 14.6613 117.649 15.7656 117.649 17.998C117.649 20.24 116.616 21.3539 114.584 21.3539H113.132Z" fill="#676D8C"/>
<path d="M121.079 22.8818H122.845V19.5879H124.711C126.962 19.5879 128.171 18.236 128.171 16.3606C128.171 14.4994 126.977 13.1333 124.735 13.1333H121.079V22.8818ZM122.845 18.1361V14.6089H124.463C125.787 14.6089 126.372 15.3229 126.372 16.3606C126.372 17.3983 125.787 18.1361 124.473 18.1361H122.845Z" fill="#676D8C"/>
<path d="M129.705 22.8818H131.471V19.3118H133.271L135.184 22.8818H137.155L135.046 19.0167C136.193 18.555 136.798 17.5744 136.798 16.2511C136.798 14.3899 135.598 13.1333 133.361 13.1333H129.705V22.8818ZM131.471 17.8457V14.6089H133.09C134.408 14.6089 134.999 15.2134 134.999 16.2511C134.999 17.2888 134.408 17.8457 133.099 17.8457H131.471Z" fill="#676D8C"/>
<path d="M101.466 39.1584H102.647V35.3504H104.779C104.865 35.3504 104.946 35.3504 105.027 35.3456L107.083 39.1584H108.454L106.25 35.1314C107.493 34.7078 108.073 33.6939 108.073 32.3992C108.073 30.676 107.045 29.4099 104.76 29.4099H101.466V39.1584ZM102.647 34.2841V30.4571H104.722C106.303 30.4571 106.912 31.2282 106.912 32.3992C106.912 33.5701 106.303 34.2841 104.741 34.2841H102.647Z" fill="#676D8C"/>
<path d="M112.875 39.3107C114.36 39.3107 115.446 38.5682 115.788 37.4638L114.703 37.1592C114.417 37.9208 113.756 38.3016 112.875 38.3016C111.557 38.3016 110.647 37.4496 110.595 35.8835H115.902V35.4075C115.902 32.6848 114.284 31.7518 112.761 31.7518C110.781 31.7518 109.467 33.3131 109.467 35.5598C109.467 37.8066 110.762 39.3107 112.875 39.3107ZM110.595 34.9125C110.671 33.7748 111.476 32.7609 112.761 32.7609C113.979 32.7609 114.76 33.6749 114.76 34.9125H110.595Z" fill="#676D8C"/>
<path d="M117.611 41.9002H118.735V38.035H118.83C119.077 38.4349 119.553 39.3107 120.962 39.3107C122.79 39.3107 124.066 37.8446 124.066 35.5218C124.066 33.2179 122.79 31.7518 120.943 31.7518C119.515 31.7518 119.077 32.6277 118.83 33.0085H118.697V31.847H117.611V41.9002ZM118.716 35.5027C118.716 33.8653 119.439 32.7609 120.81 32.7609C122.238 32.7609 122.943 33.9605 122.943 35.5027C122.943 37.064 122.219 38.3016 120.81 38.3016C119.458 38.3016 118.716 37.1592 118.716 35.5027Z" fill="#676D8C"/>
<path d="M125.78 39.1584H126.903V34.5317C126.903 33.5416 127.684 32.8181 128.75 32.8181C129.05 32.8181 129.359 32.8752 129.435 32.8942V31.7518C129.307 31.7423 129.012 31.7328 128.845 31.7328C127.969 31.7328 127.208 32.2278 126.941 32.9513H126.865V31.847H125.78V39.1584Z" fill="#676D8C"/>
<path d="M133.61 39.3107C135.095 39.3107 136.18 38.5682 136.523 37.4638L135.438 37.1592C135.152 37.9208 134.49 38.3016 133.61 38.3016C132.291 38.3016 131.382 37.4496 131.33 35.8835H136.637V35.4075C136.637 32.6848 135.019 31.7518 133.496 31.7518C131.515 31.7518 130.202 33.3131 130.202 35.5598C130.202 37.8066 131.496 39.3107 133.61 39.3107ZM131.33 34.9125C131.406 33.7748 132.21 32.7609 133.496 32.7609C134.714 32.7609 135.495 33.6749 135.495 34.9125H131.33Z" fill="#676D8C"/>
<path d="M143.525 33.4845C143.173 32.4468 142.383 31.7518 140.935 31.7518C139.393 31.7518 138.251 32.6277 138.251 33.8653C138.251 34.8744 138.851 35.5503 140.193 35.8645L141.411 36.1501C142.149 36.3214 142.497 36.6737 142.497 37.1782C142.497 37.8066 141.83 38.3207 140.783 38.3207C139.864 38.3207 139.289 37.9256 139.089 37.1402L138.022 37.4067C138.284 38.6491 139.308 39.3107 140.802 39.3107C142.502 39.3107 143.658 38.3825 143.658 37.1211C143.658 36.1025 143.02 35.4599 141.716 35.1409L140.631 34.8744C139.765 34.6602 139.374 34.3698 139.374 33.8081C139.374 33.1798 140.041 32.7229 140.935 32.7229C141.916 32.7229 142.321 33.2655 142.516 33.7701L143.525 33.4845Z" fill="#676D8C"/>
<path d="M148.415 39.3107C149.9 39.3107 150.985 38.5682 151.328 37.4638L150.243 37.1592C149.957 37.9208 149.295 38.3016 148.415 38.3016C147.096 38.3016 146.187 37.4496 146.135 35.8835H151.442V35.4075C151.442 32.6848 149.824 31.7518 148.3 31.7518C146.32 31.7518 145.006 33.3131 145.006 35.5598C145.006 37.8066 146.301 39.3107 148.415 39.3107ZM146.135 34.9125C146.211 33.7748 147.015 32.7609 148.3 32.7609C149.519 32.7609 150.3 33.6749 150.3 34.9125H146.135Z" fill="#676D8C"/>
<path d="M154.274 34.7601C154.274 33.4845 155.064 32.7609 156.14 32.7609C157.183 32.7609 157.816 33.4416 157.816 34.5888V39.1584H158.939V34.5126C158.939 32.6467 157.944 31.7518 156.464 31.7518C155.36 31.7518 154.674 32.2469 154.331 32.9894H154.236V31.847H153.151V39.1584H154.274V34.7601Z" fill="#676D8C"/>
<path d="M164.172 31.847H162.61V30.0953H161.487V31.847H160.383V32.799H161.487V37.3686C161.487 38.6443 162.515 39.2536 163.467 39.2536C163.886 39.2536 164.153 39.1775 164.305 39.1203L164.076 38.1112C163.981 38.1302 163.829 38.1683 163.581 38.1683C163.086 38.1683 162.61 38.016 162.61 37.064V32.799H164.172V31.847Z" fill="#676D8C"/>
<path d="M168.013 39.3298C169.289 39.3298 169.955 38.6443 170.183 38.1683H170.241V39.1584H171.364V34.3413C171.364 32.0184 169.593 31.7518 168.66 31.7518C167.556 31.7518 166.299 32.1326 165.728 33.4654L166.794 33.8462C167.042 33.3131 167.627 32.7419 168.698 32.7419C169.731 32.7419 170.241 33.2893 170.241 34.227V34.2651C170.241 34.8077 169.688 34.7601 168.356 34.9315C166.999 35.1076 165.519 35.4075 165.519 37.083C165.519 38.5111 166.623 39.3298 168.013 39.3298ZM168.184 38.3207C167.289 38.3207 166.642 37.9208 166.642 37.1402C166.642 36.2834 167.423 36.0168 168.299 35.9026C168.775 35.8454 170.05 35.7122 170.241 35.4837V36.5118C170.241 37.4258 169.517 38.3207 168.184 38.3207Z" fill="#676D8C"/>
<path d="M176.594 31.847H175.033V30.0953H173.909V31.847H172.805V32.799H173.909V37.3686C173.909 38.6443 174.938 39.2536 175.89 39.2536C176.308 39.2536 176.575 39.1775 176.727 39.1203L176.499 38.1112C176.404 38.1302 176.251 38.1683 176.004 38.1683C175.509 38.1683 175.033 38.016 175.033 37.064V32.799H176.594V31.847Z" fill="#676D8C"/>
<path d="M178.284 39.1584H179.407V31.847H178.284V39.1584ZM178.855 30.6284C179.293 30.6284 179.655 30.2857 179.655 29.8668C179.655 29.448 179.293 29.1052 178.855 29.1052C178.417 29.1052 178.055 29.448 178.055 29.8668C178.055 30.2857 178.417 30.6284 178.855 30.6284Z" fill="#676D8C"/>
<path d="M184.435 39.3107C186.415 39.3107 187.748 37.8066 187.748 35.5408C187.748 33.256 186.415 31.7518 184.435 31.7518C182.455 31.7518 181.122 33.256 181.122 35.5408C181.122 37.8066 182.455 39.3107 184.435 39.3107ZM184.435 38.3016C182.931 38.3016 182.245 37.0069 182.245 35.5408C182.245 34.0747 182.931 32.7609 184.435 32.7609C185.939 32.7609 186.625 34.0747 186.625 35.5408C186.625 37.0069 185.939 38.3016 184.435 38.3016Z" fill="#676D8C"/>
<path d="M190.586 34.7601C190.586 33.4845 191.376 32.7609 192.452 32.7609C193.495 32.7609 194.128 33.4416 194.128 34.5888V39.1584H195.251V34.5126C195.251 32.6467 194.256 31.7518 192.776 31.7518C191.671 31.7518 190.986 32.2469 190.643 32.9894H190.548V31.847H189.463V39.1584H190.586V34.7601Z" fill="#676D8C"/>
<path d="M147.335 75.4986L147.949 74.9019L150.957 76.597L156.144 72L156.67 72.4969L151.225 79.34L147.335 75.4986Z" fill="white"/>
</svg>
