<svg width="176" height="88" viewBox="0 0 176 88" fill="none" xmlns="http://www.w3.org/2000/svg">
<path d="M148.5 -0.000123272L176 43.9999L148.5 87.9999L27.5 87.9999L-1.9233e-06 43.9999L27.5 -0.000128561L148.5 -0.000123272Z" fill="#FF8966"/>
<path d="M83.1687 37.8325C85.1187 37.8325 86.275 36.6041 86.275 34.5674C86.275 32.5371 85.1187 31.3151 83.2125 31.3151H81V37.8325H83.1687ZM82.1594 36.811V32.3366H83.1469C84.4469 32.3366 85.125 33.0749 85.125 34.5674C85.125 36.0663 84.4469 36.811 83.1125 36.811H82.1594Z" fill="white"/>
<path d="M87.3266 37.8325H88.4578V32.9444H87.3266V37.8325ZM87.8953 32.2507C88.2547 32.2507 88.5484 31.9706 88.5484 31.6269C88.5484 31.28 88.2547 31 87.8953 31C87.5328 31 87.2391 31.28 87.2391 31.6269C87.2391 31.9706 87.5328 32.2507 87.8953 32.2507Z" fill="white"/>
<path d="M91.7086 39.7483C93.0055 39.7483 93.9617 39.1436 93.9617 37.912V32.9444H92.8461V33.7527H92.7836C92.6117 33.3995 92.2523 32.8808 91.4055 32.8808C90.2961 32.8808 89.4242 33.7655 89.4242 35.3725C89.4242 36.9669 90.2961 37.7625 91.4023 37.7625C92.2242 37.7625 92.6086 37.3138 92.7836 36.9542H92.8398V37.8802C92.8398 38.5803 92.3711 38.8763 91.7273 38.8763C91.0461 38.8763 90.7461 38.5485 90.6086 38.2812L89.5898 38.5326C89.7961 39.1977 90.4867 39.7483 91.7086 39.7483ZM91.718 36.8587C90.9711 36.8587 90.5773 36.2668 90.5773 35.3662C90.5773 34.4783 90.9648 33.8259 91.718 33.8259C92.4461 33.8259 92.8461 34.4401 92.8461 35.3662C92.8461 36.2986 92.4398 36.8587 91.718 36.8587Z" fill="white"/>
<path d="M95.1211 37.8325H96.2523V32.9444H95.1211V37.8325ZM95.6898 32.2507C96.0492 32.2507 96.343 31.9706 96.343 31.6269C96.343 31.28 96.0492 31 95.6898 31C95.3273 31 95.0336 31.28 95.0336 31.6269C95.0336 31.9706 95.3273 32.2507 95.6898 32.2507Z" fill="white"/>
<path d="M99.8125 32.9444H98.8656V31.7733H97.7344V32.9444H97.0531V33.8355H97.7344V36.5532C97.7281 37.4729 98.3844 37.9248 99.2344 37.8993C99.5562 37.8898 99.7781 37.8261 99.9 37.7847L99.7094 36.8841C99.6469 36.9001 99.5187 36.9287 99.3781 36.9287C99.0938 36.9287 98.8656 36.8269 98.8656 36.3622V33.8355H99.8125V32.9444Z" fill="white"/>
<path d="M102.14 37.9311C102.893 37.9311 103.343 37.5715 103.549 37.161H103.587V37.8325H104.674V34.561C104.674 33.269 103.64 32.8808 102.724 32.8808C101.715 32.8808 100.94 33.339 100.69 34.2301L101.746 34.3828C101.859 34.0487 102.177 33.7623 102.73 33.7623C103.255 33.7623 103.543 34.036 103.543 34.5165V34.5356C103.543 34.8665 103.202 34.8825 102.355 34.9747C101.424 35.0766 100.534 35.3598 100.534 36.4609C100.534 37.422 101.224 37.9311 102.14 37.9311ZM102.434 37.0846C101.962 37.0846 101.624 36.8651 101.624 36.4418C101.624 35.9995 102.002 35.8149 102.509 35.7417C102.805 35.7003 103.399 35.6239 103.546 35.503V36.079C103.546 36.6232 103.115 37.0846 102.434 37.0846Z" fill="white"/>
<path d="M106.943 31.3151H105.812V37.8325H106.943V31.3151Z" fill="white"/>
<path d="M111.686 37.8325H112.83L114.114 33.2595H114.164L115.445 37.8325H116.589L118.395 31.3151H117.148L115.995 36.1077H115.939L114.705 31.3151H113.57L112.339 36.1045H112.28L111.127 31.3151H109.88L111.686 37.8325Z" fill="white"/>
<path d="M120.784 37.928C121.903 37.928 122.672 37.371 122.872 36.5214L121.816 36.4004C121.663 36.8141 121.287 37.0305 120.8 37.0305C120.069 37.0305 119.584 36.5405 119.575 35.7035H122.919V35.3503C122.919 33.635 121.906 32.8808 120.725 32.8808C119.35 32.8808 118.453 33.9087 118.453 35.4171C118.453 36.951 119.338 37.928 120.784 37.928ZM119.578 34.927C119.612 34.3033 120.066 33.7782 120.741 33.7782C121.391 33.7782 121.828 34.2619 121.834 34.927H119.578Z" fill="white"/>
<path d="M123.926 37.8325H125.038V37.0624H125.104C125.282 37.4188 125.654 37.9184 126.479 37.9184C127.61 37.9184 128.457 37.0051 128.457 35.3948C128.457 33.7655 127.585 32.8808 126.476 32.8808C125.629 32.8808 125.276 33.3995 125.104 33.7527H125.057V31.3151H123.926V37.8325ZM125.035 35.3884C125.035 34.4401 125.435 33.8259 126.163 33.8259C126.916 33.8259 127.304 34.4783 127.304 35.3884C127.304 36.305 126.91 36.9733 126.163 36.9733C125.441 36.9733 125.035 36.3368 125.035 35.3884Z" fill="white"/>
<path d="M129.419 37.8325H130.55V32.9444H129.419V37.8325ZM129.988 32.2507C130.347 32.2507 130.641 31.9706 130.641 31.6269C130.641 31.28 130.347 31 129.988 31C129.625 31 129.331 31.28 129.331 31.6269C129.331 31.9706 129.625 32.2507 129.988 32.2507Z" fill="white"/>
<path d="M132.845 34.9684C132.845 34.2619 133.263 33.8546 133.86 33.8546C134.445 33.8546 134.795 34.246 134.795 34.8984V37.8325H135.926V34.7202C135.929 33.5491 135.273 32.8808 134.282 32.8808C133.563 32.8808 133.07 33.2308 132.851 33.775H132.795V32.9444H131.713V37.8325H132.845V34.9684Z" fill="white"/>
<path d="M138.457 37.9311C139.21 37.9311 139.66 37.5715 139.866 37.161H139.904V37.8325H140.991V34.561C140.991 33.269 139.957 32.8808 139.041 32.8808C138.032 32.8808 137.257 33.339 137.007 34.2301L138.063 34.3828C138.176 34.0487 138.495 33.7623 139.048 33.7623C139.573 33.7623 139.86 34.036 139.86 34.5165V34.5356C139.86 34.8665 139.52 34.8825 138.673 34.9747C137.741 35.0766 136.851 35.3598 136.851 36.4609C136.851 37.422 137.541 37.9311 138.457 37.9311ZM138.751 37.0846C138.279 37.0846 137.941 36.8651 137.941 36.4418C137.941 35.9995 138.32 35.8149 138.826 35.7417C139.123 35.7003 139.716 35.6239 139.863 35.503V36.079C139.863 36.6232 139.432 37.0846 138.751 37.0846Z" fill="white"/>
<path d="M142.129 37.8325H143.26V34.9588C143.26 34.3383 143.72 33.8991 144.341 33.8991C144.532 33.8991 144.77 33.9341 144.866 33.9659V32.9062C144.763 32.8871 144.585 32.8744 144.46 32.8744C143.91 32.8744 143.451 33.1926 143.276 33.7591H143.226V32.9444H142.129V37.8325Z" fill="white"/>
<path d="M96.675 54.6352H99.2656C100.731 54.6352 101.45 53.8747 101.45 52.8595C101.45 51.873 100.762 51.2938 100.081 51.2588V51.1951C100.706 51.0456 101.2 50.6 101.2 49.8076C101.2 48.837 100.512 48.1178 99.125 48.1178H96.675V54.6352ZM97.8344 53.6487V51.7393H99.1125C99.8281 51.7393 100.272 52.1848 100.272 52.7672C100.272 53.2859 99.9219 53.6487 99.0813 53.6487H97.8344ZM97.8344 50.8896V49.0916H99.0063C99.6875 49.0916 100.041 49.4576 100.041 49.9604C100.041 50.5332 99.5844 50.8896 98.9812 50.8896H97.8344Z" fill="white"/>
<path d="M104.502 54.7307C105.909 54.7307 106.802 53.7219 106.802 52.2103C106.802 50.6955 105.909 49.6835 104.502 49.6835C103.096 49.6835 102.202 50.6955 102.202 52.2103C102.202 53.7219 103.096 54.7307 104.502 54.7307ZM104.509 53.8078C103.73 53.8078 103.349 53.1013 103.349 52.2071C103.349 51.3129 103.73 50.5968 104.509 50.5968C105.274 50.5968 105.655 51.3129 105.655 52.2071C105.655 53.1013 105.274 53.8078 104.509 53.8078Z" fill="white"/>
<path d="M109.856 54.7307C111.263 54.7307 112.156 53.7219 112.156 52.2103C112.156 50.6955 111.263 49.6835 109.856 49.6835C108.45 49.6835 107.556 50.6955 107.556 52.2103C107.556 53.7219 108.45 54.7307 109.856 54.7307ZM109.863 53.8078C109.084 53.8078 108.703 53.1013 108.703 52.2071C108.703 51.3129 109.084 50.5968 109.863 50.5968C110.628 50.5968 111.009 51.3129 111.009 52.2071C111.009 53.1013 110.628 53.8078 109.863 53.8078Z" fill="white"/>
<path d="M116.91 51.0392C116.754 50.2118 116.104 49.6835 114.979 49.6835C113.823 49.6835 113.035 50.2627 113.038 51.1665C113.035 51.8793 113.466 52.3503 114.388 52.5444L115.207 52.7195C115.648 52.8181 115.854 52.9995 115.854 53.2764C115.854 53.6105 115.498 53.8619 114.96 53.8619C114.441 53.8619 114.104 53.6328 114.007 53.1936L112.904 53.3018C113.045 54.1993 113.785 54.7307 114.963 54.7307C116.163 54.7307 117.01 54.0974 117.013 53.1714C117.01 52.4744 116.57 52.048 115.663 51.8475L114.845 51.6693C114.357 51.5579 114.163 51.3861 114.166 51.1028C114.163 50.7719 114.523 50.5427 114.995 50.5427C115.516 50.5427 115.791 50.8323 115.879 51.1538L116.91 51.0392Z" fill="white"/>
<path d="M120.343 49.7472H119.396V48.5761H118.265V49.7472H117.584V50.6382H118.265V53.3559C118.259 54.2756 118.915 54.7275 119.765 54.7021C120.087 54.6925 120.309 54.6289 120.43 54.5875L120.24 53.6869C120.177 53.7028 120.049 53.7315 119.909 53.7315C119.624 53.7315 119.396 53.6296 119.396 53.165V50.6382H120.343V49.7472Z" fill="white"/>
<path d="M123.363 54.7307C124.481 54.7307 125.25 54.1738 125.45 53.3241L124.394 53.2032C124.241 53.6169 123.866 53.8333 123.378 53.8333C122.647 53.8333 122.162 53.3432 122.153 52.5063H125.497V52.153C125.497 50.4377 124.484 49.6835 123.303 49.6835C121.928 49.6835 121.031 50.7114 121.031 52.2198C121.031 53.7537 121.916 54.7307 123.363 54.7307ZM122.156 51.7298C122.191 51.106 122.644 50.5809 123.319 50.5809C123.969 50.5809 124.406 51.0647 124.412 51.7298H122.156Z" fill="white"/>
<path d="M126.454 54.6352H127.585V51.7616C127.585 51.141 128.045 50.7019 128.666 50.7019C128.857 50.7019 129.095 50.7369 129.191 50.7687V49.709C129.088 49.6899 128.91 49.6772 128.785 49.6772C128.235 49.6772 127.776 49.9954 127.601 50.5618H127.551V49.7472H126.454V54.6352Z" fill="white"/>
<path d="M43.1904 29.713H65.9626V55.3441H43.1904" stroke="#FFE3DA" stroke-width="3"/>
<rect x="36.5996" y="23" width="13.1839" height="13.4258" fill="white"/>
<ellipse cx="43.1912" cy="55.344" rx="7.19121" ry="7.32316" fill="white"/>
<rect width="12.0958" height="12.0958" transform="matrix(0.70065 -0.713506 0.70065 0.713506 57.2559 42.615)" fill="white"/>
</svg>
