<svg width="160" height="320" viewBox="0 0 160 320" fill="none" xmlns="http://www.w3.org/2000/svg">
<path d="M0 50L80 0L160 50V270L80 320L0 270V50Z" fill="#FF8966"/>
<path d="M26.3016 197.543C29.847 197.543 31.9493 195.309 31.9493 191.606C31.9493 187.915 29.847 185.693 26.3811 185.693H22.3584V197.543H26.3016ZM24.4664 195.685V187.55H26.2618C28.6254 187.55 29.8584 188.892 29.8584 191.606C29.8584 194.331 28.6254 195.685 26.1993 195.685H24.4664Z" fill="white"/>
<path d="M33.8612 197.543H35.9181V188.655H33.8612V197.543ZM34.8953 187.394C35.5487 187.394 36.0828 186.885 36.0828 186.26C36.0828 185.629 35.5487 185.12 34.8953 185.12C34.2362 185.12 33.7021 185.629 33.7021 186.26C33.7021 186.885 34.2362 187.394 34.8953 187.394Z" fill="white"/>
<path d="M41.8286 201.026C44.1865 201.026 45.9252 199.926 45.9252 197.687V188.655H43.8968V190.125H43.7831C43.4706 189.483 42.8172 188.539 41.2774 188.539C39.2604 188.539 37.6752 190.148 37.6752 193.07C37.6752 195.969 39.2604 197.415 41.2718 197.415C42.7661 197.415 43.4649 196.599 43.7831 195.946H43.8854V197.629C43.8854 198.902 43.0331 199.44 41.8627 199.44C40.624 199.44 40.0786 198.844 39.8286 198.358L37.9763 198.816C38.3513 200.025 39.607 201.026 41.8286 201.026ZM41.8456 195.772C40.4877 195.772 39.7718 194.696 39.7718 193.058C39.7718 191.444 40.4763 190.258 41.8456 190.258C43.1695 190.258 43.8968 191.375 43.8968 193.058C43.8968 194.754 43.1581 195.772 41.8456 195.772Z" fill="white"/>
<path d="M48.0331 197.543H50.0899V188.655H48.0331V197.543ZM49.0672 187.394C49.7206 187.394 50.2547 186.885 50.2547 186.26C50.2547 185.629 49.7206 185.12 49.0672 185.12C48.4081 185.12 47.874 185.629 47.874 186.26C47.874 186.885 48.4081 187.394 49.0672 187.394Z" fill="white"/>
<path d="M56.5629 188.655H54.8414V186.526H52.7845V188.655H51.5459V190.275H52.7845V195.217C52.7732 196.889 53.9664 197.71 55.5118 197.664C56.097 197.647 56.5004 197.531 56.722 197.456L56.3754 195.818C56.2618 195.847 56.0289 195.899 55.7732 195.899C55.2561 195.899 54.8414 195.714 54.8414 194.869V190.275H56.5629V188.655Z" fill="white"/>
<path d="M60.7945 197.722C62.1638 197.722 62.982 197.068 63.357 196.322H63.4252V197.543H65.4024V191.594C65.4024 189.245 63.5218 188.539 61.857 188.539C60.0218 188.539 58.6127 189.373 58.1581 190.993L60.0786 191.27C60.2831 190.663 60.8627 190.142 61.8683 190.142C62.8229 190.142 63.3456 190.64 63.3456 191.513V191.548C63.3456 192.15 62.7263 192.179 61.1865 192.347C59.4933 192.532 57.874 193.047 57.874 195.049C57.874 196.796 59.1297 197.722 60.7945 197.722ZM61.3286 196.183C60.4706 196.183 59.857 195.784 59.857 195.014C59.857 194.21 60.5445 193.874 61.4649 193.741C62.0047 193.666 63.0843 193.527 63.3513 193.307V194.354C63.3513 195.344 62.5672 196.183 61.3286 196.183Z" fill="white"/>
<path d="M69.5274 185.693H67.4706V197.543H69.5274V185.693Z" fill="white"/>
<path d="M78.151 197.543H80.2306L82.5658 189.228H82.6567L84.9862 197.543H87.0658L90.3499 185.693H88.0828L85.9862 194.407H85.884L83.6396 185.693H81.5771L79.3385 194.401H79.2306L77.134 185.693H74.8669L78.151 197.543Z" fill="white"/>
<path d="M94.6936 197.716C96.7277 197.716 98.1254 196.704 98.4891 195.159L96.5686 194.939C96.2902 195.691 95.6084 196.084 94.722 196.084C93.3925 196.084 92.5118 195.193 92.4948 193.672H98.5743V193.029C98.5743 189.911 96.7334 188.539 94.5857 188.539C92.0857 188.539 90.455 190.408 90.455 193.151C90.455 195.94 92.0629 197.716 94.6936 197.716ZM92.5004 192.26C92.5629 191.126 93.3868 190.171 94.6141 190.171C95.7959 190.171 96.5914 191.051 96.6027 192.26H92.5004Z" fill="white"/>
<path d="M100.405 197.543H102.428V196.142H102.547C102.871 196.79 103.547 197.699 105.047 197.699C107.104 197.699 108.644 196.038 108.644 193.11C108.644 190.148 107.059 188.539 105.042 188.539C103.502 188.539 102.86 189.483 102.547 190.125H102.462V185.693H100.405V197.543ZM102.422 193.099C102.422 191.375 103.15 190.258 104.473 190.258C105.843 190.258 106.547 191.444 106.547 193.099C106.547 194.765 105.831 195.98 104.473 195.98C103.161 195.98 102.422 194.823 102.422 193.099Z" fill="white"/>
<path d="M110.392 197.543H112.449V188.655H110.392V197.543ZM111.427 187.394C112.08 187.394 112.614 186.885 112.614 186.26C112.614 185.629 112.08 185.12 111.427 185.12C110.767 185.12 110.233 185.629 110.233 186.26C110.233 186.885 110.767 187.394 111.427 187.394Z" fill="white"/>
<path d="M116.621 192.335C116.621 191.051 117.383 190.31 118.468 190.31C119.53 190.31 120.167 191.022 120.167 192.208V197.543H122.223V191.884C122.229 189.755 121.036 188.539 119.235 188.539C117.928 188.539 117.03 189.176 116.633 190.165H116.53V188.655H114.564V197.543H116.621V192.335Z" fill="white"/>
<path d="M126.826 197.722C128.195 197.722 129.013 197.068 129.388 196.322H129.456V197.543H131.434V191.594C131.434 189.245 129.553 188.539 127.888 188.539C126.053 188.539 124.644 189.373 124.189 190.993L126.11 191.27C126.314 190.663 126.894 190.142 127.9 190.142C128.854 190.142 129.377 190.64 129.377 191.513V191.548C129.377 192.15 128.758 192.179 127.218 192.347C125.525 192.532 123.905 193.047 123.905 195.049C123.905 196.796 125.161 197.722 126.826 197.722ZM127.36 196.183C126.502 196.183 125.888 195.784 125.888 195.014C125.888 194.21 126.576 193.874 127.496 193.741C128.036 193.666 129.116 193.527 129.383 193.307V194.354C129.383 195.344 128.598 196.183 127.36 196.183Z" fill="white"/>
<path d="M133.502 197.543H135.559V192.318C135.559 191.189 136.394 190.391 137.525 190.391C137.871 190.391 138.303 190.455 138.479 190.512V188.586C138.292 188.551 137.968 188.528 137.74 188.528C136.74 188.528 135.905 189.106 135.587 190.136H135.496V188.655H133.502V197.543Z" fill="white"/>
<path d="M50.8584 228.093H55.5686C58.2334 228.093 59.5402 226.71 59.5402 224.864C59.5402 223.071 58.2902 222.018 57.0516 221.954V221.838C58.1879 221.566 59.0857 220.756 59.0857 219.316C59.0857 217.551 57.8357 216.243 55.3129 216.243H50.8584V228.093ZM52.9664 226.299V222.828H55.2902C56.5914 222.828 57.3982 223.638 57.3982 224.697C57.3982 225.64 56.7618 226.299 55.2334 226.299H52.9664ZM52.9664 221.283V218.014H55.097C56.3357 218.014 56.9777 218.679 56.9777 219.593C56.9777 220.635 56.1482 221.283 55.0516 221.283H52.9664Z" fill="white"/>
<path d="M65.0899 228.267C67.6468 228.267 69.2718 226.432 69.2718 223.684C69.2718 220.93 67.6468 219.09 65.0899 219.09C62.5331 219.09 60.9081 220.93 60.9081 223.684C60.9081 226.432 62.5331 228.267 65.0899 228.267ZM65.1013 226.589C63.6865 226.589 62.9933 225.304 62.9933 223.678C62.9933 222.052 63.6865 220.751 65.1013 220.751C66.4933 220.751 67.1865 222.052 67.1865 223.678C67.1865 225.304 66.4933 226.589 65.1013 226.589Z" fill="white"/>
<path d="M74.8243 228.267C77.3811 228.267 79.0061 226.432 79.0061 223.684C79.0061 220.93 77.3811 219.09 74.8243 219.09C72.2675 219.09 70.6425 220.93 70.6425 223.684C70.6425 226.432 72.2675 228.267 74.8243 228.267ZM74.8357 226.589C73.4209 226.589 72.7277 225.304 72.7277 223.678C72.7277 222.052 73.4209 220.751 74.8357 220.751C76.2277 220.751 76.9209 222.052 76.9209 223.678C76.9209 225.304 76.2277 226.589 74.8357 226.589Z" fill="white"/>
<path d="M87.6496 221.555C87.3655 220.05 86.1837 219.09 84.1382 219.09C82.036 219.09 80.6041 220.143 80.6098 221.786C80.6041 223.082 81.3882 223.939 83.0644 224.292L84.553 224.61C85.3541 224.789 85.7291 225.119 85.7291 225.622C85.7291 226.23 85.0814 226.687 84.1041 226.687C83.161 226.687 82.5473 226.27 82.3712 225.472L80.3655 225.669C80.6212 227.3 81.9678 228.267 84.1098 228.267C86.2916 228.267 87.8314 227.115 87.8371 225.431C87.8314 224.164 87.0303 223.389 85.3825 223.024L83.8939 222.7C83.0075 222.498 82.6553 222.185 82.661 221.67C82.6553 221.069 83.3087 220.652 84.1666 220.652C85.1155 220.652 85.6155 221.179 85.7746 221.763L87.6496 221.555Z" fill="white"/>
<path d="M93.8911 219.206H92.1695V217.076H90.1127V219.206H88.874V220.826H90.1127V225.767C90.1013 227.439 91.2945 228.261 92.8399 228.215C93.4252 228.197 93.8286 228.081 94.0502 228.006L93.7036 226.369C93.5899 226.398 93.357 226.45 93.1013 226.45C92.5843 226.45 92.1695 226.265 92.1695 225.42V220.826H93.8911V219.206Z" fill="white"/>
<path d="M99.3811 228.267C101.415 228.267 102.813 227.254 103.177 225.709L101.256 225.489C100.978 226.241 100.296 226.635 99.4095 226.635C98.08 226.635 97.1993 225.744 97.1823 224.222H103.262V223.58C103.262 220.461 101.421 219.09 99.2732 219.09C96.7732 219.09 95.1425 220.959 95.1425 223.701C95.1425 226.49 96.7504 228.267 99.3811 228.267ZM97.1879 222.81C97.2504 221.676 98.0743 220.722 99.3016 220.722C100.483 220.722 101.279 221.601 101.29 222.81H97.1879Z" fill="white"/>
<path d="M105.002 228.093H107.059V222.868C107.059 221.74 107.894 220.941 109.025 220.941C109.371 220.941 109.803 221.005 109.979 221.063V219.136C109.792 219.101 109.468 219.078 109.241 219.078C108.241 219.078 107.405 219.657 107.087 220.687H106.996V219.206H105.002V228.093Z" fill="white"/>
<path d="M58.7876 96.6514H100.192V143.253H58.7876" stroke="#FFE3DA" stroke-width="3"/>
<rect x="46.8032" y="84.4458" width="23.9707" height="24.4105" fill="white"/>
<ellipse cx="58.7883" cy="143.253" rx="13.0749" ry="13.3148" fill="white"/>
<rect width="21.9924" height="21.9924" transform="matrix(0.70065 -0.713506 0.70065 0.713506 84.3608 120.11)" fill="white"/>
</svg>
