<svg width="674" height="498" viewBox="0 0 674 498" fill="none" xmlns="http://www.w3.org/2000/svg">
<path d="M350 248L329 260L329 236L350 248Z" fill="white"/>
<g filter="url(#filter0_d)">
<rect x="61" y="37" width="552" height="376" rx="5" fill="white" stroke="#E4E6F3" stroke-width="2"/>
<path d="M62 70H612" stroke="#E4E6F3" stroke-width="2"/>
<ellipse cx="78" cy="53" rx="4" ry="4" fill="#CFD2E1"/>
<ellipse cx="96" cy="53" rx="4" ry="4" fill="#CFD2E1"/>
<ellipse cx="114" cy="53" rx="4" ry="4" fill="#CFD2E1"/>
<path d="M282.665 103.364L286.898 110.659V115H289V110.659L293.233 103.364H290.852L288.005 108.511H287.892L285.045 103.364H282.665Z" fill="#263059"/>
<path d="M296.817 115.17C299.373 115.17 300.998 113.369 300.998 110.67C300.998 107.966 299.373 106.159 296.817 106.159C294.26 106.159 292.635 107.966 292.635 110.67C292.635 113.369 294.26 115.17 296.817 115.17ZM296.828 113.523C295.413 113.523 294.72 112.261 294.72 110.665C294.72 109.068 295.413 107.79 296.828 107.79C298.22 107.79 298.913 109.068 298.913 110.665C298.913 112.261 298.22 113.523 296.828 113.523Z" fill="#263059"/>
<path d="M308.307 111.329C308.307 112.659 307.358 113.318 306.449 113.318C305.46 113.318 304.801 112.619 304.801 111.511V106.273H302.744V111.829C302.744 113.926 303.937 115.114 305.653 115.114C306.96 115.114 307.88 114.426 308.278 113.449H308.369V115H310.363V106.273H308.307V111.329Z" fill="#263059"/>
<path d="M312.478 115H314.535V109.869C314.535 108.761 315.371 107.977 316.501 107.977C316.848 107.977 317.28 108.04 317.456 108.096V106.204C317.268 106.17 316.944 106.148 316.717 106.148C315.717 106.148 314.882 106.716 314.564 107.727H314.473V106.273H312.478V115Z" fill="#263059"/>
<path d="M324.592 115H326.74L328.376 109.102H328.496L330.132 115H332.274L334.746 106.273H332.643L331.132 112.375H331.047L329.478 106.273H327.405L325.836 112.409H325.757L324.223 106.273H322.126L324.592 115Z" fill="#263059"/>
<path d="M339.811 115.17C341.845 115.17 343.243 114.176 343.606 112.659L341.686 112.443C341.407 113.182 340.726 113.568 339.839 113.568C338.51 113.568 337.629 112.693 337.612 111.199H343.692V110.568C343.692 107.506 341.851 106.159 339.703 106.159C337.203 106.159 335.572 107.994 335.572 110.687C335.572 113.426 337.18 115.17 339.811 115.17ZM337.618 109.812C337.68 108.699 338.504 107.761 339.731 107.761C340.913 107.761 341.709 108.625 341.72 109.812H337.618Z" fill="#263059"/>
<path d="M345.523 115H347.545V113.625H347.665C347.988 114.261 348.665 115.153 350.165 115.153C352.221 115.153 353.761 113.523 353.761 110.648C353.761 107.739 352.176 106.159 350.159 106.159C348.619 106.159 347.977 107.085 347.665 107.716H347.579V103.364H345.523V115ZM347.54 110.636C347.54 108.943 348.267 107.846 349.591 107.846C350.96 107.846 351.665 109.011 351.665 110.636C351.665 112.273 350.949 113.466 349.591 113.466C348.278 113.466 347.54 112.329 347.54 110.636Z" fill="#263059"/>
<path d="M355.51 115H357.567V106.273H355.51V115ZM356.544 105.034C357.197 105.034 357.731 104.534 357.731 103.92C357.731 103.301 357.197 102.801 356.544 102.801C355.885 102.801 355.351 103.301 355.351 103.92C355.351 104.534 355.885 105.034 356.544 105.034Z" fill="#263059"/>
<path d="M361.738 109.886C361.738 108.625 362.5 107.898 363.585 107.898C364.648 107.898 365.284 108.596 365.284 109.761V115H367.341V109.443C367.346 107.352 366.153 106.159 364.352 106.159C363.045 106.159 362.148 106.784 361.75 107.756H361.648V106.273H359.682V115H361.738V109.886Z" fill="#263059"/>
<path d="M371.943 115.176C373.312 115.176 374.13 114.534 374.505 113.801H374.574V115H376.551V109.159C376.551 106.852 374.67 106.159 373.005 106.159C371.17 106.159 369.761 106.977 369.307 108.568L371.227 108.841C371.432 108.244 372.011 107.733 373.017 107.733C373.971 107.733 374.494 108.221 374.494 109.079V109.114C374.494 109.704 373.875 109.733 372.335 109.898C370.642 110.079 369.023 110.585 369.023 112.551C369.023 114.267 370.278 115.176 371.943 115.176ZM372.477 113.665C371.619 113.665 371.005 113.273 371.005 112.517C371.005 111.727 371.693 111.398 372.613 111.267C373.153 111.193 374.233 111.057 374.5 110.841V111.869C374.5 112.841 373.716 113.665 372.477 113.665Z" fill="#263059"/>
<path d="M378.619 115H380.676V109.869C380.676 108.761 381.511 107.977 382.642 107.977C382.988 107.977 383.42 108.04 383.596 108.096V106.204C383.409 106.17 383.085 106.148 382.858 106.148C381.858 106.148 381.023 106.716 380.704 107.727H380.613V106.273H378.619V115Z" fill="#263059"/>
<path d="M391.861 108.579C391.576 107.102 390.395 106.159 388.349 106.159C386.247 106.159 384.815 107.193 384.821 108.807C384.815 110.079 385.599 110.92 387.275 111.267L388.764 111.579C389.565 111.756 389.94 112.079 389.94 112.574C389.94 113.17 389.292 113.619 388.315 113.619C387.372 113.619 386.758 113.21 386.582 112.426L384.576 112.619C384.832 114.221 386.179 115.17 388.321 115.17C390.503 115.17 392.042 114.04 392.048 112.386C392.042 111.142 391.241 110.381 389.594 110.023L388.105 109.704C387.219 109.506 386.866 109.199 386.872 108.693C386.866 108.102 387.52 107.693 388.378 107.693C389.326 107.693 389.826 108.21 389.986 108.784L391.861 108.579Z" fill="#263059"/>
<rect opacity="0.32" x="82" y="148" width="156" height="100" fill="#E4E6F3"/>
<rect opacity="0.32" x="259" y="148" width="156" height="100" fill="#E4E6F3"/>
<rect opacity="0.32" x="436" y="148" width="156" height="100" fill="#E4E6F3"/>
<rect opacity="0.32" x="82" y="284" width="156" height="100" fill="#E4E6F3"/>
<rect opacity="0.32" x="259" y="284" width="156" height="100" fill="#E4E6F3"/>
<rect opacity="0.32" x="436" y="284" width="156" height="100" fill="#E4E6F3"/>
</g>
<rect x="157" y="130" width="357" height="235" rx="5" fill="white" stroke="#263059" stroke-width="2"/>
<circle cx="336" cy="248" r="40" fill="#263059"/>
<path d="M350 248.124L329 260.249L329 236L350 248.124Z" fill="white"/>
<defs>
<filter id="filter0_d" x="0" y="0" width="674" height="498" filterUnits="userSpaceOnUse" color-interpolation-filters="sRGB">
<feFlood flood-opacity="0" result="BackgroundImageFix"/>
<feColorMatrix in="SourceAlpha" type="matrix" values="0 0 0 0 0 0 0 0 0 0 0 0 0 0 0 0 0 0 127 0"/>
<feOffset dy="24"/>
<feGaussianBlur stdDeviation="30"/>
<feColorMatrix type="matrix" values="0 0 0 0 0.147292 0 0 0 0 0.188873 0 0 0 0 0.35 0 0 0 0.12 0"/>
<feBlend mode="normal" in2="BackgroundImageFix" result="effect1_dropShadow"/>
<feBlend mode="normal" in="SourceGraphic" in2="effect1_dropShadow" result="shape"/>
</filter>
</defs>
</svg>
