<svg width="140" height="150" viewBox="0 0 140 150" fill="none" xmlns="http://www.w3.org/2000/svg">
<rect x="1" y="1" width="138" height="148" rx="3" fill="white" stroke="#E4E6F3" stroke-width="2"/>
<path d="M40.4799 116.563H42.5083C42.4685 114.597 40.7924 113.205 38.3151 113.205C35.8719 113.205 34.0367 114.58 34.0424 116.637C34.0424 118.307 35.2299 119.267 37.1447 119.762L38.4685 120.103C39.7242 120.421 40.5538 120.813 40.5594 121.716C40.5538 122.71 39.6106 123.375 38.2356 123.375C36.9174 123.375 35.8947 122.784 35.8094 121.563H33.7356C33.8208 123.875 35.5424 125.176 38.2526 125.176C41.0424 125.176 42.6617 123.784 42.6674 121.733C42.6617 119.716 40.9969 118.796 39.2469 118.381L38.156 118.108C37.2015 117.881 36.1674 117.478 36.1788 116.506C36.1844 115.631 36.9685 114.989 38.2867 114.989C39.5424 114.989 40.3719 115.574 40.4799 116.563ZM44.5467 125H46.6546V120.057H51.4898V118.29H46.6546V115.131H52.0012V113.364H44.5467V125ZM57.7995 125H59.8563V116.273H57.7995V125ZM58.8336 115.034C59.487 115.034 60.0211 114.534 60.0211 113.921C60.0211 113.301 59.487 112.801 58.8336 112.801C58.1745 112.801 57.6404 113.301 57.6404 113.921C57.6404 114.534 58.1745 115.034 58.8336 115.034ZM64.0282 119.887C64.0282 118.625 64.7896 117.898 65.8748 117.898C66.9373 117.898 67.5736 118.597 67.5736 119.762V125H69.6305V119.443C69.6361 117.353 68.443 116.159 66.6418 116.159C65.335 116.159 64.4373 116.784 64.0396 117.756H63.9373V116.273H61.9714V125H64.0282V119.887ZM79.2043 116.273H77.0168L75.0055 122.756H74.9146L72.9089 116.273H70.7157L73.8236 125H76.0964L79.2043 116.273ZM80.6276 125H82.6844V116.273H80.6276V125ZM81.6617 115.034C82.3151 115.034 82.8492 114.534 82.8492 113.921C82.8492 113.301 82.3151 112.801 81.6617 112.801C81.0026 112.801 80.4685 113.301 80.4685 113.921C80.4685 114.534 81.0026 115.034 81.6617 115.034ZM89.1575 116.273H87.4359V114.182H85.379V116.273H84.1404V117.864H85.379V122.716C85.3677 124.358 86.5609 125.165 88.1063 125.12C88.6915 125.103 89.095 124.989 89.3165 124.915L88.97 123.307C88.8563 123.335 88.6234 123.387 88.3677 123.387C87.8506 123.387 87.4359 123.205 87.4359 122.375V117.864H89.1575V116.273ZM94.6475 125.171C96.6816 125.171 98.0793 124.176 98.443 122.659L96.5225 122.443C96.2441 123.182 95.5623 123.568 94.6759 123.568C93.3464 123.568 92.4657 122.693 92.4486 121.199H98.5282V120.568C98.5282 117.506 96.6873 116.159 94.5396 116.159C92.0396 116.159 90.4089 117.995 90.4089 120.688C90.4089 123.426 92.0168 125.171 94.6475 125.171ZM92.4543 119.813C92.5168 118.699 93.3407 117.762 94.568 117.762C95.7498 117.762 96.5452 118.625 96.5566 119.813H92.4543ZM107.166 118.58C106.882 117.103 105.7 116.159 103.655 116.159C101.552 116.159 100.121 117.193 100.126 118.807C100.121 120.08 100.905 120.921 102.581 121.267L104.069 121.58C104.871 121.756 105.246 122.08 105.246 122.574C105.246 123.171 104.598 123.62 103.621 123.62C102.677 123.62 102.064 123.21 101.888 122.426L99.8819 122.62C100.138 124.222 101.484 125.171 103.626 125.171C105.808 125.171 107.348 124.04 107.353 122.387C107.348 121.142 106.547 120.381 104.899 120.023L103.41 119.705C102.524 119.506 102.172 119.199 102.177 118.693C102.172 118.103 102.825 117.693 103.683 117.693C104.632 117.693 105.132 118.21 105.291 118.784L107.166 118.58Z" fill="#263059"/>
<circle opacity="0.24" cx="69.5" cy="61.0862" r="34.0864" fill="#CFD2E1"/>
<mask id="mask0" mask-type="alpha" maskUnits="userSpaceOnUse" x="35" y="26" width="69" height="70">
<circle cx="69.5" cy="61.0862" r="34.0864" fill="#CFD2E1"/>
</mask>
<g mask="url(#mask0)">
<path d="M69.97 39.8767C69.8938 39.8767 69.8217 39.8957 69.7497 39.8957C69.5251 39.8894 69.3026 39.8746 69.0759 39.8767H69.97ZM69.6226 74.3577C69.5823 74.3577 69.5463 74.3513 69.506 74.3513C69.4764 74.3513 69.4488 74.3577 69.4192 74.3577H69.6226ZM57.0201 61.6704C57.0518 61.6641 57.0751 61.6302 57.109 61.6217C59.1028 68.8362 64.2642 74.2348 69.5081 74.3492C74.2839 74.1289 80.1487 68.8277 82.1022 61.6493C83.0005 61.7043 83.8989 60.645 84.151 59.1703C84.4116 57.632 83.865 56.2591 82.9391 56.1002C82.8798 56.0896 82.8183 56.1277 82.7611 56.1298C82.492 44.2583 76.8518 40.0716 69.7497 39.8915C62.4251 39.9275 55.8674 45.0168 56.2827 56.1341C56.2128 56.1341 56.1471 56.0896 56.0793 56.1023C55.1492 56.2612 54.6068 57.6342 54.8674 59.1724C55.1216 60.7064 56.0878 61.8251 57.0201 61.6704ZM79.3753 76.4108L72.7202 89.4328L70.8437 81.7896L73.3114 77.1397H65.6943L68.1641 81.7896L66.2855 89.4328L59.6389 76.4108C48.0788 77.9681 39.7795 82.9218 39.7795 94.965H99.2219C99.2262 82.9197 90.929 77.9702 79.3753 76.4108Z" fill="#B7BBD1"/>
</g>
</svg>
