<svg width="140" height="150" viewBox="0 0 140 150" fill="none" xmlns="http://www.w3.org/2000/svg">
<rect x="1" y="1" width="138" height="148" rx="3" fill="white" stroke="#E4E6F3" stroke-width="2"/>
<path d="M50.343 125H57.9567V123.233H52.451V120.057H57.5192V118.29H52.451V115.131H57.9112V113.364H50.343V125ZM59.9709 125H62.0277V119.693C62.0277 118.62 62.7436 117.892 63.63 117.892C64.4993 117.892 65.0959 118.478 65.0959 119.375V125H67.1129V119.557C67.1129 118.574 67.6982 117.892 68.6925 117.892C69.522 117.892 70.1811 118.381 70.1811 119.46V125H72.2436V119.142C72.2436 117.193 71.1186 116.159 69.5163 116.159C68.2493 116.159 67.2834 116.784 66.897 117.756H66.8061C66.4709 116.767 65.6243 116.159 64.4482 116.159C63.2777 116.159 62.4027 116.762 62.0391 117.756H61.9368V116.273H59.9709V125ZM76.8416 125.176C78.2109 125.176 79.0291 124.534 79.4041 123.801H79.4723V125H81.4496V119.159C81.4496 116.853 79.5689 116.159 77.9041 116.159C76.0689 116.159 74.6598 116.978 74.2053 118.568L76.1257 118.841C76.3303 118.245 76.9098 117.733 77.9155 117.733C78.87 117.733 79.3928 118.222 79.3928 119.08V119.114C79.3928 119.705 78.7734 119.733 77.2337 119.898C75.5405 120.08 73.9212 120.585 73.9212 122.551C73.9212 124.267 75.1768 125.176 76.8416 125.176ZM77.3757 123.665C76.5178 123.665 75.9041 123.273 75.9041 122.517C75.9041 121.728 76.5916 121.398 77.5121 121.267C78.0518 121.193 79.1314 121.057 79.3984 120.841V121.87C79.3984 122.841 78.6143 123.665 77.3757 123.665ZM83.5178 125H85.5746V116.273H83.5178V125ZM84.5518 115.034C85.2053 115.034 85.7393 114.534 85.7393 113.921C85.7393 113.301 85.2053 112.801 84.5518 112.801C83.8928 112.801 83.3587 113.301 83.3587 113.921C83.3587 114.534 83.8928 115.034 84.5518 115.034ZM89.7464 113.364H87.6896V125H89.7464V113.364Z" fill="#263059"/>
<rect opacity="0.24" x="36.3354" y="35.6384" width="67.2516" height="46.0628" fill="#CFD2E1"/>
<path fill-rule="evenodd" clip-rule="evenodd" d="M42.7732 44.1842L44.6374 41.8337L70.3877 62.2564L94.3229 41.8671L96.2683 44.1509L78.6898 59.1251L96.233 73.1598L94.3589 75.5024L76.364 61.1064L70.4557 66.1393L64.7322 61.6L46.4569 75.5241L44.6387 73.1378L62.3068 59.6764L42.7732 44.1842Z" fill="#B7BBD1"/>
</svg>
