<svg width="48" height="49" viewBox="0 0 48 49" fill="none" xmlns="http://www.w3.org/2000/svg">
<path d="M28.3473 0C28.3473 1.45687 28.3473 3.54828 28.3473 5.00515C34.182 5.03789 40.0113 4.94513 45.8406 5.03789C47.0839 4.91239 48.06 5.87818 47.9455 7.12225C48.0382 17.8714 47.9237 28.6261 48 39.3753C47.9455 40.4775 48.1091 41.6997 47.4711 42.6764C46.6749 43.2439 45.6443 43.1729 44.7173 43.2166C39.2588 43.1893 33.8058 43.2002 28.3473 43.2002C28.3473 44.6571 28.3473 46.7485 28.3473 48.2054C18.9172 46.4345 9.4531 44.8559 0.00242357 43.2002C-0.00302946 30.4704 0.00242357 17.7405 0.00242357 5.01606C9.4526 3.36295 18.9327 1.84774 28.3473 0Z" fill="#267248"/>
<path fill-rule="evenodd" clip-rule="evenodd" d="M16.3418 15.4633L20.612 15.0671L15.4896 24.0586L20.5733 32.9822L16.2807 32.5468L13.4673 27.6084L10.9614 32.0071L7.13784 31.6192L11.4451 24.0586L7.04004 16.3264L10.8815 15.97L13.4673 20.5089L16.3418 15.4633Z" fill="white"/>
<path d="M28.3472 6.64209C34.3455 6.64209 40.3438 6.64209 46.3422 6.64209C46.3422 18.2807 46.3422 29.9247 46.3422 41.5633C40.3438 41.5633 34.3455 41.5633 28.3472 41.5633C28.3472 26.7014 28.3472 14.2748 28.3472 6.64209Z" fill="#F4FAFF"/>
<rect x="25.6001" y="9.28027" width="7.78057" height="4.20571" fill="#267248"/>
<rect x="25.6001" y="15.5889" width="7.78057" height="4.20571" fill="#267248"/>
<rect x="25.6001" y="21.8972" width="7.78057" height="4.20571" fill="#267248"/>
<rect x="25.6001" y="28.2058" width="7.78057" height="4.20571" fill="#267248"/>
<rect x="25.6001" y="34.5144" width="7.78057" height="4.20571" fill="#267248"/>
<rect x="35.9043" y="9.28003" width="7.78057" height="4.20571" fill="#267248"/>
<rect x="35.9043" y="15.5889" width="7.78057" height="4.20571" fill="#267248"/>
<rect x="35.9043" y="21.8972" width="7.78057" height="4.20571" fill="#267248"/>
<rect x="35.9043" y="28.2058" width="7.78057" height="4.20571" fill="#267248"/>
<rect x="35.9043" y="34.5144" width="7.78057" height="4.20571" fill="#267248"/>
</svg>
