<svg width="130" height="21" viewBox="0 0 130 21" fill="none" xmlns="http://www.w3.org/2000/svg">
<path d="M8.17107 13.9916L3.60982 8.14309V19.7561H0V0.727562H2.29462L8.73074 9.51426L14.5792 0.727562H16.7899V19.7561H13.1241V8.7867L9.57023 13.7957L8.17107 13.9916Z" fill="white"/>
<path d="M23.5506 15.6985C23.5506 16.0903 23.7092 16.4447 24.0264 16.7619C24.3435 17.0604 24.7632 17.2096 25.2856 17.2096C25.7893 17.2096 26.293 17.0977 26.7967 16.8738C27.319 16.65 27.8134 16.3142 28.2798 15.8664V13.7957H25.5374C24.9032 13.7957 24.4088 13.9916 24.0543 14.3833C23.7185 14.7751 23.5506 15.2135 23.5506 15.6985ZM25.3416 20.0919C23.6812 20.0919 22.45 19.6908 21.6478 18.8886C20.8456 18.0678 20.4445 17.0044 20.4445 15.6985C20.4445 14.2994 20.9202 13.2267 21.8717 12.4805C22.8231 11.7343 24.0637 11.3611 25.5934 11.3611H28.2518C28.2332 10.6709 28.0279 10.1392 27.6362 9.76611C27.2631 9.37435 26.7407 9.17847 26.0691 9.17847C25.4348 9.17847 24.7446 9.27174 23.9984 9.4583C23.2522 9.62619 22.6272 9.8314 22.1235 10.0739L21.1441 7.05175C21.6664 6.6973 22.4593 6.40814 23.5227 6.18427C24.6047 5.94175 25.4348 5.82049 26.0132 5.82049C27.6362 5.82049 29.026 6.2962 30.1826 7.24763C31.3393 8.1804 31.9176 9.37435 31.9176 10.8295V19.7561H30.0427L29.1473 18.6088C28.6436 19.0005 28.0466 19.3457 27.3564 19.6442C26.6848 19.9426 26.0132 20.0919 25.3416 20.0919Z" fill="white"/>
<path d="M33.698 19.7561L38.8189 12.8722L34.1458 6.71595L37.8675 6.18427L41.1415 10.5496L44.5555 6.18427H48.5291L43.2962 13.4039L48.0814 19.7561H44.0798L40.9457 15.6985L37.7276 19.7561H33.698Z" fill="white"/>
<path d="M52.2506 0.167898C52.8289 0.167898 53.314 0.36378 53.7058 0.755544C54.1162 1.14731 54.3214 1.63235 54.3214 2.21067C54.3214 2.78899 54.1162 3.27403 53.7058 3.66579C53.314 4.05755 52.8289 4.25343 52.2506 4.25343C51.691 4.25343 51.2153 4.05755 50.8235 3.66579C50.4317 3.27403 50.2358 2.78899 50.2358 2.21067C50.2358 1.63235 50.4317 1.14731 50.8235 0.755544C51.2153 0.36378 51.691 0.167898 52.2506 0.167898ZM54.0695 6.18427V19.7561H50.4317V6.18427H54.0695Z" fill="white"/>
<path d="M61.3972 0V19.7561H57.7873V0.307813L61.3972 0Z" fill="white"/>
<path d="M68.8302 0V19.7561H65.2204V0.307813L68.8302 0Z" fill="white"/>
<path d="M79.4813 20.0919C77.1307 20.0919 75.2745 19.4483 73.9126 18.1611C72.5694 16.8738 71.8978 15.1482 71.8978 12.9842C71.8978 10.8201 72.5042 9.08519 73.7168 7.77931C74.948 6.47343 76.6177 5.82049 78.7257 5.82049C80.8524 5.82049 82.4102 6.5294 83.3989 7.94721C84.4063 9.34636 84.91 11.0067 84.91 12.9282V14.0475H75.7595C75.9274 14.943 76.3378 15.6612 76.9908 16.2022C77.6437 16.7246 78.5019 16.9858 79.5652 16.9858C80.1809 16.9858 80.7312 16.9111 81.2162 16.7619C81.7199 16.594 82.2982 16.3608 82.9512 16.0623L84.0145 18.6927C83.3803 19.1778 82.6061 19.5322 81.6919 19.7561C80.7965 19.98 80.0596 20.0919 79.4813 20.0919ZM81.4681 11.613C81.2815 10.6989 80.9457 10.0273 80.4607 9.59821C79.9756 9.15048 79.3693 8.92662 78.6418 8.92662C77.8956 8.92662 77.2706 9.15981 76.7669 9.6262C76.2632 10.0739 75.9367 10.7362 75.7875 11.613H81.4681Z" fill="white"/>
<path d="M90.7003 7.63939C91.3159 7.02377 92.0808 6.53872 92.9949 6.18427C93.9277 5.82982 94.7579 5.65259 95.4854 5.65259C97.3323 5.65259 98.6382 6.1936 99.4031 7.27561C100.187 8.35763 100.578 9.68216 100.578 11.2492V19.7561H96.9406V11.4171C96.9406 10.559 96.7354 9.90603 96.3249 9.4583C95.9145 8.99191 95.3175 8.75872 94.534 8.75872C94.0117 8.75872 93.4613 8.89863 92.883 9.17847C92.3233 9.43964 91.8103 9.74746 91.3439 10.1019V19.7561H87.7061V6.18427H89.609L90.7003 7.63939Z" fill="white"/>
<path d="M110.403 8.92662C109.377 8.92662 108.574 9.31838 107.996 10.1019C107.418 10.8668 107.129 11.8275 107.129 12.9842C107.129 14.1595 107.418 15.1202 107.996 15.8664C108.574 16.6126 109.377 16.9858 110.403 16.9858C111.037 16.9858 111.606 16.9111 112.11 16.7619C112.632 16.594 113.22 16.3608 113.873 16.0623L114.908 18.6927C114.274 19.1778 113.499 19.5322 112.585 19.7561C111.69 19.98 110.953 20.0919 110.375 20.0919C108.173 20.0919 106.457 19.4483 105.226 18.1611C103.994 16.8738 103.379 15.1482 103.379 12.9842C103.379 10.8201 103.994 9.08519 105.226 7.77931C106.457 6.47343 108.173 5.82049 110.375 5.82049C110.953 5.82049 111.681 5.94175 112.557 6.18427C113.453 6.42679 114.236 6.78124 114.908 7.24763L113.873 9.85006C113.22 9.55157 112.632 9.32771 112.11 9.17847C111.606 9.01057 111.037 8.92662 110.403 8.92662Z" fill="white"/>
<path d="M124.571 20.0919C122.221 20.0919 120.364 19.4483 119.003 18.1611C117.659 16.8738 116.988 15.1482 116.988 12.9842C116.988 10.8201 117.594 9.08519 118.807 7.77931C120.038 6.47343 121.708 5.82049 123.816 5.82049C125.942 5.82049 127.5 6.5294 128.489 7.94721C129.496 9.34636 130 11.0067 130 12.9282V14.0475H120.85C121.017 14.943 121.428 15.6612 122.081 16.2022C122.734 16.7246 123.592 16.9858 124.655 16.9858C125.271 16.9858 125.821 16.9111 126.306 16.7619C126.81 16.594 127.388 16.3608 128.041 16.0623L129.105 18.6927C128.47 19.1778 127.696 19.5322 126.782 19.7561C125.886 19.98 125.15 20.0919 124.571 20.0919ZM126.558 11.613C126.372 10.6989 126.036 10.0273 125.551 9.59821C125.066 9.15048 124.459 8.92662 123.732 8.92662C122.986 8.92662 122.361 9.15981 121.857 9.6262C121.353 10.0739 121.027 10.7362 120.878 11.613H126.558Z" fill="white"/>
</svg>
