<svg width="166" height="166" viewBox="0 0 166 166" fill="none" xmlns="http://www.w3.org/2000/svg">
<circle r="83" transform="matrix(-1 0 0 1 83 83)" fill="#D7DFFF"/>
<mask id="mask0" mask-type="alpha" maskUnits="userSpaceOnUse" x="0" y="0" width="166" height="166">
<circle r="83" transform="matrix(-1 0 0 1 83 83)" fill="#CFD2E1"/>
</mask>
<g mask="url(#mask0)">
<path d="M65.2562 122.908C50.9396 125.994 19.4438 131.205 8.93408 148.403C3.7411 156.945 -0.125701 175.454 10.6922 210.17C16.4362 228.641 20.4091 245.828 24.0407 272.922C36.6419 273.495 144.493 278.4 144.493 278.4C144.493 278.4 138.614 266.702 137.069 262.835C130.707 247.539 132.176 242.624 133.04 228.843C133.468 222.041 137.517 199.508 138.823 182.544C140.136 165.402 137.099 144.801 132.213 137.461C127.33 130.061 99.5798 115.513 65.2562 122.908Z" fill="#5171ED"/>
<path d="M134.532 139.938C140.449 148.096 162.424 198.327 173.387 232.457C176.19 241.244 155.306 250.497 153.089 247.074C149.594 241.755 148.001 242.869 142.965 238.844C133.064 230.92 129.421 224.941 125.011 218.869C81.751 159.307 116.172 114.547 134.532 139.938Z" fill="#5171ED"/>
<path d="M67.2652 153.072C75.1373 170.394 88.4816 209.556 91.6373 223.638C94.793 237.721 96.7266 276.067 96.7266 276.067L128.833 278.298C128.833 278.298 125.341 269.005 124.714 255.393C123.795 233.879 125.52 202.462 125.085 187.257C124.375 162.431 115.631 140.799 109.047 127.747C108.396 126.412 107.802 125.14 107.323 123.932C84.1521 110.422 59.4928 124.426 56.1726 125.698C59.0244 133.42 63.06 143.806 67.2652 153.072Z" fill="white"/>
<path d="M61.2666 80.1981C61.2666 80.1981 61.1428 79.0062 60.8819 76.9183C60.621 74.8304 60.2847 71.7901 59.9162 68.1551C59.5477 64.5202 59.2115 60.1749 59.303 55.5525C59.3488 53.2413 59.4592 50.8144 59.809 48.3391C60.1589 45.8638 60.689 43.3374 61.628 40.9482C62.5698 38.4998 63.8613 36.186 65.6694 34.2515C67.4183 32.3143 69.6192 30.8722 71.917 29.9091C73.0659 29.4275 74.2093 29.0643 75.2883 28.8168C75.7699 28.6607 76.4264 28.572 76.9645 28.4778C77.5618 28.3864 78.0999 28.2922 78.6327 28.3164C80.8362 28.1201 83.0183 28.3972 84.8882 29.0161C86.7581 29.635 88.3213 30.4772 89.5832 31.4243C90.845 32.3714 91.8082 33.3642 92.54 34.2279C93.2718 35.0916 93.7131 35.8234 94.0467 36.3131C94.3803 36.8028 94.4825 37.1634 94.4825 37.1634C94.7005 37.5885 94.4987 38.1131 94.0736 38.331C93.6484 38.549 93.1238 38.3472 92.965 37.9247C92.965 37.9247 92.8575 37.6826 92.5803 37.2548C92.3032 36.827 91.8001 36.1516 91.1786 35.4709C90.5006 34.7283 89.5885 33.9157 88.4962 33.1543C87.3446 32.3901 85.9536 31.6744 84.3715 31.2466C82.7303 30.816 80.9573 30.6761 78.9878 30.9424C78.5115 30.9801 78.0326 31.0769 77.5537 31.1738C77.0747 31.2706 76.655 31.3702 76.1142 31.5235C75.1537 31.7764 74.1286 32.145 73.2165 32.6373C71.3358 33.5602 69.6164 34.8462 68.2361 36.5036C66.8558 38.1609 65.8764 40.1331 65.1849 42.2963C64.4961 44.4003 64.0951 46.6953 63.9336 48.9419C63.713 51.1858 63.7291 53.4405 63.807 55.6387C63.963 60.0351 64.5467 64.1544 65.0363 67.7355C65.5878 71.2602 66.1043 74.2494 66.4245 76.34C66.8038 78.4332 66.9867 79.6278 66.9867 79.6278C67.2719 81.183 66.1983 82.617 64.7024 82.9049C63.1472 83.19 61.7132 82.1165 61.4253 80.6205C61.2612 80.3165 61.2639 80.2573 61.2666 80.1981Z" fill="#F67459"/>
<path d="M101.493 90.3909C94.8896 90.0906 89.7798 84.4939 90.0801 77.8903C90.3805 71.2867 95.9772 66.1769 102.581 66.4772C109.184 66.7775 114.294 72.3743 113.994 78.9778C113.694 85.5814 108.097 90.6912 101.493 90.3909Z" fill="#F67459"/>
<path d="M67.5378 97.5067C67.5378 97.5067 65.9286 110.72 64.9085 124.019C64.3137 131.881 84.6326 141.584 87.2586 141.229C89.4676 140.914 90.1135 130.623 90.5791 125.602C91.992 110.185 91.4001 108.853 92.4175 96.918C93.3433 85.6903 67.2341 83.3167 67.5378 97.5067Z" fill="#FCD7A8"/>
<path d="M79.4888 116.438C82.669 118.244 86.1909 119.056 91.0393 119.395C91.7848 109.524 91.4835 107.019 92.3582 96.9157C93.284 85.6881 67.1371 88.0578 68.1483 103.644C69.3832 107.793 72.262 112.313 79.4888 116.438Z" fill="#F9AD61"/>
<path d="M81.0348 44.6186C101.421 42.402 104.846 55.785 107.159 76.6503C109.091 94.1767 104.665 108.033 98.452 110.301C87.652 114.318 66.671 111.347 58.6185 96.6858C41.9647 66.3897 56.2385 47.287 81.0348 44.6186Z" fill="#FCD7A8"/>
<path d="M64.3178 91.3697C60.8712 88.8997 57.3143 88.8565 56.0149 82.2135C55.1971 78.0243 59.5425 72.4684 62.0097 74.3007C64.7647 76.3241 67.1242 84.4389 70.0409 77.691C71.8518 71.7826 71.4913 67.97 77.5397 66.7029C81.6725 65.8232 91.4984 66.2701 95.7414 65.5733C124.732 60.6637 126.14 36.2308 120.988 30.8361C112.607 22.0915 96.8373 32.3476 95.2094 35.5359C93.3529 34.621 91.3216 33.6389 87.8158 32.4712C76.3595 28.7472 56.4115 36.9744 52.1008 53.5051C45.0864 56.4484 36.4577 62.2841 40.2349 74.4374C46.4954 94.5926 63.0528 107.446 63.9408 103.571C65.9482 94.6468 64.3178 91.3697 64.3178 91.3697Z" fill="#253B6D"/>
<path d="M61.487 74.0237C65.2934 73.0573 69.3062 75.9251 70.4499 80.4293C71.5937 84.9335 69.4352 89.3683 65.6288 90.3348C61.8225 91.3012 57.8096 88.4334 56.6659 83.9292C55.5222 79.425 57.6807 74.9902 61.487 74.0237Z" fill="#FFBF99"/>
<path d="M63.3892 92.2173C56.7857 91.917 51.6758 86.3203 51.9762 79.7167C52.2765 73.1131 57.8732 68.0033 64.4768 68.3036C71.0804 68.604 76.1901 74.2007 75.8898 80.8043C75.5895 87.4078 69.9928 92.5176 63.3892 92.2173Z" fill="#F67459"/>
<path d="M63.5264 89.1983C58.59 88.9739 54.7703 84.7902 54.9948 79.8538C55.2193 74.9175 59.403 71.0978 64.3393 71.3223C69.2757 71.5468 73.0954 75.7305 72.8709 80.6668C72.6464 85.6031 68.4627 89.4228 63.5264 89.1983Z" stroke="#FFAC9B" stroke-width="2" stroke-miterlimit="10" stroke-linecap="round" stroke-linejoin="round"/>
<path d="M61.2664 80.1981C61.2664 80.1981 60.8306 76.738 60.2361 71.5506C59.7035 66.3067 58.9556 59.2735 59.4024 52.0574C59.6258 48.4494 60.2071 44.7983 61.3641 41.5293C61.913 39.8935 62.696 38.3276 63.5301 36.942C64.3642 35.5563 65.3678 34.3564 66.4226 33.3367C68.5293 31.3565 70.6549 30.2669 72.1643 29.683C72.95 29.3629 73.55 29.2122 73.9724 29.0535C74.3921 28.9539 74.6343 28.8463 74.6343 28.8463C75.3553 28.6419 76.1087 29.032 76.3105 29.8123C76.5149 30.5334 76.1274 31.2275 75.4629 31.4939L75.4037 31.4912C75.4037 31.4912 75.2234 31.5423 74.8602 31.7037C74.4996 31.8059 73.9561 32.0185 73.3481 32.3467C72.0754 32.9413 70.3104 33.9287 68.6906 35.6345C67.8808 36.4874 67.122 37.5205 66.4762 38.6774C65.8305 39.8344 65.2923 41.2335 64.8134 42.6352C63.9685 45.5625 63.5809 48.8665 63.5486 52.1867C63.4812 58.8862 64.5357 65.696 65.3723 70.7758C66.2655 75.9175 66.8224 79.3238 66.8224 79.3238C67.1075 80.8789 66.034 82.313 64.538 82.6008C62.9828 82.886 61.5488 81.8124 61.261 80.3165C61.261 80.3165 61.2637 80.2573 61.2664 80.1981Z" fill="#F67459"/>
<path d="M65.8485 78.5684C65.8485 78.5684 65.8808 79.163 66.0099 80.2366C66.0798 81.3074 66.1874 82.8545 66.3407 84.7002C66.4967 86.4867 66.6366 88.6284 66.954 90.7782C67.2714 92.928 67.7665 95.0858 68.8131 96.8535C69.857 98.6804 71.5116 100.12 73.2981 101.269C74.1618 101.842 75.1465 102.361 76.0209 102.698C76.1958 102.765 76.4299 102.835 76.6048 102.902C76.8388 102.972 77.0729 103.042 77.2478 103.109C77.7159 103.249 78.1276 103.327 78.5393 103.405C80.2451 103.72 81.7814 103.849 82.8441 103.957C83.9069 104.065 84.5016 104.032 84.5016 104.032C84.9751 104.054 85.3733 104.428 85.3518 104.901C85.3302 105.375 84.9589 105.714 84.5418 105.754C84.5418 105.754 83.8881 105.784 82.8172 105.854C81.7491 105.865 80.2047 105.913 78.254 105.765C77.7805 105.743 77.2504 105.66 76.7796 105.579C76.5428 105.568 76.2495 105.496 75.9563 105.423C75.663 105.35 75.3697 105.278 75.0765 105.205C73.9653 104.858 72.9187 104.395 71.8155 103.871C70.7124 103.346 69.6174 102.644 68.5277 101.823C67.4381 101.002 66.4749 100.01 65.6381 98.8445C64.8014 97.6794 64.1449 96.4633 63.6687 95.196C63.1925 93.9288 62.832 92.7261 62.5307 91.5261C61.9254 89.1853 61.6079 87.0355 61.2744 85.2409C60.9408 83.4463 60.7121 81.953 60.5238 80.8768C60.3355 79.8006 60.244 79.2032 60.244 79.2032C59.9588 77.6481 60.9732 76.2114 62.5284 75.9262C64.0835 75.641 65.5203 76.6554 65.8054 78.2106C65.8593 78.3316 65.8539 78.45 65.8485 78.5684Z" fill="#F67459"/>
<path d="M82.3328 108.679L85.6529 108.711C87.7273 108.746 89.4036 107.102 89.4386 105.028C89.4736 102.953 87.8298 101.277 85.7553 101.242L82.4352 101.21C80.3608 101.175 78.6845 102.819 78.6495 104.893C78.6144 106.967 80.2583 108.644 82.3328 108.679Z" fill="#F67459"/>
<path d="M80.3794 142.518L94.0606 156.011C94.0606 156.011 94.5847 182.312 94.9744 199.827C95.3641 217.343 93.184 247.02 93.184 247.02L102.49 256.281L112.957 249.165C112.957 249.165 116.514 223.109 110.467 198.278C104.419 173.447 96.77 155.126 96.77 155.126C96.77 155.126 99.3343 148.303 99.294 143.971C99.2511 139.699 98.7668 137.304 98.7668 137.304C98.7668 137.304 89.9579 137.971 86.0216 139.75C82.0234 141.584 80.3794 142.518 80.3794 142.518Z" fill="#263059"/>
<path d="M52.7324 123.11C52.7324 123.11 57.9387 116.881 60.7047 114.753C65.3164 111.167 61.9101 113.029 65.9539 119.322C67.5601 121.827 76.775 131.796 81.7336 134.928C86.6923 138.059 89.8133 138.557 89.8133 138.557C89.8133 138.557 87.5209 139.402 82.5809 144.99C77.6409 150.578 72.1601 160.235 72.1601 160.235C72.1601 160.235 62.1731 141.156 58.5868 133.934C55.0569 126.775 52.7324 123.11 52.7324 123.11Z" fill="white"/>
<path d="M107.74 134.331C104.757 128.204 105.462 121.83 105.462 121.83C100.514 119.766 97.0485 119.016 91.4388 114.549C91.4522 115.558 91.1374 118.569 91.1239 118.865C91.1239 118.865 91.2179 125.928 91.0321 133.927C90.9244 137.599 89.0867 138.88 89.0867 138.88C89.0867 138.88 92.8858 138.815 100.005 141.393C107.065 143.968 114.238 146.667 114.238 146.667C114.238 146.667 110.724 140.457 107.74 134.331Z" fill="white"/>
<path d="M114.178 146.665C114.178 146.665 107.067 143.91 99.9451 141.391C92.8852 138.816 89.6672 139.144 89.6672 139.144C89.6672 139.144 87.5175 139.462 82.5775 145.05C77.6375 150.638 72.1566 160.294 72.1566 160.294" stroke="#CFD2E1" stroke-width="2" stroke-miterlimit="10" stroke-linecap="round" stroke-linejoin="round"/>
<path d="M66.6165 142.545C60.797 133.561 56.7884 118.668 56.7884 118.668L43.1767 127.124L43.5718 143.217L59.6022 144.183L49.8271 155.661C49.8271 155.661 70.6111 182.526 79.0778 203.731C92.597 237.74 93.9091 276.71 93.9091 276.71L100.361 277.004C100.361 277.004 99.2646 224.164 86.375 186.743C79.0464 165.294 72.436 151.529 66.6165 142.545Z" fill="#89A1FF"/>
<path d="M115.946 136.484L121.316 131.864L113.732 125.173L98.0112 118.704C98.0112 118.704 108.682 137.103 113.226 150.655C116.989 161.799 121.197 195.8 120.946 214.354C120.827 223.483 120.825 227.457 120.628 240.913C120.167 267.999 127.988 278.616 127.988 278.616L131.995 279.213C131.995 279.213 124.693 271.526 127.155 240.854C128.794 220.465 131.563 205.228 131.448 190.809C131.222 165.768 129.138 143.786 129.138 143.786L115.946 136.484Z" fill="#89A1FF"/>
<path d="M41.5569 147.099C48.2372 163.24 36.5051 217.75 13.8499 246.377C8.50092 253.133 -10.8657 251.185 -10.341 247.472C-9.53903 241.577 -13.0717 242.306 -14.164 236.325C-15.1136 231.121 -14.8255 220.873 -14.1876 213.369C-7.89012 144.02 30.3325 120.015 41.5569 147.099Z" fill="#5171ED"/>
<path d="M-6.82894 247.216C-8.56703 246.307 -9.64862 245.309 -9.48716 244.367C-8.68523 238.472 -12.9902 243.14 -14.0852 237.218C-15.0348 232.015 -14.8247 220.873 -14.125 213.312C-12.9193 199.844 -10.4868 188.091 -7.30358 178.093C-7.30358 178.093 -1.49691 158.665 10.3688 145.562C22.2345 132.459 40.7402 128.556 40.7402 128.556" stroke="#8CA3FC" stroke-width="2" stroke-miterlimit="10" stroke-linecap="round" stroke-linejoin="round"/>
<path d="M100.355 277.136C101.335 250.37 91.9309 202.832 86.3753 186.743C78.9848 165.35 72.4363 151.528 66.6169 142.544C60.7974 133.56 56.7888 118.668 56.7888 118.668" stroke="#8CA3FC" stroke-width="2" stroke-miterlimit="10" stroke-linecap="round" stroke-linejoin="round"/>
</g>
</svg>
