<svg width="166" height="166" viewBox="0 0 166 166" fill="none" xmlns="http://www.w3.org/2000/svg">
<circle r="83" transform="matrix(-1 0 0 1 83 83)" fill="#5171ED"/>
<mask id="mask0" mask-type="alpha" maskUnits="userSpaceOnUse" x="0" y="0" width="166" height="166">
<circle r="83" transform="matrix(-1 0 0 1 83 83)" fill="#5171ED"/>
</mask>
<g mask="url(#mask0)">
<path d="M98 46L107 37" stroke="#8CA3FC" stroke-width="3" stroke-linecap="round" stroke-linejoin="round"/>
<path d="M67 45L59 37" stroke="#8CA3FC" stroke-width="3" stroke-linecap="round" stroke-linejoin="round"/>
<path d="M81.4763 35.8829L81.3728 20.9668" stroke="#8CA3FC" stroke-width="3" stroke-linecap="round" stroke-linejoin="round"/>
<path d="M132.88 121.619C132.88 121.619 118.114 108.264 113.976 103.091C109.744 97.9184 106.64 96.6957 105.323 92.2754C104.007 87.855 104.007 85.5037 98.5517 77.0392C92.7206 67.9164 91.6861 71.1141 87.4538 63.496C85.2906 59.64 83.8799 53.3386 84.6323 48.6361C85.1025 45.6265 82.0929 44.686 78.8952 48.5421C74.0987 54.5613 75.9797 58.7935 76.2618 61.9912C76.544 66.5997 78.8012 73.2772 78.8012 73.2772C78.8012 73.2772 67.5152 73.1832 62.5305 73.8415C57.5459 74.4999 57.5458 77.8857 57.5458 80.9893C57.5458 84.1871 55.1006 86.1621 55.0065 88.6074C54.8184 92.3694 58.7685 95.6612 57.5458 97.3541C56.3232 99.141 56.4172 101.963 57.7339 104.314C59.0506 106.665 58.1102 108.17 57.828 110.239C57.5459 112.308 61.6841 116.352 68.9259 117.857C76.0737 119.362 84.162 120.584 86.2311 119.55C88.3002 118.515 93.8492 118.797 101.561 129.519C109.273 140.335 114.446 147.012 114.446 147.012L132.88 121.619Z" fill="#FCD7A8"/>
<path d="M134.479 123.5C134.479 122.747 118.302 104.784 118.302 104.784C118.302 104.784 113.787 112.496 107.11 119.173C100.432 125.757 97.1406 127.262 97.1406 127.262L112.941 149.081C112.941 149.081 120.277 144.661 126.484 138.642C132.692 132.528 134.479 123.5 134.479 123.5Z" fill="#9CD6ED"/>
<path d="M197.775 182.188C197.398 189.806 195.611 197.236 194.765 200.057C193.542 204.196 195.047 208.71 190.909 212.472C186.018 216.986 179.999 216.798 175.767 216.61C171.535 216.328 145.953 221.407 135.796 209.556C123.193 194.885 107.11 145.414 100.715 140.618" stroke="#8CA3FC" stroke-width="2" stroke-miterlimit="10" stroke-linecap="round" stroke-linejoin="round"/>
<path d="M128.271 111.838C128.271 111.838 143.32 131.965 159.966 139.018C171.723 144.003 179.341 149.176 184.325 153.408" stroke="#8CA3FC" stroke-width="2" stroke-miterlimit="10" stroke-linecap="round" stroke-linejoin="round"/>
</g>
</svg>
